<?xml version="1.0" standalone="no"?>
<!DOCTYPE svg PUBLIC "-//W3C//DTD SVG 1.1//EN" "http://www.w3.org/Graphics/SVG/1.1/DTD/svg11.dtd" >
<svg xmlns="http://www.w3.org/2000/svg" xmlns:xlink="http://www.w3.org/1999/xlink" version="1.1">
<metadata>
Created by FontForge 20190801 at Sun Dec 19 17:10:01 2010
 By Jimmy Wärting
Inspired on the popular font HELVETICA by Max Miedinger with Eduard Hoffman, eliminating all highs and lows.
</metadata>
<defs>
<font id="LowveticaBold" horiz-adv-x="166" >
  <font-face 
    font-family="Lowvetica"
    font-weight="700"
    font-stretch="normal"
    units-per-em="1000"
    panose-1="0 0 0 0 0 0 0 0 0 0"
    ascent="800"
    descent="-200"
    x-height="525"
    cap-height="727"
    bbox="-174 -215 1162 963"
    underline-thickness="50"
    underline-position="-100"
    unicode-range="U+000D-FB02"
  />
<missing-glyph horiz-adv-x="222" 
 />
    <glyph glyph-name=".notdef" horiz-adv-x="222" 
 />
    <glyph glyph-name=".null" horiz-adv-x="0" 
 />
    <glyph glyph-name=".null" horiz-adv-x="0" 
 />
    <glyph glyph-name="nonmarkingreturn" unicode="&#xd;" horiz-adv-x="222" 
 />
    <glyph glyph-name="space" unicode=" " horiz-adv-x="222" 
 />
    <glyph glyph-name="exclam" unicode="!" horiz-adv-x="181" 
d="M111 116h-39q-2 72 -3.5 133.5t-1.5 121.5v153h48v-153q0 -60 -1.5 -121.5t-2.5 -133.5zM67 -14v108h48v-108h-48z" />
    <glyph glyph-name="quotedbl" unicode="&#x22;" horiz-adv-x="352" 
d="M209 472v255h57v-255h-57zM86 472v255h57v-255h-57z" />
    <glyph glyph-name="numbersign" unicode="#" horiz-adv-x="454" 
d="M328 291l-12 -89h71v-60h-79l-20 -161h-58l21 161h-76l-20 -161h-57l20 161h-72v60h80l12 89h-72v61h80l20 160h57l-20 -160h75l21 160h57l-20 -160h71v-61h-79zM195 291l-12 -89h76l12 89h-76z" />
    <glyph glyph-name="dollar" unicode="$" horiz-adv-x="454" 
d="M259 -23v-67h-58v67q-99 10 -142.5 63.5t-43.5 147.5h65q1 -68 28 -103t93 -42l1 188q-28 6 -57 13.5t-54 22.5q-28 16 -45.5 43.5t-17.5 73.5q0 68 48 103.5t125 40.5v53h58v-53q37 -4 67.5 -16t53 -34.5t35 -56t14.5 -79.5h-64q-2 22 -7 42t-16.5 36t-31.5 27t-51 15
v-174q29 -5 59 -12.5t56 -21.5q29 -16 48.5 -44t19.5 -75q0 -29 -9.5 -56t-31 -49t-56.5 -36t-86 -17zM201 463q-32 -3 -52 -10.5t-31 -18.5t-15.5 -24.5t-4.5 -28.5q0 -34 23.5 -51t79.5 -30v163zM276 214l-17 4v-176q33 2 55 10.5t34.5 21t18 28t5.5 30.5q0 16 -3.5 28
t-13.5 21.5t-29 17.5t-50 15z" />
    <glyph glyph-name="percent" unicode="%" horiz-adv-x="648" 
d="M164 -34h-70l380 561h71zM170 218q-69 0 -102 43.5t-33 109.5q0 32 8 59.5t24.5 48t42 32.5t60.5 12q34 0 59.5 -11.5t42 -32t24.5 -48t8 -59.5t-8 -60t-24.5 -49t-42 -33t-59.5 -12zM171 462q-39 0 -56 -24t-17 -66q0 -44 17 -68.5t55 -24.5t55.5 24.5t17.5 66.5
q0 43 -16.5 67.5t-55.5 24.5zM470 -38q-69 0 -102 44t-33 110q0 31 8 59t24.5 48t42 32t60.5 12t60 -11.5t41.5 -31.5t25 -47.5t8.5 -59.5t-8 -60t-25 -49t-42.5 -33.5t-59.5 -12.5zM471 206q-39 0 -55.5 -23.5t-16.5 -65.5q0 -44 16.5 -69t54.5 -25t55.5 25t17.5 67
q1 43 -16 67t-56 24z" />
    <glyph glyph-name="ampersand" unicode="&#x26;" horiz-adv-x="461" 
d="M468 -14l-59 62q-41 -41 -84.5 -57t-103.5 -16q-48 0 -84 14t-60 37.5t-36 54t-12 63.5t11.5 58t30.5 43.5t41.5 32t45.5 23.5q-9 10 -17 20t-16 21q-9 16 -15 33.5t-6 40.5q0 17 6.5 37.5t22 38t40.5 29.5t62 12q25 0 48.5 -7t41.5 -22t29 -37t11 -52q0 -27 -9.5 -48
t-24 -37t-31 -27.5t-31.5 -19.5l133 -134q13 29 13 81l66 -3q0 -40 -9 -71.5t-23 -54.5l115 -115h-96zM253 465q-26 -2 -42 -7t-25 -12t-12 -15t-3 -15q0 -21 16 -44t35 -42q13 6 26.5 13.5t24.5 17t18 22.5t7 30q0 23 -14 35.5t-31 16.5zM201 258l16 18q-30 -20 -52.5 -36
t-37.5 -30.5t-22.5 -30t-7.5 -34.5q0 -50 35.5 -77t92.5 -27q55 0 89.5 18.5t49.5 33.5z" />
    <glyph glyph-name="quotesingle" unicode="'" horiz-adv-x="222" 
d="M91 472v255h40v-255h-40z" />
    <glyph glyph-name="parenleft" unicode="(" horiz-adv-x="207" 
d="M154 -82l11 13q-123 139 -123 322q0 93 28.5 174t77.5 162h61q-28 -52 -47.5 -93t-32 -79t-18.5 -77t-6 -86t6 -86t18.5 -77t32.5 -79.5t48 -93.5h-56z" />
    <glyph glyph-name="parenright" unicode=")" horiz-adv-x="207" 
d="M60 -81l-62 -2q28 52 47.5 93t32 79t18.5 77t6 87t-6 87t-18.5 77t-32 79t-47.5 93h62q50 -81 77.5 -161t27.5 -174t-27.5 -174.5t-77.5 -160.5z" />
    <glyph glyph-name="asterisk" unicode="*" horiz-adv-x="408" 
d="M248 530l85 -108l-44 -37l-85 108l-85 -108l-44 37l85 108l-125 49l22 56l120 -44v136h54v-136l120 44l22 -56z" />
    <glyph glyph-name="plus" unicode="+" horiz-adv-x="600" 
d="M331 221v-234h-62v234h-222v65h222v233h62v-233h222v-65h-222z" />
    <glyph glyph-name="comma" unicode="," horiz-adv-x="222" 
d="M67 -149v61q17 10 22 29.5t5 43.5v2h-14v126h57v-113q0 -47 -14 -86.5t-56 -62.5z" />
    <glyph glyph-name="hyphen" unicode="-" horiz-adv-x="407" 
d="M75 235v71h257v-71h-257z" />
    <glyph glyph-name="period" unicode="." horiz-adv-x="222" 
d="M85 -13v126h52v-126h-52z" />
    <glyph glyph-name="slash" unicode="/" horiz-adv-x="285" 
d="M43 -30h-68l267 560h67z" />
    <glyph glyph-name="zero" unicode="0" horiz-adv-x="454" 
d="M230 -22q-61 0 -102 24t-66 63t-36 89t-11 103t11 103t35.5 89t65 63t100.5 24q61 0 103 -23.5t67 -62.5t36 -89.5t11 -103.5q0 -54 -9.5 -104t-33.5 -89t-65.5 -62.5t-105.5 -23.5zM230 471q-42 0 -70.5 -17t-46 -46t-25 -68t-7.5 -83q0 -43 7 -81.5t24.5 -68t46 -46.5
t71.5 -17t71.5 16.5t45.5 45t24.5 68t7.5 84.5t-7.5 83.5t-24.5 67.5t-45.5 45.5t-71.5 16.5z" />
    <glyph glyph-name="one" unicode="1" horiz-adv-x="301" 
d="M153 -13v423q-29 -20 -63.5 -31t-77.5 -16l1 68q22 1 45 8t43.5 18.5t36.5 28t24 37.5h52v-536h-61z" />
    <glyph glyph-name="two" unicode="2" horiz-adv-x="461" 
d="M47 -13q-1 46 8 77.5t28 56t48.5 45t70.5 46.5q14 8 29.5 17t31.5 20q16 10 29.5 20t24.5 21q17 17 25 35t8 44q0 48 -29 75t-94 27t-92 -36t-27 -114h-66q2 116 50.5 166t140.5 50t137 -46t45 -121q-1 -38 -11 -65.5t-33 -53.5q-22 -23 -56 -46t-83 -52
q-15 -9 -36.5 -22t-41.5 -30q-15 -12 -27 -24t-17 -23h315v-67h-378z" />
    <glyph glyph-name="three" unicode="3" horiz-adv-x="461" 
d="M361 274q28 -16 49 -48t21 -89q0 -72 -51 -117t-147 -45q-46 0 -83.5 12t-63.5 38t-41 67t-16 99h66q0 -85 35 -117.5t107 -32.5q24 0 47.5 5t41.5 16.5t29 31t11 50.5q0 37 -16.5 56.5t-42.5 28.5t-57 10t-61 1l1 66q32 0 61.5 0.5t52.5 7t36.5 22t13.5 45.5
q0 50 -31.5 70t-84.5 20q-61 0 -95.5 -31.5t-34.5 -108.5h-65q1 56 16 95t41 63.5t61.5 35.5t76.5 11q40 0 73 -9.5t57 -28.5t37.5 -47.5t13.5 -65.5q0 -42 -16 -69t-42 -42z" />
    <glyph glyph-name="four" unicode="4" horiz-adv-x="459" 
d="M347 114v-127h-65v127h-257v58l264 351h58v-343h90v-66h-90zM282 411l-173 -231h173v231z" />
    <glyph glyph-name="five" unicode="5" horiz-adv-x="459" 
d="M125 328q26 16 54.5 23.5t57.5 7.5q43 0 78.5 -14t60 -38.5t38 -59t13.5 -75.5q0 -48 -15.5 -85t-42.5 -61.5t-64 -37t-80 -12.5q-39 0 -73.5 12t-61 36.5t-42.5 62.5t-17 90h64q6 -75 40.5 -104.5t94.5 -29.5q64 1 98 32t33 94q0 22 -7 44t-22.5 40t-40.5 29t-62 11
q-48 0 -78.5 -20.5t-47.5 -46.5h-63l60 298h303v-65h-251z" />
    <glyph glyph-name="six" unicode="6" horiz-adv-x="461" 
d="M231 -26q-59 0 -98 21.5t-62 57.5t-32.5 83.5t-9.5 99.5q0 57 7.5 111t31 96t65.5 67.5t111 25.5q75 0 123 -42.5t53 -125.5h-64q-6 56 -39 79.5t-80 23.5q-44 0 -72 -17t-43.5 -46t-21.5 -67t-6 -80q2 40 40 68.5t102 28.5q40 0 75 -12.5t61 -36.5t41 -59t15 -80
q0 -42 -13.5 -77.5t-39 -62t-62 -41.5t-82.5 -15zM238 292q-69 0 -102 -35t-33 -89q0 -18 5.5 -40t19.5 -42t40.5 -33.5t68.5 -13.5q58 0 92 34t34 95q0 53 -31 88.5t-94 35.5z" />
    <glyph glyph-name="seven" unicode="7" horiz-adv-x="419" 
d="M173 -12l-71 -2q21 146 70.5 261.5t135.5 210.5h-288v65h378v-59q-51 -54 -88.5 -105.5t-64.5 -107t-44.5 -119.5t-27.5 -144z" />
    <glyph glyph-name="eight" unicode="8" horiz-adv-x="461" 
d="M231 -25q-100 0 -153.5 42.5t-53.5 123.5q0 29 7 51.5t18.5 39t26.5 28t31 19.5q-34 20 -47 49.5t-13 64.5q0 45 18 72.5t45.5 43t60 21t61.5 5.5q28 0 60 -5.5t59 -21.5t45 -43.5t18 -70.5q0 -36 -13 -66t-47 -49q16 -8 31 -19.5t26.5 -28.5t18.5 -39t7 -51
q1 -81 -53 -123.5t-153 -42.5zM230 470q-50 0 -83.5 -17.5t-33.5 -66.5q0 -23 9 -37.5t25 -23t37.5 -11.5t45.5 -3q25 0 46.5 3.5t37.5 12t25 23.5t9 39q0 44 -34.5 62.5t-83.5 18.5zM230 245v25q-77 -19 -109 -50t-32 -78q0 -21 7.5 -39t24 -31.5t43.5 -21.5t67 -8
q26 0 51.5 4.5t45 15.5t31.5 30t12 49q0 23 -7 42.5t-23.5 33t-43.5 21t-67 7.5z" />
    <glyph glyph-name="nine" unicode="9" horiz-adv-x="461" 
d="M216 -22q-75 0 -123 42.5t-54 126.5l64 -2q6 -57 38.5 -79t80.5 -22q44 0 72 17t43.5 45.5t21.5 66.5t6 80q-1 -20 -11 -37.5t-28.5 -31t-44.5 -21t-57 -7.5q-41 0 -76 12.5t-60.5 36.5t-40.5 59t-15 80q0 42 13.5 77.5t39 61.5t62 41t82.5 15q59 0 98 -21.5t62 -57.5
t32.5 -83.5t9.5 -98.5q0 -57 -8 -111t-31 -96t-65 -67.5t-111 -25.5zM223 474q-58 0 -92.5 -34.5t-34.5 -93.5q0 -53 31.5 -88t94.5 -35q69 0 102 34.5t33 88.5q0 17 -5 39.5t-19.5 42t-41 33t-68.5 13.5z" />
    <glyph glyph-name="colon" unicode=":" horiz-adv-x="222" 
d="M85 383v125h52v-125h-52zM85 -13v126h52v-126h-52z" />
    <glyph glyph-name="semicolon" unicode=";" horiz-adv-x="222" 
d="M80 383v125h57v-125h-57zM67 -149v61q17 10 22 29.5t5 43.5v2h-14v126h57v-113q0 -47 -14 -86.5t-56 -62.5z" />
    <glyph glyph-name="less" unicode="&#x3c;" horiz-adv-x="420" 
d="M27 148v60l366 183v-70l-286 -144l286 -144v-69z" />
    <glyph glyph-name="equal" unicode="=" horiz-adv-x="600" 
d="M47 318v65h506v-65h-506zM47 124v65h506v-65h-506z" />
    <glyph glyph-name="greater" unicode="&#x3e;" horiz-adv-x="420" 
d="M27 -36v69l286 144l-286 144v70l366 -185v-60z" />
    <glyph glyph-name="question" unicode="?" horiz-adv-x="441" 
d="M308 239q-21 -15 -33.5 -24t-19 -17.5t-8.5 -17.5t-2 -22v-41h-64l-1 32q-2 29 3 48.5t17 35.5q5 8 12.5 14t15.5 13q16 13 39 30q21 16 34.5 27.5t20.5 21t9.5 19.5t2.5 24q0 45 -33 67t-81 22q-62 0 -93.5 -29.5t-31.5 -107.5h-65q0 55 14 93.5t39 62.5t59 35t74 11
q37 0 70.5 -8.5t58.5 -27t39.5 -47.5t14.5 -69q0 -26 -5.5 -45.5t-17 -36t-28.5 -32t-40 -31.5zM178 -14v108h68v-108h-68z" />
    <glyph glyph-name="at" unicode="@" horiz-adv-x="800" 
d="M537 529l15 44h70l-103 -326q-2 -7 -4 -13.5t-4 -11.5q-3 -12 -3 -20t4.5 -12.5t21.5 -4.5q28 0 59 16.5t57 47t43 73.5t17 96q0 56 -21.5 103.5t-59.5 82.5t-91.5 54.5t-116.5 19.5q-76 0 -137 -25.5t-104 -69t-66.5 -102t-23.5 -124.5q0 -65 24.5 -123.5t66.5 -102
t98 -69t119 -25.5q33 0 66.5 4t65 13.5t60 26t51.5 41.5h74q-34 -46 -71 -75t-77 -46t-82 -23.5t-85 -6.5q-77 0 -145 30t-118.5 82.5t-80 122.5t-29.5 151q0 79 28.5 149.5t80 123t123 83t158.5 30.5q79 0 145 -24.5t112.5 -67t72.5 -100t26 -123.5q0 -71 -24 -127.5
t-60.5 -97t-79.5 -62t-81 -21.5q-29 0 -50 14t-29 43q-26 -29 -59 -43t-65 -14q-29 0 -54 11.5t-43.5 32.5t-29 51t-10.5 67q0 54 17.5 109.5t49 100.5t75.5 73t98 28q33 0 63.5 -17t45.5 -47zM424 534q-37 0 -68.5 -24.5t-55 -61.5t-36.5 -80.5t-13 -80.5q0 -51 24.5 -79.5
t62.5 -28.5q30 0 58.5 25.5t51 63.5t36 81.5t13.5 79.5q0 32 -6 52.5t-16 32t-23 16t-28 4.5z" />
    <glyph glyph-name="A" unicode="A" horiz-adv-x="686" 
d="M627 -13l-101 231h-366l-101 -231h-77l328 740h66l328 -740h-77zM343 632l-154 -349h308z" />
    <glyph glyph-name="B" unicode="B" horiz-adv-x="722" 
d="M553 376q39 -11 63 -32.5t37.5 -47t18.5 -52.5t5 -48q0 -30 -10 -66.5t-37 -68t-74 -53t-121 -21.5h-375v740h382q103 0 157.5 -48.5t54.5 -140.5q0 -49 -22 -93t-79 -69zM529 646q-26 12 -56 14t-58 2h-287v-259h294q12 0 39.5 2t55 14t48.5 39t21 77t-16.5 75t-40.5 36
zM414 338h-286v-285h298q12 0 42 2t61.5 15.5t55.5 43.5t24 86q0 51 -19.5 78.5t-48.5 41t-63 16t-64 2.5z" />
    <glyph glyph-name="C" unicode="C" horiz-adv-x="796" 
d="M409 -29q-81 0 -150.5 26t-120.5 75.5t-80 121t-29 163.5q0 67 22.5 135.5t69 124t118.5 91t170 35.5q64 0 119.5 -16t100 -48.5t76.5 -82.5t47 -118h-70q-13 52 -39.5 90t-62.5 62.5t-79.5 36t-91.5 11.5q-72 0 -129.5 -25.5t-98 -69.5t-62 -102.5t-21.5 -123.5t20 -123
t59 -102t97 -69.5t135 -25.5q111 0 187.5 63.5t96.5 183.5h69q-7 -59 -33 -115t-70.5 -100t-107.5 -71t-142 -27z" />
    <glyph glyph-name="D" unicode="D" horiz-adv-x="759" 
d="M386 -13h-326v740h334q63 0 121 -18t102 -60.5t70.5 -114t26.5 -177.5q0 -80 -20 -148t-60.5 -117.5t-102.5 -77t-145 -27.5zM384 662h-256v-609h267q54 0 100 17.5t79.5 54.5t52.5 94.5t19 137.5q0 82 -19 140t-53.5 94.5t-83 53.5t-106.5 17z" />
    <glyph glyph-name="E" unicode="E" horiz-adv-x="648" 
d="M60 -13v740h564v-65h-496v-259h476v-65h-476v-285h502v-66h-570z" />
    <glyph glyph-name="F" unicode="F" horiz-adv-x="593" 
d="M128 662v-259h425v-65h-425v-351h-68v740h518v-65h-450z" />
    <glyph glyph-name="G" unicode="G" horiz-adv-x="833" 
d="M710 127q-46 -78 -123 -117t-168 -39q-81 0 -150.5 26t-120.5 75.5t-80 121t-29 163.5q0 67 22.5 135.5t69 124t118.5 91t170 35.5q65 0 121.5 -16.5t100.5 -50t75 -83t45 -115.5h-69q-11 50 -36 87.5t-61 62.5t-81 37.5t-95 12.5q-72 0 -129.5 -25.5t-98 -69.5
t-62 -102.5t-21.5 -123.5t20 -123t59 -102t97 -69.5t135 -25.5q61 0 111 18t87 52.5t59 84t27 112.5h-276v65h346v-382h-63v140z" />
    <glyph glyph-name="H" unicode="H" horiz-adv-x="759" 
d="M631 -13v357h-503v-357h-68v740h68v-318h503v318h68v-740h-68z" />
    <glyph glyph-name="I" unicode="I" horiz-adv-x="187" 
d="M59 -13v740h66v-740h-66z" />
    <glyph glyph-name="J" unicode="J" horiz-adv-x="537" 
d="M253 -29q-43 0 -84 11.5t-73.5 39t-52 73.5t-19.5 116v30h67v-30q0 -24 4.5 -54t21 -56.5t48.5 -45t88 -18.5q83 0 120 42.5t37 131.5v516h67v-512q0 -123 -60 -183.5t-164 -60.5z" />
    <glyph glyph-name="K" unicode="K" horiz-adv-x="704" 
d="M640 -13l-350 386l-162 -133v-253h-68v740h68v-397l479 397h109l-373 -309l392 -431h-95z" />
    <glyph glyph-name="L" unicode="L" horiz-adv-x="574" 
d="M60 -13v740h68v-674h446v-66h-514z" />
    <glyph glyph-name="M" unicode="M" horiz-adv-x="962" 
d="M134 604v-617h-69v740h86l330 -642l330 642h86v-740h-69v617l-317 -617h-60z" />
    <glyph glyph-name="N" unicode="N" horiz-adv-x="759" 
d="M631 97v630h68v-740h-74l-497 630v-630h-68v740h74z" />
    <glyph glyph-name="O" unicode="O" horiz-adv-x="816" 
d="M408 -29q-72 0 -128.5 18.5t-98.5 49.5t-71 71t-47 83t-26 85.5t-8 78.5t8 78.5t26 85.5t47 83t71 71t98.5 49.5t128.5 18.5t128.5 -18.5t98.5 -49.5t71 -71t47 -83t26 -85.5t8 -78.5t-8 -78.5t-26 -85.5t-47 -83t-71 -71t-98.5 -49.5t-128.5 -18.5zM408 678
q-75 0 -133 -27t-97 -71.5t-59.5 -102.5t-20.5 -120t20.5 -119.5t59.5 -102t97 -71.5t133 -27t133 27t97 71.5t59.5 102t20.5 119.5t-20.5 120t-59.5 102.5t-97 71.5t-133 27z" />
    <glyph glyph-name="P" unicode="P" horiz-adv-x="667" 
d="M422 302h-294v-315h-68v740h369q37 0 76 -8.5t71 -32t52.5 -64.5t20.5 -106q0 -48 -13.5 -87t-41.5 -67.5t-71 -44t-101 -15.5zM411 662h-283v-295h293q31 0 59.5 7t51 23.5t36 45t13.5 71.5q0 55 -18 85t-44.5 44t-56 16.5t-51.5 2.5z" />
    <glyph glyph-name="Q" unicode="Q" horiz-adv-x="816" 
d="M669 69l112 -82l-37 -56l-129 95q-42 -26 -91.5 -40.5t-115.5 -14.5q-72 0 -128.5 18.5t-98.5 49.5t-71 71t-47 83t-26 85.5t-8 78.5t8 78.5t26 85.5t47 83t71 71t98.5 49.5t128.5 18.5t128.5 -18.5t98.5 -49.5t71 -71t47 -83t26 -85.5t8 -78.5q0 -32 -6.5 -69.5
t-20.5 -76t-36.5 -75t-54.5 -67.5zM408 678q-75 0 -133 -27t-97 -71.5t-59.5 -102.5t-20.5 -120t20.5 -119.5t59.5 -102t97 -71.5t133 -27q43 0 79.5 8.5t67.5 24.5l-105 76l37 56l125 -93q53 49 79.5 113t26.5 135q0 62 -20.5 120t-59.5 102.5t-97 71.5t-133 27z" />
    <glyph glyph-name="R" unicode="R" horiz-adv-x="704" 
d="M555 349q49 -17 73.5 -57.5t26.5 -93.5q1 -50 2.5 -83t4.5 -56.5t7.5 -39.5t11.5 -32h-68q-16 15 -20 57.5t-6 121.5q-1 43 -8.5 71.5t-26 45.5t-50 23.5t-80.5 6.5h-294v-326h-68v740h363q50 0 94 -9t77 -32t52.5 -62t19.5 -99q0 -53 -27 -101.5t-84 -74.5zM427 662
h-299v-284h287q15 0 45.5 2t61 16t53.5 44.5t23 87.5q0 39 -13 65t-36.5 41t-54.5 21.5t-67 6.5z" />
    <glyph glyph-name="S" unicode="S" horiz-adv-x="667" 
d="M351 -29q-86 0 -147.5 19t-100.5 55t-57 87.5t-18 116.5h68q0 -51 14 -90.5t44 -66.5t77.5 -41t115.5 -14q62 0 104 12.5t67.5 33t36 46.5t10.5 54q0 27 -6.5 47t-25.5 35.5t-52 28t-87 24.5l-128 28q-57 12 -98 28.5t-67.5 40t-39 55.5t-12.5 75q0 44 18.5 80.5t53 62.5
t85 40.5t115.5 14.5q66 0 120 -13.5t93 -42.5t61.5 -75t24.5 -112h-68q-2 33 -12 64.5t-34.5 57t-66 41t-106.5 15.5q-62 0 -102.5 -11t-64.5 -29t-33.5 -42.5t-9.5 -51.5q0 -25 6 -44.5t22.5 -35t46.5 -27.5t78 -22l141 -29q52 -11 93 -26t69.5 -38t44 -56.5t15.5 -79.5
q0 -39 -14 -77.5t-47.5 -69t-89 -49.5t-137.5 -19z" />
    <glyph glyph-name="T" unicode="T" horiz-adv-x="592" 
d="M330 662v-675h-68v675h-277v65h622v-65h-277z" />
    <glyph glyph-name="U" unicode="U" horiz-adv-x="740" 
d="M370 -29q-157 0 -236.5 73t-79.5 220v463h68v-461q0 -54 13 -97t42.5 -72t76.5 -44.5t116 -15.5t116 15.5t76.5 44.5t42.5 72t13 97v461h68v-463q0 -147 -79.5 -220t-236.5 -73z" />
    <glyph glyph-name="V" unicode="V" horiz-adv-x="668" 
d="M367 -13h-66l-316 740h76l273 -638l273 638h76z" />
    <glyph glyph-name="W" unicode="W" horiz-adv-x="1018" 
d="M762 100l199 627h77l-238 -740h-74l-217 628l-217 -628h-74l-238 740h77l199 -627l216 627h74z" />
    <glyph glyph-name="X" unicode="X" horiz-adv-x="648" 
d="M580 -13l-256 321l-259 -321h-88l302 376l-291 364h91l245 -308l250 308h87l-291 -364l301 -376h-91z" />
    <glyph glyph-name="Y" unicode="Y" horiz-adv-x="668" 
d="M368 296v-309h-68v309l-333 431h93l274 -364l280 364h87z" />
    <glyph glyph-name="Z" unicode="Z" horiz-adv-x="611" 
d="M-5 -13v67l524 608h-492v65h581v-64l-524 -610h532v-66h-621z" />
    <glyph glyph-name="bracketleft" unicode="[" horiz-adv-x="207" 
d="M61 -146v671h128v-65h-70v-541h70v-65h-128z" />
    <glyph glyph-name="backslash" unicode="\" horiz-adv-x="285" 
d="M239 -25l-266 560h68l266 -560h-68z" />
    <glyph glyph-name="bracketright" unicode="]" horiz-adv-x="207" 
d="M17 -146v65h70v541h-70v65h128v-671h-128z" />
    <glyph glyph-name="asciicircum" unicode="^" horiz-adv-x="420" 
d="M345 158l-135 271l-135 -271h-66l174 354h56l172 -354h-66z" />
    <glyph glyph-name="underscore" unicode="_" horiz-adv-x="500" 
d="M0 -138v75h500v-75h-500z" />
    <glyph glyph-name="grave" unicode="`" 
d="M97 581l-92 86h83l76 -86h-67z" />
    <glyph glyph-name="a" unicode="a" horiz-adv-x="593" 
d="M464 64q-24 -31 -54 -49.5t-60.5 -28t-59.5 -12.5t-51 -3q-11 0 -31.5 1t-44 6t-48 15.5t-44.5 29t-32.5 47.5t-12.5 70q0 43 16.5 72.5t44 48t62.5 27t73 11.5l172 12q18 1 30 4t19.5 9t10.5 17.5t3 30.5q0 22 -6.5 41t-25 33t-52 22t-86.5 8q-47 0 -78 -7.5t-50.5 -24
t-29.5 -41.5t-14 -61h-69q7 57 24.5 95t47 61t71.5 33t99 10q53 0 97 -7.5t75 -26.5t48 -50t17 -79v-287v-13.5t1 -11.5q0 -8 2 -16q2 -3 4.5 -5t13.5 -2q8 0 20 2t35 10v-66q-19 -6 -34 -9t-32 -3q-42 0 -55.5 23t-15.5 64zM457 263q-26 -13 -67 -16l-166 -12
q-62 -5 -96 -26t-34 -69q0 -34 14.5 -54t36.5 -31t48 -14.5t49 -3.5q37 0 75 8.5t69 27.5t51 48t20 71v71z" />
    <glyph glyph-name="b" unicode="b" horiz-adv-x="593" 
d="M386 -13h-329v538h334q75 0 115.5 -36t40.5 -106q0 -32 -12 -62t-43 -50q27 -13 41.5 -31.5t21.5 -37.5q5 -12 6.5 -22.5t1.5 -18.5v-12v-5q0 -23 -7.5 -50.5t-27 -51t-54 -39.5t-88.5 -16zM372 461h-249v-162h253q8 0 25.5 1t35 8.5t31 24.5t13.5 49q0 42 -32 60.5
t-77 18.5zM371 233h-248v-180h257q4 0 11.5 -0.5t16.5 1.5q22 2 40 10q20 9 34.5 27.5t14.5 54.5q0 33 -13 51t-32 26t-41 9t-40 1z" />
    <glyph glyph-name="c" unicode="c" horiz-adv-x="611" 
d="M315 -29q-63 0 -116 20.5t-91.5 57t-60 88t-21.5 114.5q0 70 23 124.5t63 91t92 55.5t111 19q57 0 104.5 -16t82 -44t55 -64.5t22.5 -77.5h-68q-2 25 -17 49.5t-40.5 44t-60.5 31.5t-78 12q-56 0 -97.5 -19t-69 -50t-41 -72t-13.5 -84q0 -30 11 -67t36.5 -69.5t68 -55
t105.5 -22.5q36 0 69 9t60 28t46.5 48t28.5 70h69q-12 -59 -38 -101t-62.5 -68.5t-81 -39t-91.5 -12.5z" />
    <glyph glyph-name="d" unicode="d" horiz-adv-x="587" 
d="M320 -12h-263v538h269q45 0 87 -13.5t74 -44.5t51 -83t19 -128q0 -58 -14.5 -107t-43.5 -85t-74 -56.5t-105 -20.5zM319 461h-196v-407h203q36 0 66 11.5t51.5 36t34 63t12.5 92.5q0 55 -12.5 94t-35 63.5t-54 35.5t-69.5 11z" />
    <glyph glyph-name="e" unicode="e" horiz-adv-x="611" 
d="M95 234q3 -43 18.5 -79t43.5 -62.5t68 -41t91 -14.5q56 0 90.5 15.5t56.5 36.5q11 11 18.5 22.5t13.5 22.5q7 12 11.5 23.5t10.5 25.5h68q-36 -114 -104 -163t-170 -49q-65 0 -118 20t-90 57.5t-57 91t-20 120.5q0 42 14 91t47 91.5t88 70.5t137 28q67 0 119 -22.5
t88 -63t55 -97t20 -124.5h-499zM307 476q-88 0 -141 -47.5t-70 -129.5h422q-8 46 -27.5 79t-47.5 55t-62.5 32.5t-73.5 10.5z" />
    <glyph glyph-name="f" unicode="f" horiz-adv-x="464" 
d="M120 459v-162h292v-65h-292v-246h-65v538h374v-65h-309z" />
    <glyph glyph-name="g" unicode="g" horiz-adv-x="617" 
d="M520 76q-26 -31 -51.5 -51.5t-51.5 -32.5t-52 -17t-51 -5q-59 0 -111 19t-91 56t-62 89.5t-23 120.5q0 49 18 100t54 92t90 67.5t126 26.5q47 0 89.5 -12.5t77 -38.5t59.5 -65t36 -93h-67q-8 36 -26.5 62.5t-44.5 44.5t-58 26.5t-67 8.5q-48 0 -88.5 -18t-70 -48
t-45.5 -70t-16 -83q0 -44 15 -84t43 -70t69 -47.5t94 -17.5q81 0 135 45.5t65 126.5h-205v65h273v-292h-63v95z" />
    <glyph glyph-name="h" unicode="h" horiz-adv-x="611" 
d="M489 -12v250h-365v-250h-66v538h66v-223h365v223h66v-538h-66z" />
    <glyph glyph-name="i" unicode="i" 
d="M53 -13v538h66v-538h-66z" />
    <glyph glyph-name="j" unicode="j" horiz-adv-x="424" 
d="M216 -29q-31 0 -62 8.5t-56.5 29t-41.5 54.5t-16 86v31h64v-31q0 -15 4 -34.5t16 -37t34 -29t58 -11.5q54 0 81.5 27t27.5 85v371h64v-368q0 -45 -13 -79t-36.5 -56.5t-55 -34t-68.5 -11.5z" />
    <glyph glyph-name="k" unicode="k" horiz-adv-x="556" 
d="M482 -13l-241 286l-117 -91v-195h-68v536h68v-258l331 260h105l-265 -208l279 -330h-92z" />
    <glyph glyph-name="l" unicode="l" horiz-adv-x="448" 
d="M38 -13v538h65v-472h347v-66h-412z" />
    <glyph glyph-name="m" unicode="m" horiz-adv-x="964" 
d="M125 461q33 40 80.5 60t100.5 20q83 0 127.5 -29.5t64.5 -72.5q61 102 191 102q112 0 165.5 -50t53.5 -144v-360h-69v345q0 29 -8 55.5t-25.5 46t-46 31t-69.5 11.5q-88 0 -131 -43t-43 -118v-328h-68v354q0 63 -34 99t-116 36q-78 0 -125.5 -44.5t-47.5 -126.5v-318h-69
v538h69v-64z" />
    <glyph glyph-name="n" unicode="n" horiz-adv-x="611" 
d="M124 449q28 38 75.5 65t119.5 27q59 0 99 -12.5t66.5 -32t40.5 -44.5t21 -50t8 -48t1 -38v-329h-68v327q0 37 -7 67t-26 51t-52 32.5t-84 11.5q-52 0 -88.5 -15t-60 -40t-34.5 -57t-11 -65v-312h-68v538h68v-76z" />
    <glyph glyph-name="o" unicode="o" horiz-adv-x="630" 
d="M315 -29q-68 0 -122 23t-91 62.5t-56.5 91t-19.5 108.5q0 56 19.5 107.5t56.5 91t91 63t122 23.5t122 -23.5t91 -63t56.5 -91t19.5 -107.5q0 -57 -19.5 -108.5t-56.5 -91t-91 -62.5t-122 -23zM315 476q-56 0 -97.5 -19t-69 -50t-41 -70.5t-13.5 -80.5t13.5 -80.5
t41 -70.5t69 -49.5t97.5 -18.5t97.5 18.5t69 49.5t41 70.5t13.5 80.5t-13.5 80.5t-41 70.5t-69 50t-97.5 19z" />
    <glyph glyph-name="p" unicode="p" horiz-adv-x="593" 
d="M387 208h-264v-221h-66v538h335q27 0 55.5 -6.5t52 -23.5t38.5 -48t15 -80q0 -71 -40.5 -115t-125.5 -44zM450 448q-16 8 -34.5 10t-36.5 2h-256v-187h263q20 0 38.5 4.5t32.5 15t22.5 28.5t8.5 45q0 38 -11.5 56t-26.5 26z" />
    <glyph glyph-name="q" unicode="q" horiz-adv-x="630" 
d="M576 -42l-89 64q-35 -24 -78 -37.5t-94 -13.5q-68 0 -122 23t-91 62.5t-56.5 91t-19.5 108.5q0 56 19.5 107.5t56.5 91t91 63t122 23.5t122 -23.5t91 -63t56.5 -91t19.5 -107.5q0 -53 -17 -101t-50 -87l76 -55zM315 476q-56 0 -97.5 -19t-69 -50t-41 -70.5t-13.5 -80.5
t13.5 -80.5t41 -70.5t69 -49.5t96.5 -18.5q35 0 63.5 7t52.5 20l-73 53l38 55l88 -65q26 31 39.5 69t13.5 80q0 41 -13.5 80.5t-41 70.5t-69 50t-97.5 19z" />
    <glyph glyph-name="r" unicode="r" horiz-adv-x="380" 
d="M122 439q29 50 77 71.5t108 21.5q12 0 21 -2t26 -7v-74q-18 7 -29 9.5t-31 2.5q-44 0 -76 -15t-53.5 -40.5t-32 -58.5t-10.5 -70v-290h-66v538h66v-86z" />
    <glyph glyph-name="s" unicode="s" horiz-adv-x="537" 
d="M271 -29q-51 0 -95.5 10t-78 34t-54 62.5t-23.5 95.5h67q2 -23 8 -47t25.5 -43.5t57.5 -32.5t104 -13q48 0 80 7t51 20t27 31.5t8 41.5q0 38 -22.5 56.5t-64.5 24.5l-172 24q-23 3 -49 11t-47.5 24t-36 42t-14.5 64q0 25 9.5 52.5t34.5 51t66.5 39t106.5 15.5
q69 0 114.5 -16t72.5 -42t38.5 -61t13.5 -72h-68q-2 32 -12 56t-30.5 39.5t-52.5 23t-78 7.5q-44 0 -72.5 -8t-45 -21t-23 -29t-6.5 -32q0 -35 22 -52t65 -23l155 -22q35 -5 65 -15t52 -27.5t34.5 -44.5t12.5 -65t-12.5 -65.5t-33.5 -45.5t-47 -29t-53.5 -17t-53 -7.5
t-45.5 -1.5z" />
    <glyph glyph-name="t" unicode="t" horiz-adv-x="487" 
d="M277 460v-473h-66v473h-211v65h487v-65h-210z" />
    <glyph glyph-name="u" unicode="u" horiz-adv-x="611" 
d="M487 63q-28 -38 -76 -65t-119 -27q-59 0 -99 12.5t-66.5 32t-40.5 44.5t-21 50t-8 47.5t-1 38.5v329h68v-327q0 -37 7 -66.5t26 -50.5t52 -32.5t84 -11.5q52 0 88.5 15t60 39.5t34.5 56.5t11 65v312h68v-538h-68v76z" />
    <glyph glyph-name="v" unicode="v" horiz-adv-x="556" 
d="M307 -13h-58l-254 538h76l207 -450l207 450h76z" />
    <glyph glyph-name="w" unicode="w" horiz-adv-x="870" 
d="M669 -13h-67l-167 439l-167 -439h-67l-213 538h77l171 -433l162 433h73l168 -433l166 433h77z" />
    <glyph glyph-name="x" unicode="x" horiz-adv-x="537" 
d="M470 -13l-204 230l-204 -230h-88l248 280l-228 258h94l181 -206l182 206h89l-227 -255l250 -283h-93z" />
    <glyph glyph-name="y" unicode="y" horiz-adv-x="500" 
d="M281 210v-223h-66v223l-240 315h88l185 -249l189 249h84z" />
    <glyph glyph-name="z" unicode="z" horiz-adv-x="519" 
d="M12 -13v64l381 409h-356v65h457v-52l-392 -420h405v-66h-495z" />
    <glyph glyph-name="braceleft" unicode="{" horiz-adv-x="207" 
d="M54 62q0 39 -7.5 66.5t-37.5 29.5l1 63q26 2 35.5 25t8.5 71v106q-1 55 17 78.5t53 23.5h51v-65h-45q-6 0 -9.5 -1t-5 -6t-1.5 -15v-27v-106q0 -47 -9 -74t-23 -41q14 -16 22.5 -43.5t9.5 -73.5v-105q0 -17 0.5 -26.5t2 -14.5t4.5 -6.5t9 -1.5h45v-65h-51
q-35 0 -52.5 23.5t-17.5 78.5v106v0z" />
    <glyph glyph-name="bar" unicode="|" horiz-adv-x="155" 
d="M47 -25v560h50v-560h-50z" />
    <glyph glyph-name="braceright" unicode="}" horiz-adv-x="207" 
d="M131 62v-106q0 -55 -17.5 -78.5t-52.5 -23.5h-52v65h46q6 0 8.5 1.5t4 6.5t2 14.5t0.5 26.5l1 105q0 46 9 73.5t22 43.5q-14 14 -23 41t-9 74v106q0 34 -2 41.5t-13 7.5h-46v65h52q35 0 52.5 -23.5t17.5 -78.5l-1 -106q-1 -48 9 -71t35 -25l1 -63q-15 -1 -24 -9
t-13.5 -20.5t-5.5 -30t-1 -36.5z" />
    <glyph glyph-name="asciitilde" unicode="~" horiz-adv-x="420" 
d="M254 130l4 4q-14 3 -28 10t-29 15q-11 6 -27 12.5t-26 6.5q-20 0 -32.5 -15.5t-26.5 -52.5l-46 53q10 18 20.5 33t22 25.5t25.5 16t33 5.5q22 0 39 -7t41 -19q8 -4 15 -8l14 -8q13 -6 29 -6q11 0 25.5 15t31.5 50l44 -51q-10 -15 -20.5 -29t-25 -25t-35 -18t-48.5 -7z
" />
    <glyph glyph-name="quotesinglbase" unicode="&#x201a;" horiz-adv-x="222" 
d="M67 -149v61q17 10 22 29.5t5 43.5v2h-14v126h57v-113q0 -47 -14 -86.5t-56 -62.5z" />
    <glyph glyph-name="florin" unicode="&#x192;" horiz-adv-x="648" 
d="M556 661q-29 2 -36 3.5t-10 2.5q-2 1 -6.5 1h-22.5q-53 0 -73.5 -26t-30.5 -81l-25 -124h135l-10 -59h-136l-78 -389q-8 -40 -17.5 -75t-28.5 -61t-51.5 -41t-86.5 -15q-17 0 -36.5 1.5t-45.5 4.5l11 65q28 -5 45.5 -5.5t25.5 -0.5q30 0 48.5 7.5t30 19.5t17 28t9.5 34
l88 427h-133l13 59h132l29 143q16 79 55 116t120 37q16 0 34 -2t46 -7z" />
    <glyph glyph-name="quotedblbase" unicode="&#x201e;" horiz-adv-x="352" 
d="M193 -149v61q20 10 26 29.5t6 43.5v2h-16v126h69v-113q0 -47 -17 -86.5t-68 -62.5zM56 -149v61q20 10 26 29.5t6 43.5v2h-16v126h69v-113q0 -47 -17 -86.5t-68 -62.5z" />
    <glyph glyph-name="ellipsis" unicode="&#x2026;" horiz-adv-x="1000" 
d="M785 -13v126h74v-126h-74zM463 -13v126h74v-126h-74zM141 -13v126h74v-126h-74z" />
    <glyph glyph-name="dagger" unicode="&#x2020;" horiz-adv-x="648" 
d="M358 418v-587h-68v587h-240v65h240v244h68v-244h240v-65h-240z" />
    <glyph glyph-name="daggerdbl" unicode="&#x2021;" horiz-adv-x="648" 
d="M358 34v-203h-68v203h-240v65h240v361h-240v65h240v202h68v-202h240v-65h-240v-361h240v-65h-240z" />
    <glyph glyph-name="circumflex" unicode="&#x2c6;" 
d="M200 581l-117 109l-117 -109h-84l170 167h62l170 -167h-84z" />
    <glyph glyph-name="perthousand" unicode="&#x2030;" horiz-adv-x="1167" 
d="M979 -29q-47 0 -81 15.5t-56.5 42.5t-33.5 65t-11 83q0 43 11.5 80.5t34 64.5t57 42.5t79.5 15.5q47 0 81.5 -15t57 -41.5t33.5 -64t11 -82.5q0 -42 -11 -79.5t-33.5 -65.5t-57 -44.5t-81.5 -16.5zM589 -29q-47 0 -81 15.5t-57 42.5t-34 65t-11 83q0 43 11.5 80.5
t34.5 64.5t57 42.5t80 15.5q47 0 81 -15t56.5 -41.5t33.5 -64t11 -82.5q0 -42 -11 -79.5t-33.5 -65.5t-57 -44.5t-80.5 -16.5zM147 -35h-69l535 774h69zM188 325q-47 0 -81.5 15t-57 42.5t-33.5 65t-11 82.5q0 43 11.5 80.5t34.5 64.5t57 42.5t80 15.5t80.5 -15t57 -41.5
t33.5 -64t11 -82.5q0 -42 -11 -79.5t-33.5 -65.5t-57 -44t-80.5 -16zM979 321q-62 0 -90 -40.5t-28 -103.5q0 -64 27.5 -105t90.5 -41q32 0 54.5 11t37 30.5t21 46t6.5 58.5q0 63 -27.5 103.5t-91.5 40.5zM589 321q-63 0 -91 -40.5t-28 -103.5q0 -64 28 -105t91 -41t91 41
t28 105q0 63 -28 103.5t-91 40.5zM188 674q-63 0 -91 -40.5t-28 -103.5q0 -32 6.5 -58.5t21 -46t37 -30.5t54.5 -11q63 0 90.5 41t27.5 105q0 63 -27.5 103.5t-90.5 40.5z" />
    <glyph glyph-name="Scaron" unicode="&#x160;" horiz-adv-x="667" 
d="M351 -29q-86 0 -147.5 19t-100.5 55t-57 87.5t-18 116.5h68q0 -51 14 -90.5t44 -66.5t77.5 -41t115.5 -14q62 0 104 12.5t67.5 33t36 46.5t10.5 54q0 27 -6.5 47t-25.5 35.5t-52 28t-87 24.5l-128 28q-57 12 -98 28.5t-67.5 40t-39 55.5t-12.5 75q0 44 18.5 80.5t53 62.5
t85 40.5t115.5 14.5q66 0 120 -13.5t93 -42.5t61.5 -75t24.5 -112h-68q-2 33 -12 64.5t-34.5 57t-66 41t-106.5 15.5q-62 0 -102.5 -11t-64.5 -29t-33.5 -42.5t-9.5 -51.5q0 -25 6 -44.5t22.5 -35t46.5 -27.5t78 -22l141 -29q52 -11 93 -26t69.5 -38t44 -56.5t15.5 -79.5
q0 -39 -14 -77.5t-47.5 -69t-89 -49.5t-137.5 -19zM365 743h-62l-170 167h84l117 -110l117 110h84z" />
    <glyph glyph-name="guilsinglleft" unicode="&#x2039;" horiz-adv-x="296" 
d="M73 242v56l136 160v-89l-82 -99l82 -99v-89z" />
    <glyph glyph-name="OE" unicode="&#x152;" horiz-adv-x="1167" 
d="M619 -13v60q-47 -42 -103 -59t-116 -17q-83 0 -150.5 26.5t-115.5 76.5t-74 122t-26 163q0 90 28 161t77.5 120.5t116.5 76t144 26.5q60 0 115.5 -15t103.5 -54v53h524v-65h-455v-259h435v-65h-435v-285h461v-66h-530zM619 578q0 11 -14.5 28t-42 33t-67.5 27.5t-91 11.5
q-73 0 -129 -24t-94.5 -67t-58 -101t-19.5 -127q0 -62 16 -120t51.5 -103t93 -72t140.5 -27q54 0 94.5 13t67 30t40 34.5t13.5 25.5v438z" />
    <glyph glyph-name="quoteleft" unicode="&#x2018;" horiz-adv-x="222" 
d="M128 599v-2h14v-125h-57v112q0 47 14 86.5t56 62.5v-61q-17 -10 -22 -29.5t-5 -43.5z" />
    <glyph glyph-name="quoteright" unicode="&#x2019;" horiz-adv-x="222" 
d="M67 465v61q17 10 22 29.5t5 43.5v3h-14v125h57v-113q0 -47 -14 -86.5t-56 -62.5z" />
    <glyph glyph-name="quotedblleft" unicode="&#x201c;" horiz-adv-x="352" 
d="M264 599v-2h16v-125h-69v112q0 47 17 86.5t68 62.5v-61q-20 -10 -26 -29.5t-6 -43.5zM127 599v-2h16v-125h-69v112q0 47 17 86.5t68 62.5v-61q-20 -10 -26 -29.5t-6 -43.5z" />
    <glyph glyph-name="quotedblright" unicode="&#x201d;" horiz-adv-x="352" 
d="M193 465v61q20 10 26 29.5t6 43.5v3h-16v125h69v-113q0 -47 -17 -86.5t-68 -62.5zM56 465v61q20 10 26 29.5t6 43.5v3h-16v125h69v-113q0 -47 -17 -86.5t-68 -62.5z" />
    <glyph glyph-name="bullet" unicode="&#x2022;" horiz-adv-x="500" 
d="M72 357q0 37 14 69.5t38 56.5t56.5 38t69.5 14t69.5 -14t56.5 -38t38 -56.5t14 -69.5t-14 -69.5t-38 -56.5t-56.5 -38t-69.5 -14t-69.5 14t-56.5 38t-38 56.5t-14 69.5z" />
    <glyph glyph-name="endash" unicode="&#x2013;" horiz-adv-x="500" 
d="M0 241v59h500v-59h-500z" />
    <glyph glyph-name="emdash" unicode="&#x2014;" horiz-adv-x="1000" 
d="M0 241v59h1000v-59h-1000z" />
    <glyph glyph-name="tilde" unicode="&#x2dc;" 
d="M229 635q-12 -14 -28 -22.5t-36 -8.5q-26 0 -48 8.5t-42 19.5t-36 18.5t-33 7.5t-29 -14t-14 -40h-55q2 23 10 43.5t21 36t30.5 24.5t38.5 9q25 0 46 -9t41 -20t35 -18t32 -7q23 0 30.5 17t12.5 37h54q-4 -31 -11 -49.5t-19 -32.5z" />
    <glyph glyph-name="trademark" unicode="&#x2122;" horiz-adv-x="990" 
d="M488 625v-335h-58v437h77l141 -328l142 328h76v-437h-57v335l-144 -335h-34zM240 668v-378h-57v378h-139v59h335v-59h-139z" />
    <glyph glyph-name="scaron" unicode="&#x161;" horiz-adv-x="537" 
d="M271 -29q-51 0 -95.5 10t-78 34t-54 62.5t-23.5 95.5h67q2 -23 8 -47t25.5 -43.5t57.5 -32.5t104 -13q48 0 80 7t51 20t27 31.5t8 41.5q0 38 -22.5 56.5t-64.5 24.5l-172 24q-23 3 -49 11t-47.5 24t-36 42t-14.5 64q0 25 9.5 52.5t34.5 51t66.5 39t106.5 15.5
q69 0 114.5 -16t72.5 -42t38.5 -61t13.5 -72h-68q-2 32 -12 56t-30.5 39.5t-52.5 23t-78 7.5q-44 0 -72.5 -8t-45 -21t-23 -29t-6.5 -32q0 -35 22 -52t65 -23l155 -22q35 -5 65 -15t52 -27.5t34.5 -44.5t12.5 -65t-12.5 -65.5t-33.5 -45.5t-47 -29t-53.5 -17t-53 -7.5
t-45.5 -1.5zM300 581h-62l-170 167h84l117 -110l117 110h84z" />
    <glyph glyph-name="guilsinglright" unicode="&#x203a;" horiz-adv-x="296" 
d="M87 82v89l82 99l-82 99v89l136 -160v-56z" />
    <glyph glyph-name="oe" unicode="&#x153;" horiz-adv-x="1074" 
d="M543 398q38 75 99.5 109t133.5 34q67 0 117.5 -22t84 -62.5t51 -97t19.5 -125.5h-475q3 -93 56 -145t147 -52q78 0 129 33t71 108h69q-11 -52 -35.5 -90.5t-60 -64.5t-80 -39t-93.5 -13q-37 0 -73.5 8t-68.5 25t-57 43t-40 62q-34 -71 -93.5 -104.5t-144.5 -33.5
q-62 0 -112.5 20.5t-86 58t-55 90t-19.5 116.5q0 63 20.5 115t57 90t87.5 59t112 21q82 0 144.5 -35t95.5 -108zM776 476q-43 0 -79 -15t-62.5 -39.5t-42.5 -56.5t-19 -66h404q-14 88 -62.5 132.5t-138.5 44.5zM303 476q-98 0 -153 -59.5t-55 -160.5q0 -50 14 -90t40.5 -69
t65 -44.5t88.5 -15.5q97 0 151.5 58.5t54.5 160.5q0 101 -53 160.5t-153 59.5z" />
    <glyph glyph-name="Ydieresis" unicode="&#x178;" horiz-adv-x="668" 
d="M368 296v-309h-68v309l-333 431h93l274 -364l280 364h87zM398 748v131h65v-131h-65zM205 748v131h65v-131h-65z" />
    <glyph glyph-name="nonbreakingspace" unicode="&#xa0;" horiz-adv-x="222" 
 />
    <glyph glyph-name="exclamdown" unicode="&#xa1;" horiz-adv-x="181" 
d="M69 280v107h48v-107h-48zM69 -151v153q0 60 1.5 121.5t2.5 134.5h39q2 -73 3.5 -134.5t1.5 -121.5v-153h-48z" />
    <glyph glyph-name="cent" unicode="&#xa2;" horiz-adv-x="648" 
d="M355 -28v-110h-56v111q-56 5 -102.5 27t-80 58.5t-52.5 85.5t-19 107q0 65 20 116.5t54.5 88t80.5 57.5t99 26v94h56v-93q53 -3 97 -20.5t75.5 -44.5t50 -62t20.5 -74h-68q-2 22 -15 45t-36 42.5t-54.5 32.5t-69.5 16v-438q69 3 117.5 40.5t64.5 114.5h69
q-11 -56 -35 -96.5t-57 -67.5t-73.5 -41t-85.5 -15zM299 473q-47 -6 -82 -26.5t-58 -50.5t-34.5 -67.5t-11.5 -77.5q0 -28 9.5 -62t31 -65.5t57 -55t88.5 -29.5v434z" />
    <glyph glyph-name="sterling" unicode="&#xa3;" horiz-adv-x="648" 
d="M159 70q25 8 43 9.5t32 1.5q26 0 52 -7.5t52 -15.5q13 -4 25 -8t24 -7q22 -6 41 -6q46 0 83.5 26.5t66.5 64.5l33 -63q-50 -53 -96.5 -73.5t-86.5 -20.5q-30 0 -57 7.5t-53 15.5q-23 8 -47 15t-49 7q-22 0 -37.5 -2t-31 -7t-34 -14.5t-46.5 -24.5l-37 57q31 29 55 54
t40 50t24.5 50t8.5 54q0 20 -6 41.5t-13 35.5h-91v59h64q-48 90 -48 160q0 14 3.5 35t13 43.5t27 45t46 40.5t69 29t97.5 11q82 0 134 -22t82 -58.5t41 -85t11 -101.5h-68q0 60 -14.5 99t-40.5 62t-63.5 32t-82.5 9q-35 0 -68.5 -7t-59.5 -23.5t-42.5 -43t-16.5 -65.5
q0 -18 5.5 -38t13.5 -42q8 -20 18 -40.5t20 -39.5h222v-59h-198q6 -18 9.5 -34.5t3.5 -35.5q0 -49 -21 -92t-52 -78z" />
    <glyph glyph-name="currency" unicode="&#xa4;" horiz-adv-x="648" 
d="M518 193l53 -55l-42 -46l-53 56q-34 -29 -73 -42.5t-79 -13.5q-87 0 -153 56l-52 -55l-45 43l57 56q-26 35 -40 76.5t-15 83.5t13 83.5t41 76.5l-56 57l45 43l53 -55q67 55 152 55q40 1 79 -13t73 -43l53 57l42 -46l-53 -55q27 -35 40.5 -76.5t13.5 -83.5t-13.5 -83
t-40.5 -76zM324 542q-38 0 -70.5 -15t-57 -40.5t-38.5 -60.5t-14 -74t14 -73.5t38.5 -60t57 -40.5t70.5 -15q37 0 70 15t57.5 40.5t38.5 60t14 73.5t-14 74t-38.5 60.5t-57.5 40.5t-70 15z" />
    <glyph glyph-name="yen" unicode="&#xa5;" horiz-adv-x="648" 
d="M324 364l260 353h86l-263 -354h155v-59h-198l-6 -8v-79h204v-59h-204v-171h-68v171h-204v59h204v79l-6 8h-198v59h155l-263 354h92z" />
    <glyph glyph-name="brokenbar" unicode="&#xa6;" horiz-adv-x="222" 
d="M91 448v295h40v-295h-40zM91 -29v296h40v-296h-40z" />
    <glyph glyph-name="section" unicode="&#xa7;" horiz-adv-x="648" 
d="M492 93q17 -14 32 -39.5t15 -67.5q0 -52 -21 -83.5t-53 -49t-71 -23t-76 -5.5q-31 0 -69 6.5t-71.5 29t-56.5 64.5t-23 114h68q0 -81 37 -115t117 -34q10 0 35 1t51 9t45.5 26t19.5 53q0 34 -15.5 52.5t-41.5 32.5q-9 5 -19 10t-21 10l-195 95q-39 19 -65 37.5t-41.5 38
t-22 41t-6.5 45.5q0 33 11.5 58t28.5 42t36 28t35 17q-19 15 -34 39t-15 65q0 37 15.5 65.5t42.5 48t63.5 29.5t78.5 10q51 0 92.5 -10t71.5 -34t46.5 -63.5t16.5 -98.5h-68q0 18 -2.5 42t-16.5 46t-44.5 37.5t-85.5 15.5q-15 0 -39.5 -1t-47 -9.5t-39 -27t-16.5 -53.5
q0 -18 12 -36.5t51 -38.5l255 -123q48 -23 80 -57.5t32 -86.5q0 -37 -11.5 -63t-28.5 -44t-36.5 -28.5t-35.5 -16.5zM450 332l-239 115q-9 -1 -25.5 -7.5t-33 -19t-28.5 -31t-12 -42.5q0 -21 6.5 -36t19.5 -27t31 -22t41 -21l223 -107q6 1 23 5t34.5 14.5t31.5 29.5t14 49
q0 21 -7.5 36.5t-20 27t-28 20t-30.5 16.5z" />
    <glyph glyph-name="dieresis" unicode="&#xa8;" 
d="M147 586v131h65v-131h-65zM-46 586v131h65v-131h-65z" />
    <glyph glyph-name="copyright" unicode="&#xa9;" horiz-adv-x="800" 
d="M400 -29q-77 0 -145 30.5t-118.5 83t-80 122.5t-29.5 150q0 79 29.5 149.5t80 123t118.5 83t145 30.5t145 -30.5t118.5 -83t80 -123t29.5 -149.5q0 -80 -29.5 -150t-80 -122.5t-118.5 -83t-145 -30.5zM400 678q-64 0 -120.5 -25.5t-98.5 -69t-66.5 -102t-24.5 -124.5
t24.5 -124.5t66.5 -102t98.5 -68.5t120.5 -25t120.5 25t98.5 68.5t66.5 102t24.5 124.5t-24.5 124.5t-66.5 102t-98.5 69t-120.5 25.5zM412 108q-53 0 -95.5 19t-72.5 52.5t-46.5 79.5t-16.5 99q0 54 16 99.5t45.5 78.5t72.5 51.5t97 18.5q37 0 70 -11.5t59 -34t44 -56
t25 -78.5h-63q-11 60 -46 90.5t-89 30.5q-40 0 -71 -14t-52.5 -39t-33 -60t-11.5 -76q0 -40 12 -74.5t33.5 -60.5t52.5 -41t70 -15q54 0 88.5 31.5t46.5 95.5h62q-6 -44 -23.5 -78.5t-44 -58.5t-60 -36.5t-69.5 -12.5z" />
    <glyph glyph-name="ordfeminine" unicode="&#xaa;" horiz-adv-x="385" 
d="M289 430q-15 -18 -32.5 -28t-35 -15.5t-34.5 -7t-30 -1.5q-42 0 -69 9.5t-43 25.5t-22 35t-6 39q0 51 34.5 74.5t91.5 27.5l105 8q17 2 28.5 5.5t11.5 18.5q0 9 -1.5 19.5t-10.5 19.5t-28.5 14.5t-55.5 5.5q-54 0 -80 -17t-26 -60h-55q0 38 13.5 63t35 40t48.5 21t54 6
t56 -3t52 -13.5t38 -30t15 -53.5v-164v-12t2 -12q1 -2 7 -2t14 1t25 7v-55l-20 -5t-7 -1q-2 -1 -6.5 -0.5t-15.5 0.5q-28 0 -39 10.5t-14 29.5zM288 553q-15 -7 -40 -8l-106 -8q-41 -4 -55.5 -18t-14.5 -34q0 -9 3 -18.5t12 -17.5t26 -13t46 -5q21 0 44 5.5t42 16.5t31 28
t12 40v32z" />
    <glyph glyph-name="guillemotleft" unicode="&#xab;" horiz-adv-x="444" 
d="M209 242v56l148 160v-89l-89 -99l89 -99v-89zM73 242v56l148 160v-89l-89 -99l89 -99v-89z" />
    <glyph glyph-name="logicalnot" unicode="&#xac;" horiz-adv-x="600" 
d="M491 96v222h-444v65h506v-287h-62z" />
    <glyph glyph-name="registered" unicode="&#xae;" horiz-adv-x="800" 
d="M400 -29q-77 0 -145 30.5t-118.5 83t-80 122.5t-29.5 150q0 79 29.5 149.5t80 123t118.5 83t145 30.5t145 -30.5t118.5 -83t80 -123t29.5 -149.5q0 -80 -29.5 -150t-80 -122.5t-118.5 -83t-145 -30.5zM400 678q-64 0 -120.5 -25.5t-98.5 -69t-66.5 -102t-24.5 -124.5
t24.5 -124.5t66.5 -102t98.5 -68.5t120.5 -25t120.5 25t98.5 68.5t66.5 102t24.5 124.5t-24.5 124.5t-66.5 102t-98.5 69t-120.5 25.5zM533 124l-129 202h-93v-202h-62v467h176q33 0 60.5 -6t48 -21.5t32 -41.5t11.5 -66q0 -29 -7.5 -50.5t-21 -36.5t-32 -24.5t-41.5 -15.5
l131 -205h-73zM425 532h-114v-147h79q31 0 54 2.5t38.5 10t23.5 21.5t8 37q0 44 -23.5 60t-65.5 16z" />
    <glyph glyph-name="macron" unicode="&#xaf;" 
d="M-108 628v59h382v-59h-382z" />
    <glyph glyph-name="degree" unicode="&#xb0;" horiz-adv-x="400" 
d="M200 418q-30 0 -56.5 12.5t-46 33.5t-31 49.5t-11.5 61.5t11.5 61.5t31 50t46 34t56.5 12.5t56.5 -12.5t46 -34t31 -50t11.5 -61.5t-11.5 -61.5t-31 -49.5t-46 -33.5t-56.5 -12.5zM200 674q-18 0 -34.5 -8t-29 -21.5t-20 -31.5t-7.5 -38t7.5 -37.5t20 -31t29 -21.5
t34.5 -8t34.5 8t29 21.5t20 31t7.5 37.5t-7.5 38t-20 31.5t-29 21.5t-34.5 8z" />
    <glyph glyph-name="plusminus" unicode="&#xb1;" horiz-adv-x="600" 
d="M331 266v-188h-62v188h-222v65h222v188h62v-188h222v-65h-222zM47 -13v66h506v-66h-506z" />
    <glyph glyph-name="twosuperior" unicode="&#xb2;" horiz-adv-x="421" 
d="M36 282q5 45 15.5 70.5t29.5 44.5q17 17 43 34q12 8 26.5 16t31.5 18t31.5 17.5t28.5 15.5q13 8 23.5 15t18.5 14q17 14 25.5 30.5t8.5 40.5q0 22 -8.5 37.5t-22.5 25.5t-32.5 14.5t-38.5 4.5q-63 0 -89.5 -31.5t-26.5 -89.5h-55q0 94 44 134t127 40q27 0 55 -7
t50.5 -22.5t37 -41.5t14.5 -64q0 -34 -11.5 -59t-33 -44.5t-51 -37t-65.5 -36.5q-42 -23 -70.5 -42.5t-42.5 -43.5h284v-53h-347z" />
    <glyph glyph-name="threesuperior" unicode="&#xb3;" horiz-adv-x="421" 
d="M320 518q30 -14 48.5 -42.5t18.5 -72.5t-17 -71t-43 -43t-57.5 -21.5t-60.5 -5.5q-36 0 -68 8.5t-55.5 29t-37.5 55t-14 86.5h55q0 -37 9.5 -61.5t27 -38.5t40.5 -20t50 -6q21 0 42 5t37.5 15.5t26.5 27.5t10 41q0 32 -15 49t-38 25t-50 9t-52 1v53q21 0 46 0.5t47 6.5
t36.5 20t14.5 41q0 20 -9 33.5t-23.5 22t-33 12t-37.5 3.5q-25 0 -46.5 -5.5t-37 -19t-24.5 -35.5t-9 -54h-55q1 48 14.5 80t37 51.5t55.5 27.5t71 8q22 0 49 -5.5t49.5 -19.5t38 -38t15.5 -61q0 -38 -16 -59t-40 -32z" />
    <glyph glyph-name="acute" unicode="&#xb4;" 
d="M69 581h-64l66 86h79z" />
    <glyph glyph-name="mu" unicode="&#xb5;" horiz-adv-x="611" 
d="M124 31v-246h-68v740h68v-327q0 -37 7 -66.5t26 -50.5t52 -32.5t84 -11.5q52 0 88.5 15t60 39.5t34.5 56.5t11 65v312h68v-538h-68v76q-28 -38 -76 -65t-119 -27q-67 0 -106.5 18.5t-61.5 41.5z" />
    <glyph glyph-name="paragraph" unicode="&#xb6;" horiz-adv-x="600" 
d="M429 -159v821h-121v-821h-61v471q-42 2 -77.5 19.5t-62 45t-41.5 64t-15 77.5q0 104 59.5 156.5t163.5 52.5h217v-886h-62z" />
    <glyph glyph-name="periodcentered" unicode="&#xb7;" horiz-adv-x="222" 
d="M111 252q-23 0 -39.5 19.5t-16.5 48.5t16.5 49t39.5 20t39.5 -20t16.5 -49t-16.5 -48.5t-39.5 -19.5z" />
    <glyph glyph-name="cedilla" unicode="&#xb8;" 
d="M93 -39h13q14 0 29.5 -4t28.5 -13t21.5 -23.5t8.5 -34.5q0 -26 -11 -43t-28 -27t-36.5 -14.5t-35.5 -4.5q-23 0 -53.5 6.5t-60.5 16.5l16 52q24 -10 48 -16t40 -6h15.5t21 2.5t18.5 9.5t8 21q0 18 -15.5 21.5t-28.5 3.5q-18 0 -29.5 -3t-25.5 -11l-29 29l67 90h62z" />
    <glyph glyph-name="onesuperior" unicode="&#xb9;" horiz-adv-x="388" 
d="M183 274v356q-26 -20 -58 -29.5t-69 -14.5v54q19 1 39.5 7t39.5 16.5t33.5 25t21.5 32.5h45v-447h-52z" />
    <glyph glyph-name="ordmasculine" unicode="&#xba;" horiz-adv-x="410" 
d="M205 378q-38 0 -72 11t-59.5 33.5t-41 55.5t-15.5 77t15.5 77t41 55.5t59.5 34t72 11.5q37 0 71.5 -11.5t60 -34t41 -55.5t15.5 -77t-15.5 -77t-41 -55.5t-60 -33.5t-71.5 -11zM205 680q-33 0 -58 -11t-41.5 -28.5t-25 -40t-8.5 -45.5t8.5 -45t25 -39.5t41.5 -28.5
t58 -11t57.5 11t41.5 28.5t25.5 39.5t8.5 45t-8.5 45.5t-25.5 40t-41.5 28.5t-57.5 11z" />
    <glyph glyph-name="guillemotright" unicode="&#xbb;" horiz-adv-x="444" 
d="M223 82v89l89 99l-89 99v89l148 -160v-56zM87 82v89l89 99l-89 99v89l148 -160v-56z" />
    <glyph glyph-name="onequarter" unicode="&#xbc;" horiz-adv-x="972" 
d="M835 97v-110h-57v110h-238v50l245 288h50v-285h87v-53h-87zM256 -29h-67l459 762h68zM172 274v356q-29 -20 -64.5 -29.5t-76.5 -14.5v54q21 1 44 7t43.5 16.5t36.5 25t24 32.5h50v-447h-57zM778 348l-167 -198h167v198z" />
    <glyph glyph-name="onehalf" unicode="&#xbd;" horiz-adv-x="972" 
d="M548 -13q5 46 15.5 71.5t30.5 44.5q17 17 45 34q13 8 28 16t33 18q17 10 32.5 17.5t29.5 15.5t24.5 15t19.5 14q17 14 26 30.5t9 40.5q0 43 -32 62.5t-75 19.5q-66 0 -93 -31.5t-27 -89.5h-57q0 94 45.5 134t131.5 40q29 0 58 -7t52.5 -22.5t38.5 -41.5t15 -64
q0 -34 -12 -59t-34 -44.5t-53 -37t-68 -36.5q-45 -23 -74.5 -42.5t-43.5 -43.5h296v-54h-361zM256 -29h-67l459 762h67zM172 274v356q-29 -20 -64.5 -29.5t-76.5 -14.5v54q21 1 44 7t43.5 16.5t36.5 25t24 32.5h50v-447h-57z" />
    <glyph glyph-name="threequarters" unicode="&#xbe;" horiz-adv-x="972" 
d="M835 97v-110h-57v110h-238v50l245 290h50v-287h87v-53h-87zM325 -29h-68l459 762h68zM352 518q31 -14 50 -42.5t19 -72.5t-17.5 -71t-44.5 -43t-59.5 -21.5t-63.5 -5.5q-38 0 -71 8.5t-57.5 29t-39 55t-14.5 86.5h57q0 -37 10 -61.5t28 -38.5t42 -20t52 -6q22 0 44 5
t39 15.5t27.5 27.5t10.5 41q0 32 -15.5 49t-39 25t-52 9t-54.5 1v53q22 0 48 0.5t48.5 6.5t37.5 20t15 41q0 20 -9 33.5t-24 22t-34 12t-39 3.5q-53 0 -87.5 -25t-34.5 -89h-58q1 48 15.5 80t39 51.5t58 27.5t73.5 8q23 0 50.5 -5.5t51.5 -19.5t40 -38t16 -61
q0 -38 -16.5 -59t-41.5 -32zM778 350l-166 -200h166v200z" />
    <glyph glyph-name="questiondown" unicode="&#xbf;" horiz-adv-x="441" 
d="M195 275v107h69v-107h-69zM226 -167q-38 0 -71 8.5t-58 27t-39.5 47.5t-14.5 69q0 49 23 81.5t70 64.5q11 8 18.5 13.5t14.5 10.5q13 10 18 16q5 7 7.5 15.5t2.5 24.5v42h65v-34q0 -39 -11.5 -64t-28.5 -41.5t-36.5 -28t-36.5 -24.5t-28.5 -30t-11.5 -44q0 -45 33 -67
t81 -22q61 0 92.5 29.5t31.5 108.5h65q0 -55 -14 -93.5t-39 -63t-59 -35.5t-74 -11z" />
    <glyph glyph-name="Agrave" unicode="&#xc0;" horiz-adv-x="686" 
d="M627 -13l-101 231h-366l-101 -231h-77l328 740h66l328 -740h-77zM343 632l-154 -349h308zM357 743l-92 86h83l76 -86h-67z" />
    <glyph glyph-name="Aacute" unicode="&#xc1;" horiz-adv-x="686" 
d="M627 -13l-101 231h-366l-101 -231h-77l328 740h66l328 -740h-77zM343 632l-154 -349h308zM329 743h-64l66 86h79z" />
    <glyph glyph-name="Acircumflex" unicode="&#xc2;" horiz-adv-x="686" 
d="M627 -13l-101 231h-366l-101 -231h-77l328 740h66l328 -740h-77zM343 632l-154 -349h308zM460 743l-117 109l-117 -109h-84l170 167h62l170 -167h-84z" />
    <glyph glyph-name="Atilde" unicode="&#xc3;" horiz-adv-x="686" 
d="M627 -13l-101 231h-366l-101 -231h-77l328 740h66l328 -740h-77zM343 632l-154 -349h308zM489 797q-12 -14 -28 -22.5t-36 -8.5q-26 0 -48 8.5t-42 19.5t-36 18.5t-33 7.5t-29 -14t-14 -40h-55q2 23 10 43.5t21 36t30.5 24.5t38.5 9q25 0 46 -9t41 -20t35.5 -18t31.5 -7
q23 0 30.5 17t12.5 37h54q-4 -31 -11 -49.5t-19 -32.5z" />
    <glyph glyph-name="Adieresis" unicode="&#xc4;" horiz-adv-x="686" 
d="M627 -13l-101 231h-366l-101 -231h-77l328 740h66l328 -740h-77zM343 632l-154 -349h308zM407 748v131h65v-131h-65zM214 748v131h65v-131h-65z" />
    <glyph glyph-name="Aring" unicode="&#xc5;" horiz-adv-x="686" 
d="M627 -13l-101 231h-366l-101 -231h-77l328 740h66l328 -740h-77zM343 632l-154 -349h308zM343 718q-23 0 -43 9.5t-35 26t-23.5 38.5t-8.5 48q0 25 8.5 47.5t23.5 39.5t35 26.5t43 9.5t43 -9.5t35 -26.5t23.5 -39.5t8.5 -47.5q0 -26 -8.5 -48t-23.5 -38.5t-35 -26
t-43 -9.5zM343 904q-24 0 -40.5 -18.5t-16.5 -45.5t16.5 -45t40.5 -18t40.5 18t16.5 45t-16.5 45.5t-40.5 18.5z" />
    <glyph glyph-name="AE" unicode="&#xc6;" horiz-adv-x="1056" 
d="M502 -13v258h-300l-162 -258h-83l469 740h606v-65h-461v-259h441v-65h-441v-285h467v-66h-536zM502 662h-37l-222 -352h259v352z" />
    <glyph glyph-name="Ccedilla" unicode="&#xc7;" horiz-adv-x="796" 
d="M409 -39h14q15 0 31.5 -4t30.5 -13t23 -23.5t9 -34.5q0 -26 -12 -43t-30 -27t-38.5 -14.5t-38.5 -4.5q-26 0 -58.5 6.5t-64.5 16.5l18 52q26 -10 51.5 -16t42.5 -6h17t22 2.5t19.5 9.5t8.5 21q0 9 -4.5 14t-11.5 7.5t-15 3t-15 0.5q-20 0 -32 -3t-28 -11l-31 29l42 51
q-72 8 -132.5 37.5t-104.5 78t-68.5 116t-24.5 151.5q0 67 22.5 135.5t69 124t118.5 91t170 35.5q64 0 119.5 -16t100 -48.5t76.5 -82.5t47 -118h-70q-13 52 -39.5 90t-62.5 62.5t-79.5 36t-91.5 11.5q-72 0 -129.5 -25.5t-98 -69.5t-62 -102.5t-21.5 -123.5t20 -123
t59 -102t97 -69.5t135 -25.5q111 0 187.5 63.5t96.5 183.5h69q-7 -58 -32 -113t-68 -98.5t-104 -71t-139 -29.5z" />
    <glyph glyph-name="Egrave" unicode="&#xc8;" horiz-adv-x="648" 
d="M60 -13v740h564v-65h-496v-259h476v-65h-476v-285h502v-66h-570zM338 743l-92 86h83l76 -86h-67z" />
    <glyph glyph-name="Eacute" unicode="&#xc9;" horiz-adv-x="648" 
d="M60 -13v740h564v-65h-496v-259h476v-65h-476v-285h502v-66h-570zM310 743h-64l66 86h79z" />
    <glyph glyph-name="Ecircumflex" unicode="&#xca;" horiz-adv-x="648" 
d="M60 -13v740h564v-65h-496v-259h476v-65h-476v-285h502v-66h-570zM441 743l-117 109l-117 -109h-84l170 167h62l170 -167h-84z" />
    <glyph glyph-name="Edieresis" unicode="&#xcb;" horiz-adv-x="648" 
d="M60 -13v740h564v-65h-496v-259h476v-65h-476v-285h502v-66h-570zM388 748v131h65v-131h-65zM195 748v131h65v-131h-65z" />
    <glyph glyph-name="Igrave" unicode="&#xcc;" 
d="M97 743l-92 86h83l76 -86h-67zM59 -13v740h66v-740h-66z" />
    <glyph glyph-name="Iacute" unicode="&#xcd;" 
d="M59 -13v740h66v-740h-66zM69 743h-64l66 86h79z" />
    <glyph glyph-name="Icircumflex" unicode="&#xce;" 
d="M59 -13v740h66v-740h-66zM200 743l-117 109l-117 -109h-84l170 167h62l170 -167h-84z" />
    <glyph glyph-name="Idieresis" unicode="&#xcf;" 
d="M59 -13v740h66v-740h-66zM147 748v131h65v-131h-65zM-46 748v131h65v-131h-65z" />
    <glyph glyph-name="Eth" unicode="&#xd0;" horiz-adv-x="759" 
d="M385 -13h-327v351h-58v65h58v324h335q63 0 121.5 -18t102.5 -60.5t70.5 -114t26.5 -177.5q0 -80 -20 -148t-61 -117.5t-102.5 -77t-145.5 -27.5zM383 662h-256v-259h257v-65h-257v-285h267q54 0 100 17.5t79.5 54.5t52.5 94.5t19 137.5q0 82 -19 140t-53.5 94.5t-83 53.5
t-106.5 17z" />
    <glyph glyph-name="Ntilde" unicode="&#xd1;" horiz-adv-x="759" 
d="M631 97v630h68v-740h-74l-497 630v-630h-68v740h74zM526 797q-12 -14 -28 -22.5t-36 -8.5q-26 0 -48 8.5t-42 19.5t-36 18.5t-33 7.5t-29 -14t-14 -40h-55q2 23 10 43.5t21 36t30.5 24.5t38.5 9q25 0 46 -9t41 -20t35.5 -18t31.5 -7q23 0 30.5 17t12.5 37h54
q-4 -31 -11 -49.5t-19 -32.5z" />
    <glyph glyph-name="Ograve" unicode="&#xd2;" horiz-adv-x="816" 
d="M408 -29q-72 0 -128.5 18.5t-98.5 49.5t-71 71t-47 83t-26 85.5t-8 78.5t8 78.5t26 85.5t47 83t71 71t98.5 49.5t128.5 18.5t128.5 -18.5t98.5 -49.5t71 -71t47 -83t26 -85.5t8 -78.5t-8 -78.5t-26 -85.5t-47 -83t-71 -71t-98.5 -49.5t-128.5 -18.5zM408 678
q-75 0 -133 -27t-97 -71.5t-59.5 -102.5t-20.5 -120t20.5 -119.5t59.5 -102t97 -71.5t133 -27t133 27t97 71.5t59.5 102t20.5 119.5t-20.5 120t-59.5 102.5t-97 71.5t-133 27zM422 743l-92 86h83l76 -86h-67z" />
    <glyph glyph-name="Oacute" unicode="&#xd3;" horiz-adv-x="816" 
d="M408 -29q-72 0 -128.5 18.5t-98.5 49.5t-71 71t-47 83t-26 85.5t-8 78.5t8 78.5t26 85.5t47 83t71 71t98.5 49.5t128.5 18.5t128.5 -18.5t98.5 -49.5t71 -71t47 -83t26 -85.5t8 -78.5t-8 -78.5t-26 -85.5t-47 -83t-71 -71t-98.5 -49.5t-128.5 -18.5zM408 678
q-75 0 -133 -27t-97 -71.5t-59.5 -102.5t-20.5 -120t20.5 -119.5t59.5 -102t97 -71.5t133 -27t133 27t97 71.5t59.5 102t20.5 119.5t-20.5 120t-59.5 102.5t-97 71.5t-133 27zM394 743h-64l66 86h79z" />
    <glyph glyph-name="Ocircumflex" unicode="&#xd4;" horiz-adv-x="816" 
d="M408 -29q-72 0 -128.5 18.5t-98.5 49.5t-71 71t-47 83t-26 85.5t-8 78.5t8 78.5t26 85.5t47 83t71 71t98.5 49.5t128.5 18.5t128.5 -18.5t98.5 -49.5t71 -71t47 -83t26 -85.5t8 -78.5t-8 -78.5t-26 -85.5t-47 -83t-71 -71t-98.5 -49.5t-128.5 -18.5zM408 678
q-75 0 -133 -27t-97 -71.5t-59.5 -102.5t-20.5 -120t20.5 -119.5t59.5 -102t97 -71.5t133 -27t133 27t97 71.5t59.5 102t20.5 119.5t-20.5 120t-59.5 102.5t-97 71.5t-133 27zM525 743l-117 109l-117 -109h-84l170 167h62l170 -167h-84z" />
    <glyph glyph-name="Otilde" unicode="&#xd5;" horiz-adv-x="816" 
d="M408 -29q-72 0 -128.5 18.5t-98.5 49.5t-71 71t-47 83t-26 85.5t-8 78.5t8 78.5t26 85.5t47 83t71 71t98.5 49.5t128.5 18.5t128.5 -18.5t98.5 -49.5t71 -71t47 -83t26 -85.5t8 -78.5t-8 -78.5t-26 -85.5t-47 -83t-71 -71t-98.5 -49.5t-128.5 -18.5zM408 678
q-75 0 -133 -27t-97 -71.5t-59.5 -102.5t-20.5 -120t20.5 -119.5t59.5 -102t97 -71.5t133 -27t133 27t97 71.5t59.5 102t20.5 119.5t-20.5 120t-59.5 102.5t-97 71.5t-133 27zM554 797q-12 -14 -28 -22.5t-36 -8.5q-26 0 -48 8.5t-42 19.5t-36 18.5t-33 7.5t-29 -14t-14 -40
h-55q2 23 10 43.5t21 36t30.5 24.5t38.5 9q25 0 46 -9t41 -20t35.5 -18t31.5 -7q23 0 30.5 17t12.5 37h54q-4 -31 -11 -49.5t-19 -32.5z" />
    <glyph glyph-name="Odieresis" unicode="&#xd6;" horiz-adv-x="816" 
d="M408 -29q-72 0 -128.5 18.5t-98.5 49.5t-71 71t-47 83t-26 85.5t-8 78.5t8 78.5t26 85.5t47 83t71 71t98.5 49.5t128.5 18.5t128.5 -18.5t98.5 -49.5t71 -71t47 -83t26 -85.5t8 -78.5t-8 -78.5t-26 -85.5t-47 -83t-71 -71t-98.5 -49.5t-128.5 -18.5zM408 678
q-75 0 -133 -27t-97 -71.5t-59.5 -102.5t-20.5 -120t20.5 -119.5t59.5 -102t97 -71.5t133 -27t133 27t97 71.5t59.5 102t20.5 119.5t-20.5 120t-59.5 102.5t-97 71.5t-133 27zM472 748v131h65v-131h-65zM279 748v131h65v-131h-65z" />
    <glyph glyph-name="multiply" unicode="&#xd7;" horiz-adv-x="420" 
d="M336 -4l-126 136l-127 -136l-41 45l127 136l-127 137l41 45l127 -137l126 137l42 -45l-127 -137l127 -136z" />
    <glyph glyph-name="Oslash" unicode="&#xd8;" horiz-adv-x="816" 
d="M408 -29q-84 0 -145 23.5t-106 64.5l-91 -93l-38 40l90 94q-25 30 -42 63.5t-27.5 66.5t-15 65.5t-4.5 61.5q0 36 8 78.5t26 85.5t47 83t71 71t98.5 49.5t128.5 18.5q84 0 145 -24t106 -65l91 94l38 -40l-91 -94q24 -30 41.5 -63.5t28 -67t15.5 -66t5 -60.5
q0 -36 -8 -78.5t-26 -85.5t-47 -83t-71 -71t-98.5 -49.5t-128.5 -18.5zM408 678q-75 0 -133 -27t-97 -71.5t-59.5 -102.5t-20.5 -120q0 -58 17 -112t52 -96l444 456q-38 33 -88.5 53t-114.5 20zM649 566l-444 -457q38 -34 88.5 -53t114.5 -19q75 0 133 27t97 71.5t59.5 102
t20.5 119.5q0 58 -17 111t-52 98z" />
    <glyph glyph-name="Ugrave" unicode="&#xd9;" horiz-adv-x="740" 
d="M370 -29q-157 0 -236.5 73t-79.5 220v463h68v-461q0 -54 13 -97t42.5 -72t76.5 -44.5t116 -15.5t116 15.5t76.5 44.5t42.5 72t13 97v461h68v-463q0 -147 -79.5 -220t-236.5 -73zM384 743l-92 86h83l76 -86h-67z" />
    <glyph glyph-name="Uacute" unicode="&#xda;" horiz-adv-x="740" 
d="M370 -29q-157 0 -236.5 73t-79.5 220v463h68v-461q0 -54 13 -97t42.5 -72t76.5 -44.5t116 -15.5t116 15.5t76.5 44.5t42.5 72t13 97v461h68v-463q0 -147 -79.5 -220t-236.5 -73zM356 743h-64l66 86h79z" />
    <glyph glyph-name="Ucircumflex" unicode="&#xdb;" horiz-adv-x="740" 
d="M370 -29q-157 0 -236.5 73t-79.5 220v463h68v-461q0 -54 13 -97t42.5 -72t76.5 -44.5t116 -15.5t116 15.5t76.5 44.5t42.5 72t13 97v461h68v-463q0 -147 -79.5 -220t-236.5 -73zM487 743l-117 109l-117 -109h-84l170 167h62l170 -167h-84z" />
    <glyph glyph-name="Udieresis" unicode="&#xdc;" horiz-adv-x="740" 
d="M370 -29q-157 0 -236.5 73t-79.5 220v463h68v-461q0 -54 13 -97t42.5 -72t76.5 -44.5t116 -15.5t116 15.5t76.5 44.5t42.5 72t13 97v461h68v-463q0 -147 -79.5 -220t-236.5 -73zM434 748v131h65v-131h-65zM241 748v131h65v-131h-65z" />
    <glyph glyph-name="Yacute" unicode="&#xdd;" horiz-adv-x="668" 
d="M368 296v-309h-68v309l-333 431h93l274 -364l280 364h87zM320 743h-64l66 86h79z" />
    <glyph glyph-name="Thorn" unicode="&#xde;" horiz-adv-x="667" 
d="M422 152h-294v-165h-68v740h68v-150h301q37 0 76 -8.5t71 -32t52.5 -64.5t20.5 -106q0 -48 -13.5 -87t-41.5 -67.5t-71 -44t-101 -15.5zM411 512h-283v-295h293q31 0 59.5 7t51 23.5t36 45t13.5 71.5q0 55 -18 85t-44.5 44t-56 16.5t-51.5 2.5z" />
    <glyph glyph-name="germandbls" unicode="&#xdf;" horiz-adv-x="593" 
d="M438 401q65 -19 97 -71.5t32 -124.5q0 -47 -15 -88.5t-45 -72.5t-75 -49t-105 -18q-28 0 -49 3t-38 12v65q20 -7 41 -10.5t49 -3.5q33 0 64 8t54 28t37 52.5t14 82.5q0 81 -51.5 115t-148.5 34h-48v65h41q84 0 128.5 30.5t44.5 93.5q0 15 -5.5 36.5t-23.5 41t-51.5 33
t-90.5 13.5q-48 0 -81 -11t-52.5 -31t-28 -48t-8.5 -63v-536h-68v535q0 58 17 100t47.5 68t73.5 38.5t95 12.5q49 0 93.5 -9.5t78 -31.5t53 -58t19.5 -90q0 -20 -4.5 -42t-16 -42t-29.5 -37.5t-45 -29.5z" />
    <glyph glyph-name="agrave" unicode="&#xe0;" horiz-adv-x="593" 
d="M464 64q-24 -31 -54 -49.5t-60.5 -28t-59.5 -12.5t-51 -3q-11 0 -31.5 1t-44 6t-48 15.5t-44.5 29t-32.5 47.5t-12.5 70q0 43 16.5 72.5t44 48t62.5 27t73 11.5l172 12q18 1 30 4t19.5 9t10.5 17.5t3 30.5q0 22 -6.5 41t-25 33t-52 22t-86.5 8q-47 0 -78 -7.5t-50.5 -24
t-29.5 -41.5t-14 -61h-69q7 57 24.5 95t47 61t71.5 33t99 10q53 0 97 -7.5t75 -26.5t48 -50t17 -79v-287v-13.5t1 -11.5q0 -8 2 -16q2 -3 4.5 -5t13.5 -2q8 0 20 2t35 10v-66q-19 -6 -34 -9t-32 -3q-42 0 -55.5 23t-15.5 64zM457 263q-26 -13 -67 -16l-166 -12
q-62 -5 -96 -26t-34 -69q0 -34 14.5 -54t36.5 -31t48 -14.5t49 -3.5q37 0 75 8.5t69 27.5t51 48t20 71v71zM281 581l-92 86h83l76 -86h-67z" />
    <glyph glyph-name="aacute" unicode="&#xe1;" horiz-adv-x="593" 
d="M464 64q-24 -31 -54 -49.5t-60.5 -28t-59.5 -12.5t-51 -3q-11 0 -31.5 1t-44 6t-48 15.5t-44.5 29t-32.5 47.5t-12.5 70q0 43 16.5 72.5t44 48t62.5 27t73 11.5l172 12q18 1 30 4t19.5 9t10.5 17.5t3 30.5q0 22 -6.5 41t-25 33t-52 22t-86.5 8q-47 0 -78 -7.5t-50.5 -24
t-29.5 -41.5t-14 -61h-69q7 57 24.5 95t47 61t71.5 33t99 10q53 0 97 -7.5t75 -26.5t48 -50t17 -79v-287v-13.5t1 -11.5q0 -8 2 -16q2 -3 4.5 -5t13.5 -2q8 0 20 2t35 10v-66q-19 -6 -34 -9t-32 -3q-42 0 -55.5 23t-15.5 64zM457 263q-26 -13 -67 -16l-166 -12
q-62 -5 -96 -26t-34 -69q0 -34 14.5 -54t36.5 -31t48 -14.5t49 -3.5q37 0 75 8.5t69 27.5t51 48t20 71v71zM323 581h-64l66 86h79z" />
    <glyph glyph-name="acircumflex" unicode="&#xe2;" horiz-adv-x="593" 
d="M464 64q-24 -31 -54 -49.5t-60.5 -28t-59.5 -12.5t-51 -3q-11 0 -31.5 1t-44 6t-48 15.5t-44.5 29t-32.5 47.5t-12.5 70q0 43 16.5 72.5t44 48t62.5 27t73 11.5l172 12q18 1 30 4t19.5 9t10.5 17.5t3 30.5q0 22 -6.5 41t-25 33t-52 22t-86.5 8q-47 0 -78 -7.5t-50.5 -24
t-29.5 -41.5t-14 -61h-69q7 57 24.5 95t47 61t71.5 33t99 10q53 0 97 -7.5t75 -26.5t48 -50t17 -79v-287v-13.5t1 -11.5q0 -8 2 -16q2 -3 4.5 -5t13.5 -2q8 0 20 2t35 10v-66q-19 -6 -34 -9t-32 -3q-42 0 -55.5 23t-15.5 64zM457 263q-26 -13 -67 -16l-166 -12
q-62 -5 -96 -26t-34 -69q0 -34 14.5 -54t36.5 -31t48 -14.5t49 -3.5q37 0 75 8.5t69 27.5t51 48t20 71v71zM414 581l-117 109l-117 -109h-84l170 167h62l170 -167h-84z" />
    <glyph glyph-name="atilde" unicode="&#xe3;" horiz-adv-x="593" 
d="M464 64q-24 -31 -54 -49.5t-60.5 -28t-59.5 -12.5t-51 -3q-11 0 -31.5 1t-44 6t-48 15.5t-44.5 29t-32.5 47.5t-12.5 70q0 43 16.5 72.5t44 48t62.5 27t73 11.5l172 12q18 1 30 4t19.5 9t10.5 17.5t3 30.5q0 22 -6.5 41t-25 33t-52 22t-86.5 8q-47 0 -78 -7.5t-50.5 -24
t-29.5 -41.5t-14 -61h-69q7 57 24.5 95t47 61t71.5 33t99 10q53 0 97 -7.5t75 -26.5t48 -50t17 -79v-287v-13.5t1 -11.5q0 -8 2 -16q2 -3 4.5 -5t13.5 -2q8 0 20 2t35 10v-66q-19 -6 -34 -9t-32 -3q-42 0 -55.5 23t-15.5 64zM457 263q-26 -13 -67 -16l-166 -12
q-62 -5 -96 -26t-34 -69q0 -34 14.5 -54t36.5 -31t48 -14.5t49 -3.5q37 0 75 8.5t69 27.5t51 48t20 71v71zM443 635q-12 -14 -28 -22.5t-36 -8.5q-26 0 -48 8.5t-42 19.5t-36 18.5t-33 7.5t-29 -14t-14 -40h-55q2 23 10 43.5t21 36t30.5 24.5t38.5 9q25 0 46 -9t41 -20
t35.5 -18t31.5 -7q23 0 30.5 17t12.5 37h54q-4 -31 -11 -49.5t-19 -32.5z" />
    <glyph glyph-name="adieresis" unicode="&#xe4;" horiz-adv-x="593" 
d="M464 64q-24 -31 -54 -49.5t-60.5 -28t-59.5 -12.5t-51 -3q-11 0 -31.5 1t-44 6t-48 15.5t-44.5 29t-32.5 47.5t-12.5 70q0 43 16.5 72.5t44 48t62.5 27t73 11.5l172 12q18 1 30 4t19.5 9t10.5 17.5t3 30.5q0 22 -6.5 41t-25 33t-52 22t-86.5 8q-47 0 -78 -7.5t-50.5 -24
t-29.5 -41.5t-14 -61h-69q7 57 24.5 95t47 61t71.5 33t99 10q53 0 97 -7.5t75 -26.5t48 -50t17 -79v-287v-13.5t1 -11.5q0 -8 2 -16q2 -3 4.5 -5t13.5 -2q8 0 20 2t35 10v-66q-19 -6 -34 -9t-32 -3q-42 0 -55.5 23t-15.5 64zM457 263q-26 -13 -67 -16l-166 -12
q-62 -5 -96 -26t-34 -69q0 -34 14.5 -54t36.5 -31t48 -14.5t49 -3.5q37 0 75 8.5t69 27.5t51 48t20 71v71zM361 586v131h65v-131h-65zM168 586v131h65v-131h-65z" />
    <glyph glyph-name="aring" unicode="&#xe5;" horiz-adv-x="593" 
d="M464 64q-24 -31 -54 -49.5t-60.5 -28t-59.5 -12.5t-51 -3q-11 0 -31.5 1t-44 6t-48 15.5t-44.5 29t-32.5 47.5t-12.5 70q0 43 16.5 72.5t44 48t62.5 27t73 11.5l172 12q18 1 30 4t19.5 9t10.5 17.5t3 30.5q0 22 -6.5 41t-25 33t-52 22t-86.5 8q-47 0 -78 -7.5t-50.5 -24
t-29.5 -41.5t-14 -61h-69q7 57 24.5 95t47 61t71.5 33t99 10q53 0 97 -7.5t75 -26.5t48 -50t17 -79v-287v-13.5t1 -11.5q0 -8 2 -16q2 -3 4.5 -5t13.5 -2q8 0 20 2t35 10v-66q-19 -6 -34 -9t-32 -3q-42 0 -55.5 23t-15.5 64zM457 263q-26 -13 -67 -16l-166 -12
q-62 -5 -96 -26t-34 -69q0 -34 14.5 -54t36.5 -31t48 -14.5t49 -3.5q37 0 75 8.5t69 27.5t51 48t20 71v71zM297 556q-23 0 -43 9.5t-35 26t-23.5 38.5t-8.5 48q0 25 8.5 47.5t23.5 39.5t35 26.5t43 9.5t43 -9.5t35 -26.5t23.5 -39.5t8.5 -47.5q0 -26 -8.5 -48t-23.5 -38.5
t-35 -26t-43 -9.5zM297 742q-24 0 -40.5 -18.5t-16.5 -45.5t16.5 -45t40.5 -18t40.5 18t16.5 45t-16.5 45.5t-40.5 18.5z" />
    <glyph glyph-name="ae" unicode="&#xe6;" horiz-adv-x="1055" 
d="M522 427q32 54 91.5 84t137.5 30q68 0 121 -22.5t89.5 -63t56 -97t20.5 -124.5h-509q3 -43 19 -79t44.5 -62.5t69 -41t93.5 -14.5q57 0 92 15.5t57 36.5q11 11 19 22.5t14 22.5q7 12 12 23.5t10 25.5h70q-37 -114 -106.5 -163t-172.5 -49q-36 0 -72 6.5t-69.5 22.5
t-61.5 42.5t-47 66.5q-28 -63 -93.5 -100.5t-163.5 -37.5q-12 0 -32.5 1t-44.5 6t-49 15.5t-45 29t-33 47.5t-13 70q0 43 17 72.5t45 48t64 27t74 11.5l174 12q18 1 30.5 4t20 9t11 17.5t3.5 30.5q0 22 -6.5 41t-25.5 33t-53 22t-88 8q-48 0 -79.5 -7.5t-51.5 -24t-30 -41.5
t-15 -61h-69q7 57 24.5 95t47.5 61t73 33t101 10q38 0 74.5 -4t67 -16.5t53.5 -35t34 -58.5zM746 476q-90 0 -144 -47.5t-71 -129.5h430q-8 46 -28 79t-48.5 55t-64 32.5t-74.5 10.5zM465 263q-26 -13 -69 -16l-169 -12q-62 -5 -97 -26t-35 -69q0 -34 15 -54t37.5 -31
t49 -14.5t49.5 -3.5q37 0 76 8.5t71 27.5t52 48t20 71v71z" />
    <glyph glyph-name="ccedilla" unicode="&#xe7;" horiz-adv-x="611" 
d="M316 -39h15q15 0 31 -4t30 -13t23 -23.5t9 -34.5q0 -26 -12 -43t-30 -27t-38.5 -14.5t-37.5 -4.5q-25 0 -57.5 6.5t-64.5 16.5l18 52q26 -10 51 -16t42 -6h17t22 2.5t19.5 9.5t8.5 21q0 9 -4.5 14t-11.5 7.5t-15 3t-15 0.5q-20 0 -32 -3t-27 -11l-31 29l42 53
q-54 6 -98.5 29t-76.5 59t-49.5 83.5t-17.5 103.5q0 70 23 124.5t63 91t92 55.5t111 19q57 0 104.5 -16t82 -44t55 -64.5t22.5 -77.5h-68q-2 25 -17 49.5t-40.5 44t-60.5 31.5t-78 12q-56 0 -97.5 -19t-69 -50t-41 -72t-13.5 -84q0 -30 11 -67t36.5 -69.5t68 -55
t105.5 -22.5q36 0 69 9t60 28t46.5 48t28.5 70h69q-11 -57 -36 -98t-59.5 -67t-77 -39.5t-88.5 -14.5z" />
    <glyph glyph-name="egrave" unicode="&#xe8;" horiz-adv-x="611" 
d="M95 234q3 -43 18.5 -79t43.5 -62.5t68 -41t91 -14.5q56 0 90.5 15.5t56.5 36.5q11 11 18.5 22.5t13.5 22.5q7 12 11.5 23.5t10.5 25.5h68q-36 -114 -104 -163t-170 -49q-65 0 -118 20t-90 57.5t-57 91t-20 120.5q0 42 14 91t47 91.5t88 70.5t137 28q67 0 119 -22.5
t88 -63t55 -97t20 -124.5h-499zM307 476q-88 0 -141 -47.5t-70 -129.5h422q-8 46 -27.5 79t-47.5 55t-62.5 32.5t-73.5 10.5zM300 581l-92 86h83l76 -86h-67z" />
    <glyph glyph-name="eacute" unicode="&#xe9;" horiz-adv-x="611" 
d="M95 234q3 -43 18.5 -79t43.5 -62.5t68 -41t91 -14.5q56 0 90.5 15.5t56.5 36.5q11 11 18.5 22.5t13.5 22.5q7 12 11.5 23.5t10.5 25.5h68q-36 -114 -104 -163t-170 -49q-65 0 -118 20t-90 57.5t-57 91t-20 120.5q0 42 14 91t47 91.5t88 70.5t137 28q67 0 119 -22.5
t88 -63t55 -97t20 -124.5h-499zM307 476q-88 0 -141 -47.5t-70 -129.5h422q-8 46 -27.5 79t-47.5 55t-62.5 32.5t-73.5 10.5zM332 581h-64l66 86h79z" />
    <glyph glyph-name="ecircumflex" unicode="&#xea;" horiz-adv-x="611" 
d="M95 234q3 -43 18.5 -79t43.5 -62.5t68 -41t91 -14.5q56 0 90.5 15.5t56.5 36.5q11 11 18.5 22.5t13.5 22.5q7 12 11.5 23.5t10.5 25.5h68q-36 -114 -104 -163t-170 -49q-65 0 -118 20t-90 57.5t-57 91t-20 120.5q0 42 14 91t47 91.5t88 70.5t137 28q67 0 119 -22.5
t88 -63t55 -97t20 -124.5h-499zM307 476q-88 0 -141 -47.5t-70 -129.5h422q-8 46 -27.5 79t-47.5 55t-62.5 32.5t-73.5 10.5zM423 581l-117 109l-117 -109h-84l170 167h62l170 -167h-84z" />
    <glyph glyph-name="edieresis" unicode="&#xeb;" horiz-adv-x="611" 
d="M95 234q3 -43 18.5 -79t43.5 -62.5t68 -41t91 -14.5q56 0 90.5 15.5t56.5 36.5q11 11 18.5 22.5t13.5 22.5q7 12 11.5 23.5t10.5 25.5h68q-36 -114 -104 -163t-170 -49q-65 0 -118 20t-90 57.5t-57 91t-20 120.5q0 42 14 91t47 91.5t88 70.5t137 28q67 0 119 -22.5
t88 -63t55 -97t20 -124.5h-499zM307 476q-88 0 -141 -47.5t-70 -129.5h422q-8 46 -27.5 79t-47.5 55t-62.5 32.5t-73.5 10.5zM370 586v131h65v-131h-65zM177 586v131h65v-131h-65z" />
    <glyph glyph-name="igrave" unicode="&#xec;" 
d="M60 581l-92 86h83l76 -86h-67zM53 -13v538h66v-538h-66z" />
    <glyph glyph-name="iacute" unicode="&#xed;" 
d="M109 581h-64l66 86h79zM53 -13v538h66v-538h-66z" />
    <glyph glyph-name="icircumflex" unicode="&#xee;" 
d="M200 581l-117 109l-117 -109h-84l170 167h62l170 -167h-84zM53 -13v538h66v-538h-66z" />
    <glyph glyph-name="idieresis" unicode="&#xef;" 
d="M147 586v131h65v-131h-65zM-46 586v131h65v-131h-65zM53 -13v538h66v-538h-66z" />
    <glyph glyph-name="eth" unicode="&#xf0;" horiz-adv-x="630" 
d="M221 582l-48 37l286 149l40 -41zM485 483q-27 45 -59.5 81t-73 64t-90.5 49t-111 38l44 52q89 -23 164 -68t129.5 -109t85 -145t30.5 -177q0 -65 -19.5 -119.5t-56.5 -94t-91 -61.5t-122 -22t-122 23t-91 62.5t-56.5 91t-19.5 108.5q0 56 19 107.5t55 91t87.5 63
t116.5 23.5q51 0 96.5 -13t84.5 -45zM315 476q-56 0 -97.5 -19t-69 -50t-41 -70.5t-13.5 -80.5t13.5 -80.5t41 -70.5t69 -49.5t97.5 -18.5t97.5 18.5t69 49.5t41 70.5t13.5 80.5t-13.5 80.5t-41 70.5t-69 50t-97.5 19z" />
    <glyph glyph-name="ntilde" unicode="&#xf1;" horiz-adv-x="611" 
d="M124 449q28 38 75.5 65t119.5 27q59 0 99 -12.5t66.5 -32t40.5 -44.5t21 -50t8 -48t1 -38v-329h-68v327q0 37 -7 67t-26 51t-52 32.5t-84 11.5q-52 0 -88.5 -15t-60 -40t-34.5 -57t-11 -65v-312h-68v538h68v-76zM452 635q-12 -14 -28 -22.5t-36 -8.5q-26 0 -48 8.5
t-42 19.5t-36 18.5t-33 7.5t-29 -14t-14 -40h-55q2 23 10 43.5t21 36t30.5 24.5t38.5 9q25 0 46 -9t41 -20t35.5 -18t31.5 -7q23 0 30.5 17t12.5 37h54q-4 -31 -11 -49.5t-19 -32.5z" />
    <glyph glyph-name="ograve" unicode="&#xf2;" horiz-adv-x="630" 
d="M315 -29q-68 0 -122 23t-91 62.5t-56.5 91t-19.5 108.5q0 56 19.5 107.5t56.5 91t91 63t122 23.5t122 -23.5t91 -63t56.5 -91t19.5 -107.5q0 -57 -19.5 -108.5t-56.5 -91t-91 -62.5t-122 -23zM315 476q-56 0 -97.5 -19t-69 -50t-41 -70.5t-13.5 -80.5t13.5 -80.5
t41 -70.5t69 -49.5t97.5 -18.5t97.5 18.5t69 49.5t41 70.5t13.5 80.5t-13.5 80.5t-41 70.5t-69 50t-97.5 19zM319 581l-92 86h83l76 -86h-67z" />
    <glyph glyph-name="oacute" unicode="&#xf3;" horiz-adv-x="630" 
d="M315 -29q-68 0 -122 23t-91 62.5t-56.5 91t-19.5 108.5q0 56 19.5 107.5t56.5 91t91 63t122 23.5t122 -23.5t91 -63t56.5 -91t19.5 -107.5q0 -57 -19.5 -108.5t-56.5 -91t-91 -62.5t-122 -23zM315 476q-56 0 -97.5 -19t-69 -50t-41 -70.5t-13.5 -80.5t13.5 -80.5
t41 -70.5t69 -49.5t97.5 -18.5t97.5 18.5t69 49.5t41 70.5t13.5 80.5t-13.5 80.5t-41 70.5t-69 50t-97.5 19zM361 581h-64l66 86h79z" />
    <glyph glyph-name="ocircumflex" unicode="&#xf4;" horiz-adv-x="630" 
d="M315 -29q-68 0 -122 23t-91 62.5t-56.5 91t-19.5 108.5q0 56 19.5 107.5t56.5 91t91 63t122 23.5t122 -23.5t91 -63t56.5 -91t19.5 -107.5q0 -57 -19.5 -108.5t-56.5 -91t-91 -62.5t-122 -23zM315 476q-56 0 -97.5 -19t-69 -50t-41 -70.5t-13.5 -80.5t13.5 -80.5
t41 -70.5t69 -49.5t97.5 -18.5t97.5 18.5t69 49.5t41 70.5t13.5 80.5t-13.5 80.5t-41 70.5t-69 50t-97.5 19zM432 581l-117 109l-117 -109h-84l170 167h62l170 -167h-84z" />
    <glyph glyph-name="otilde" unicode="&#xf5;" horiz-adv-x="630" 
d="M315 -29q-68 0 -122 23t-91 62.5t-56.5 91t-19.5 108.5q0 56 19.5 107.5t56.5 91t91 63t122 23.5t122 -23.5t91 -63t56.5 -91t19.5 -107.5q0 -57 -19.5 -108.5t-56.5 -91t-91 -62.5t-122 -23zM315 476q-56 0 -97.5 -19t-69 -50t-41 -70.5t-13.5 -80.5t13.5 -80.5
t41 -70.5t69 -49.5t97.5 -18.5t97.5 18.5t69 49.5t41 70.5t13.5 80.5t-13.5 80.5t-41 70.5t-69 50t-97.5 19zM461 635q-12 -14 -28 -22.5t-36 -8.5q-26 0 -48 8.5t-42 19.5t-36 18.5t-33 7.5t-29 -14t-14 -40h-55q2 23 10 43.5t21 36t30.5 24.5t38.5 9q25 0 46 -9t41 -20
t35.5 -18t31.5 -7q23 0 30.5 17t12.5 37h54q-4 -31 -11 -49.5t-19 -32.5z" />
    <glyph glyph-name="odieresis" unicode="&#xf6;" horiz-adv-x="630" 
d="M315 -29q-68 0 -122 23t-91 62.5t-56.5 91t-19.5 108.5q0 56 19.5 107.5t56.5 91t91 63t122 23.5t122 -23.5t91 -63t56.5 -91t19.5 -107.5q0 -57 -19.5 -108.5t-56.5 -91t-91 -62.5t-122 -23zM315 476q-56 0 -97.5 -19t-69 -50t-41 -70.5t-13.5 -80.5t13.5 -80.5
t41 -70.5t69 -49.5t97.5 -18.5t97.5 18.5t69 49.5t41 70.5t13.5 80.5t-13.5 80.5t-41 70.5t-69 50t-97.5 19zM379 586v131h65v-131h-65zM186 586v131h65v-131h-65z" />
    <glyph glyph-name="divide" unicode="&#xf7;" horiz-adv-x="600" 
d="M300 388q-26 0 -44 19t-18 46t18 46.5t44 19.5t44 -19.5t18 -46.5t-18 -46t-44 -19zM47 221v65h506v-65h-506zM300 -13q-26 0 -44 19.5t-18 46.5t18 46.5t44 19.5t44 -19.5t18 -46.5t-18 -46.5t-44 -19.5z" />
    <glyph glyph-name="oslash" unicode="&#xf8;" horiz-adv-x="630" 
d="M315 -29q-59 0 -105.5 16.5t-81.5 45.5l-70 -70l-34 37l68 68q-32 38 -49 86t-17 102q0 56 19.5 107.5t56.5 91t91 63t122 23.5q57 0 104 -16.5t83 -45.5l70 70l34 -37l-68 -69q66 -78 66 -187q0 -57 -19.5 -108.5t-56.5 -91t-91 -62.5t-122 -23zM490 396l-315 -315
q26 -21 60.5 -32.5t79.5 -11.5q56 0 97.5 18.5t69 49.5t41 70.5t13.5 80.5q0 80 -46 140zM315 476q-56 0 -97.5 -19t-69 -50t-41 -70.5t-13.5 -80.5q0 -80 46 -140l315 315q-26 21 -60.5 33t-79.5 12z" />
    <glyph glyph-name="ugrave" unicode="&#xf9;" horiz-adv-x="611" 
d="M487 63q-28 -38 -76 -65t-119 -27q-59 0 -99 12.5t-66.5 32t-40.5 44.5t-21 50t-8 47.5t-1 38.5v329h68v-327q0 -37 7 -66.5t26 -50.5t52 -32.5t84 -11.5q52 0 88.5 15t60 39.5t34.5 56.5t11 65v312h68v-538h-68v76zM280 581l-92 86h83l76 -86h-67z" />
    <glyph glyph-name="uacute" unicode="&#xfa;" horiz-adv-x="611" 
d="M487 63q-28 -38 -76 -65t-119 -27q-59 0 -99 12.5t-66.5 32t-40.5 44.5t-21 50t-8 47.5t-1 38.5v329h68v-327q0 -37 7 -66.5t26 -50.5t52 -32.5t84 -11.5q52 0 88.5 15t60 39.5t34.5 56.5t11 65v312h68v-538h-68v76zM292 581h-64l66 86h79z" />
    <glyph glyph-name="ucircumflex" unicode="&#xfb;" horiz-adv-x="611" 
d="M487 63q-28 -38 -76 -65t-119 -27q-59 0 -99 12.5t-66.5 32t-40.5 44.5t-21 50t-8 47.5t-1 38.5v329h68v-327q0 -37 7 -66.5t26 -50.5t52 -32.5t84 -11.5q52 0 88.5 15t60 39.5t34.5 56.5t11 65v312h68v-538h-68v76zM423 581l-117 109l-117 -109h-84l170 167h62l170 -167
h-84z" />
    <glyph glyph-name="udieresis" unicode="&#xfc;" horiz-adv-x="611" 
d="M487 63q-28 -38 -76 -65t-119 -27q-59 0 -99 12.5t-66.5 32t-40.5 44.5t-21 50t-8 47.5t-1 38.5v329h68v-327q0 -37 7 -66.5t26 -50.5t52 -32.5t84 -11.5q52 0 88.5 15t60 39.5t34.5 56.5t11 65v312h68v-538h-68v76zM370 586v131h65v-131h-65zM177 586v131h65v-131h-65z
" />
    <glyph glyph-name="yacute" unicode="&#xfd;" horiz-adv-x="519" 
d="M281 210v-223h-66v223l-240 315h88l185 -249l189 249h84zM246 581h-64l66 86h79z" />
    <glyph glyph-name="thorn" unicode="&#xfe;" horiz-adv-x="630" 
d="M124 445q13 19 32.5 36.5t45.5 30.5t58 21t71 8q67 0 118.5 -23.5t85.5 -63t51.5 -91.5t17.5 -108q0 -64 -21 -116t-57.5 -89.5t-86.5 -58t-108 -20.5q-39 0 -71 8.5t-57.5 22.5t-45 31.5t-33.5 36.5v-285h-68v942h68v-282zM336 476q-66 0 -108 -21t-66.5 -53.5t-34 -70
t-9.5 -70.5q0 -64 20 -107t50.5 -69t68 -37t73.5 -11q40 0 77.5 13t66 40t45.5 67.5t17 96.5q0 52 -15 93.5t-42 70t-63.5 43.5t-79.5 15z" />
    <glyph glyph-name="ydieresis" unicode="&#xff;" horiz-adv-x="519" 
d="M281 210v-223h-66v223l-240 315h88l185 -249l189 249h84zM324 586v131h65v-131h-65zM131 586v131h65v-131h-65z" />
    <glyph glyph-name="Zcaron" unicode="&#x17d;" horiz-adv-x="611" 
d="M-5 -13v67l524 608h-492v65h581v-64l-524 -610h532v-66h-621zM337 743h-62l-170 167h84l117 -110l117 110h84z" />
    <glyph glyph-name="zcaron" unicode="&#x17e;" horiz-adv-x="519" 
d="M12 -13v64l381 409h-356v65h457v-52l-392 -420h405v-66h-495zM291 581h-62l-170 167h84l117 -110l117 110h84z" />
    <glyph glyph-name="minus" unicode="&#x2212;" horiz-adv-x="600" 
d="M47 221v65h506v-65h-506z" />
    <glyph glyph-name="lslash" unicode="&#x142;" 
d="M114 371v-384h-62v310l-52 -63v81l52 63v349h62v-275l52 63v-81z" />
    <glyph glyph-name="fraction" unicode="&#x2044;" horiz-adv-x="167" 
d="M-108 -29h-66l449 762h66z" />
    <glyph glyph-name="fi" unicode="&#xfb01;" horiz-adv-x="444" 
d="M331 596v131h67v-131h-67zM331 -13v538h67v-538h-67zM243 668q-7 0 -19 -1t-24 -7t-21 -19t-9 -38v-78h139v-65h-139v-473h-67v473h-113v65h113v64q0 32 5.5 58.5t20.5 45.5t41 29.5t67 10.5q17 0 37.5 -2.5t49.5 -5.5v-66q-26 5 -45.5 7t-35.5 2z" />
    <glyph glyph-name="fl" unicode="&#xfb02;" horiz-adv-x="444" 
d="M331 -13v740h67v-740h-67zM243 668q-7 0 -19 -1t-24 -7t-21 -19t-9 -38v-78h139v-65h-139v-473h-67v473h-113v65h113v64q0 32 5.5 58.5t20.5 45.5t41 29.5t67 10.5q17 0 37.5 -2.5t49.5 -5.5v-66q-26 5 -45.5 7t-35.5 2z" />
    <glyph glyph-name="dotlessi" unicode="&#x131;" 
d="M60 -13v538h46v-538h-46z" />
    <glyph glyph-name="breve" unicode="&#x2d8;" 
d="M83 591q-29 0 -55.5 6.5t-48.5 23t-36.5 43.5t-19.5 69h54q6 -26 15 -42t22.5 -25t30.5 -12.5t38 -3.5t38 3.5t30.5 12.5t22.5 25t15 42h54q-5 -42 -19.5 -69t-36.5 -43.5t-48.5 -23t-55.5 -6.5z" />
    <glyph glyph-name="dotaccent" unicode="&#x2d9;" 
d="M60 586v131h46v-131h-46z" />
    <glyph glyph-name="ring" unicode="&#x2da;" 
d="M83 556q-23 0 -43 9.5t-35 26t-23.5 38.5t-8.5 48q0 25 8.5 47.5t23.5 39.5t35 26.5t43 9.5t43 -9.5t35 -26.5t23.5 -39.5t8.5 -47.5q0 -26 -8.5 -48t-23.5 -38.5t-35 -26t-43 -9.5zM83 742q-24 0 -40.5 -18.5t-16.5 -45.5t16.5 -45t40.5 -18t40.5 18t16.5 45t-16.5 45.5
t-40.5 18.5z" />
    <glyph glyph-name="hungarumlaut" unicode="&#x2dd;" 
d="M161 581h-75l159 167h90zM-21 581h-76l159 167h90z" />
    <glyph glyph-name="ogonek" unicode="&#x2db;" 
d="M120 -203q-46 0 -70.5 23t-24.5 62q0 28 13 50t31 38t37.5 27t33.5 16h83q-75 -37 -107.5 -67t-32.5 -58q0 -20 10 -29t36 -9q23 0 39 4t39 14l20 -48q-25 -11 -52.5 -17t-54.5 -6z" />
    <glyph glyph-name="caron" unicode="&#x2c7;" 
d="M114 581h-62l-170 167h84l117 -110l117 110h84z" />
    <glyph glyph-name="Lslash" unicode="&#x141;" horiz-adv-x="574" 
d="M57 -13v224l-57 -48v78l57 48v438h69v-381l247 208v-78l-247 -208v-215h448v-66h-517z" />
    <glyph glyph-name="uni03BC" unicode="&#x3bc;" horiz-adv-x="611" 
d="M124 31v-246h-68v740h68v-327q0 -37 7 -66.5t26 -50.5t52 -32.5t84 -11.5q52 0 88.5 15t60 39.5t34.5 56.5t11 65v312h68v-538h-68v76q-28 -38 -76 -65t-119 -27q-67 0 -106.5 18.5t-61.5 41.5z" />
  </font>
</defs>
</svg>
