<?xml version="1.0" standalone="no"?>
<!DOCTYPE svg PUBLIC "-//W3C//DTD SVG 1.1//EN" "http://www.w3.org/Graphics/SVG/1.1/DTD/svg11.dtd" >
<svg xmlns="http://www.w3.org/2000/svg" xmlns:xlink="http://www.w3.org/1999/xlink" version="1.1">
<metadata>
Created by FontForge 20190801 at Tue Jul 10 13:35:33 2012
 By Jimmy Wärting
Copyright (c) 1990 Adobe Systems Incorporated.  All Rights Reserved.Helvetica is a trademark of Linotype AG and/or its subsidiaries.
</metadata>
<defs>
<font id="Lowvetica-UltraThin" horiz-adv-x="166" >
  <font-face 
    font-family="Lowvetica"
    font-weight="200"
    font-stretch="normal"
    units-per-em="1000"
    panose-1="0 0 0 0 0 0 0 0 0 0"
    ascent="800"
    descent="-200"
    x-height="512"
    cap-height="714"
    bbox="-157 -202 1162 950"
    underline-thickness="50"
    underline-position="-100"
    unicode-range="U+000D-FB02"
  />
<missing-glyph horiz-adv-x="222" 
 />
    <glyph glyph-name=".notdef" horiz-adv-x="222" 
 />
    <glyph glyph-name="NULL" horiz-adv-x="0" 
 />
    <glyph glyph-name="NULL" horiz-adv-x="0" 
 />
    <glyph glyph-name="nonmarkingreturn" unicode="&#xd;" horiz-adv-x="222" 
 />
    <glyph glyph-name="space" unicode=" " horiz-adv-x="222" 
 />
    <glyph glyph-name="numbersign" unicode="#" horiz-adv-x="454" 
d="M321 316l-20 -140h84v-15h-87l-23 -167h-17l24 167h-134l-23 -167h-17l23 167h-85v15h88l19 140h-85v16h88l23 167h16l-22 -167h133l23 167h17l-23 -167h84v-16h-86zM170 316l-20 -140h134l20 140h-134z" />
    <glyph glyph-name="dollar" unicode="$" horiz-adv-x="454" 
d="M238 -77h-16v67q-56 4 -94.5 17.5t-63 35.5t-36.5 52t-13 67h25q4 -68 45.5 -106.5t136.5 -44.5l1 238q-23 5 -41 8.5t-35 7.5q-25 6 -46.5 15t-37 23.5t-24.5 35t-9 49.5q0 58 48 91.5t144 35.5v53h16v-52q87 -6 135 -41t54 -107h-26q-3 22 -11.5 43.5t-26.5 38.5
t-48.5 29t-76.5 15v-224q23 -4 41.5 -7t35.5 -8q36 -8 64 -21q28 -14 45.5 -38t17.5 -65q0 -24 -9 -48.5t-32.5 -44.5t-63 -33t-99.5 -14v-68zM222 494q-47 -2 -78 -11t-49.5 -23.5t-26.5 -33.5t-8 -41q0 -26 10.5 -44t31.5 -30.5t51 -21t69 -15.5v220zM238 245v-233
q48 1 81 10.5t54 25.5t30 36.5t9 43.5t-6 39.5t-21 29t-39 21.5t-60 17z" />
    <glyph glyph-name="percent" unicode="%" horiz-adv-x="648" 
d="M139 -21h-19l378 535h19zM157 240q-63 0 -92.5 37.5t-29.5 98.5q0 60 30 97t92 37q63 0 92 -36.5t30 -96.5q0 -59 -30 -98t-92 -39zM493 237q-54 0 -77.5 -34t-23.5 -83q0 -25 5.5 -46.5t17.5 -38t31.5 -26t46.5 -9.5t46.5 9.5t32 25.5t18 37.5t5.5 45.5q0 25 -5.5 46.5
t-17.5 37.5t-31.5 25.5t-46.5 9.5h-1zM158 493q-54 0 -77.5 -34t-23.5 -82q0 -25 5.5 -47t17.5 -38.5t31 -26t46 -9.5q28 0 47.5 9.5t32 26t18 38t5.5 45.5q0 25 -5.5 46.5t-17.5 37.5t-31.5 25t-47.5 9zM493 -17q-63 0 -92.5 37.5t-29.5 98.5q0 60 30 97t92 37
q63 0 92 -36.5t30 -96.5q0 -59 -30.5 -98t-91.5 -39z" />
    <glyph glyph-name="ampersand" unicode="&#x26;" horiz-adv-x="538" 
d="M496 -1l-74 73q-48 -48 -95.5 -66.5t-109.5 -18.5q-49 0 -84 13t-58 34.5t-34 49t-11 56.5q0 31 13 54t34.5 41t50 32t60.5 26q-14 16 -21.5 24t-13.5 15q-17 20 -29.5 42t-12.5 50q0 14 5.5 31.5t19.5 32.5t37 25t59 10q49 0 83 -25.5t34 -73.5q0 -26 -11.5 -46
t-28.5 -35.5t-39 -28.5t-43 -23l193 -183q15 24 22.5 49.5t9.5 48.5h25q-2 -31 -13 -60t-28 -54l96 -93h-36zM231 501q-48 0 -71 -23.5t-23 -51.5q0 -17 7.5 -33.5t18.5 -32t24.5 -29.5t25.5 -25q18 8 37.5 18t36 23.5t27 31.5t10.5 42t-10 39.5t-24 24.5t-30 12.5t-29 3.5z
M192 293v-19q-29 -11 -53.5 -23.5t-43 -28.5t-29 -35.5t-10.5 -45.5q0 -33 13 -58t35.5 -41.5t52.5 -24.5t64 -8q38 0 68 8t52.5 20.5t38.5 26t25 24.5z" />
    <glyph glyph-name="quotesingle" unicode="'" horiz-adv-x="222" 
d="M91 484v230h40v-230h-40z" />
    <glyph glyph-name="parenleft" unicode="(" horiz-adv-x="207" 
d="M170 -69q-59 75 -93.5 153.5t-34.5 168.5t34.5 168.5t93.5 154.5h21q-29 -43 -51 -80.5t-36.5 -75t-22 -77.5t-7.5 -89t7.5 -89.5t22 -78t36.5 -75t52 -80.5h-22z" />
    <glyph glyph-name="parenright" unicode=")" horiz-adv-x="207" 
d="M16 -70q29 43 51 80.5t36.5 75t22 78t7.5 89.5t-7.5 89.5t-22 78t-36.5 75t-51 80.5h22q59 -76 93.5 -154.5t33.5 -167.5q-1 -90 -35 -168.5t-92 -154.5z" />
    <glyph glyph-name="asterisk" unicode="*" horiz-adv-x="408" 
d="M214 539l104 -123l-14 -10l-100 119l-100 -119l-14 10l104 123l-151 55l6 16l148 -51v155h14v-155l148 51l6 -16z" />
    <glyph glyph-name="plus" unicode="+" horiz-adv-x="600" 
d="M310 243v-243h-20v243h-243v20h243v243h20v-243h243v-20h-243z" />
    <glyph glyph-name="comma" unicode="," horiz-adv-x="222" 
d="M67 -110q16 7 26 18.5t15.5 25t7 27t1.5 24.5v27h-25v88h45v-99q0 -43 -16 -75t-54 -49v13z" />
    <glyph glyph-name="hyphen" unicode="-" horiz-adv-x="407" 
d="M75 257v26h257v-26h-257z" />
    <glyph glyph-name="period" unicode="." horiz-adv-x="222" 
d="M95 100h32v-100h-32v100z" />
    <glyph glyph-name="slash" unicode="/" horiz-adv-x="285" 
d="M14 -17h-25l282 534h24z" />
    <glyph glyph-name="zero" unicode="0" horiz-adv-x="454" 
d="M230 -9q-60 0 -101 22t-66.5 59t-36.5 85t-11 100t11 100t36 85t65.5 59t99.5 22q61 0 102.5 -22t67 -58.5t36.5 -85t11 -100.5q0 -53 -10.5 -101t-35.5 -85t-66 -58.5t-102 -21.5zM230 504q-56 0 -92.5 -21.5t-58 -57t-31 -79.5t-9.5 -89t8.5 -89t30.5 -79t59 -57
t93 -22q57 0 94 21.5t58.5 56t30 79t8.5 91.5q0 46 -8.5 90t-30 78.5t-58.5 56t-94 21.5z" />
    <glyph glyph-name="one" unicode="1" horiz-adv-x="301" 
d="M187 0v465q-45 -34 -88 -49t-87 -20v21q23 2 49.5 9.5t51 19.5t45 28.5t32.5 37.5h24v-512h-27z" />
    <glyph glyph-name="two" unicode="2" horiz-adv-x="461" 
d="M25 0h-2l11 -12q4 39 15 65.5t31 48t52 42t79 46.5q16 9 33.5 18t35.5 20q17 11 33.5 22.5t30.5 23.5q22 20 33 43.5t11 55.5q1 63 -41.5 96t-119.5 33q-82 0 -118.5 -41t-38.5 -115h-26q4 95 51.5 136.5t137.5 41.5q93 0 137 -42t43 -108q0 -35 -9.5 -59.5t-32.5 -47.5
q-22 -21 -58.5 -43.5t-91.5 -54.5q-17 -10 -42 -24t-48 -31t-42.5 -38.5t-24.5 -53.5h361v-22h-400z" />
    <glyph glyph-name="three" unicode="3" horiz-adv-x="461" 
d="M258 286q46 -12 79 -25.5t54 -31.5t30.5 -41.5t9.5 -55.5q0 -31 -12 -57t-36.5 -45.5t-61.5 -30.5t-88 -11q-92 0 -145.5 41.5t-58.5 135.5h26q3 -83 51 -119.5t132 -35.5q27 0 57 5t54.5 19.5t40.5 39.5t16 66q0 42 -19 66.5t-48 37t-64 15.5t-67 3l1 22q34 0 67 3
t59 13.5t41.5 30.5t15.5 55q0 34 -13 56t-34 35.5t-48.5 19t-56.5 5.5q-74 1 -120.5 -33.5t-49.5 -111.5h-25q6 89 58 127.5t136 38.5q85 0 131.5 -35t46.5 -98q0 -46 -21 -70t-56 -34h-82z" />
    <glyph glyph-name="four" unicode="4" horiz-adv-x="459" 
d="M337 133v-133h-25v133h-287v30l283 349h29v-357h100v-22h-100zM312 487l-266 -332h266v332z" />
    <glyph glyph-name="five" unicode="5" horiz-adv-x="459" 
d="M85 309l14 -15q28 23 65 34t75 11q44 0 79 -12.5t59.5 -35t37 -54t12.5 -68.5q0 -45 -15 -78.5t-41.5 -56t-63.5 -34t-82 -11.5q-39 0 -73 10t-59.5 30.5t-41.5 50.5t-19 70h25q9 -74 55.5 -106t117.5 -32q80 1 126 39.5t45 114.5q0 27 -9.5 54t-30 49t-53.5 35.5
t-79 13.5q-56 0 -95 -21.5t-59 -48.5h-28l57 264h296v-21h-276l-41 -186z" />
    <glyph glyph-name="six" unicode="6" horiz-adv-x="461" 
d="M231 -13q-58 0 -97 19t-62 52.5t-33 78.5t-10 98q0 59 8.5 111.5t31.5 91.5t65.5 62t111.5 23q73 0 118.5 -34t53.5 -94h-26q-5 30 -19 50t-35 33t-46.5 18.5t-52.5 5.5q-58 0 -94 -21t-56.5 -55t-27.5 -77.5t-7 -87.5v-42q32 59 75 89t107 30q41 0 76.5 -11.5t61 -33
t40 -53.5t14.5 -73q0 -38 -13.5 -71t-39 -57t-62 -38t-82.5 -14zM239 316q-42 0 -75 -11.5t-55 -31.5t-33 -47.5t-11 -60.5q0 -21 6.5 -48t25.5 -51.5t53 -41.5t88 -17q36 0 66.5 11t52 31.5t34 50t12.5 65.5q0 32 -11 59.5t-31.5 48t-51 32t-69.5 11.5h-1z" />
    <glyph glyph-name="seven" unicode="7" horiz-adv-x="419" 
d="M117 -1q23 139 85.5 261.5t178.5 230.5h-359v21h378v-28q-56 -56 -97.5 -109t-72 -110t-50.5 -121.5t-32 -143.5z" />
    <glyph glyph-name="eight" unicode="8" horiz-adv-x="461" 
d="M231 -12q-105 0 -156 39.5t-51 109.5q0 32 10.5 55t29.5 39.5t45.5 27.5t58.5 19q-37 12 -60.5 25t-36.5 28t-17.5 31.5t-4.5 35.5q0 37 16.5 61t42.5 38.5t58.5 19.5t65.5 5q32 0 64.5 -6t58 -19.5t41.5 -37.5t16 -60q0 -19 -4.5 -36t-17.5 -32t-36 -28t-60 -25
q32 -9 58.5 -20t45 -27.5t29 -39.5t10.5 -54q1 -70 -50.5 -109.5t-155.5 -39.5zM230 501q-27 0 -55 -4.5t-50 -16.5t-36 -33.5t-14 -55.5q0 -33 14.5 -53t37.5 -31t50 -14.5t53 -3.5t53.5 4.5t50 15.5t37.5 31.5t15 53.5t-14.5 53.5t-37.5 32.5t-50.5 16.5t-53.5 4.5z
M230 267q-91 0 -135.5 -34t-45.5 -95q0 -57 44 -93t138 -35q28 0 60 5t58.5 19t44 38.5t17.5 64.5q0 62 -44 96t-136 34h-1z" />
    <glyph glyph-name="nine" unicode="9" horiz-adv-x="461" 
d="M214 -9q-73 0 -118.5 34t-53.5 94l25 -1q4 -30 18.5 -50t35.5 -32.5t46.5 -18t52.5 -5.5q58 0 94 21t56.5 55t27.5 77.5t7 87.5v42q-32 -59 -75 -89.5t-108 -30.5q-41 0 -76 11t-60.5 33t-39.5 54.5t-14 73.5q0 38 13.5 71t39 57t62 37.5t82.5 13.5q58 0 97 -19t62 -52.5
t33 -78.5t10 -97q0 -59 -8.5 -111.5t-32 -91.5t-65.5 -62t-111 -23zM221 505q-72 0 -118 -42t-47 -114q0 -32 11 -60t32 -48t51.5 -31.5t69.5 -11.5q42 0 75 11t55.5 31t33.5 48t11 61q0 21 -7 48t-26 51t-53 40.5t-88 16.5z" />
    <glyph glyph-name="colon" unicode=":" horiz-adv-x="222" 
d="M85 412v83h52v-83h-52zM85 0v83h52v-83h-52z" />
    <glyph glyph-name="semicolon" unicode=";" horiz-adv-x="222" 
d="M92 412v83h45v-83h-45zM67 -112q16 7 26 18t15.5 23.5t7 25t1.5 23.5v26h-25v83h45v-93q0 -41 -16 -71t-54 -47v12z" />
    <glyph glyph-name="less" unicode="&#x3c;" horiz-adv-x="420" 
d="M27 162v33l366 170v-21l-355 -167l355 -167v-20z" />
    <glyph glyph-name="equal" unicode="=" horiz-adv-x="600" 
d="M47 348v22h506v-22h-506zM47 136v22h506v-22h-506z" />
    <glyph glyph-name="greater" unicode="&#x3e;" horiz-adv-x="420" 
d="M27 -10v20l355 167l-355 167v21l366 -173v-33z" />
    <glyph glyph-name="question" unicode="?" horiz-adv-x="441" 
d="M303 256q-22 -14 -37 -25t-24 -21.5t-12.5 -23.5t-3.5 -32v-20h-26q-2 23 0 43.5t16 39.5q10 12 28 25q9 7 20 14.5t24 15.5q25 16 41.5 29t26.5 26t14 27t4 33q0 31 -13.5 53t-35 35.5t-49.5 20t-56 6.5q-75 0 -118 -33t-46 -109h-26q2 43 16 74t38.5 50.5t58 29
t73.5 9.5q81 0 132 -33t51 -101q0 -44 -21.5 -72t-72.5 -60zM197 -1v64h30v-64h-30z" />
    <glyph glyph-name="at" unicode="@" horiz-adv-x="800" 
d="M536 136q-28 0 -46 16.5t-20 56.5h-17q-27 -38 -62.5 -55.5t-70.5 -17.5q-25 0 -47.5 10t-39 28.5t-26 45.5t-9.5 60q0 54 17.5 107t48.5 95t73.5 68t92.5 26q38 0 69 -23.5t37 -66.5h18l24 69h26l-100 -304q-2 -8 -4 -14.5t-4 -12.5q-5 -15 -5 -26q0 -21 14.5 -31
t37.5 -10q35 0 72 19t67.5 54t50 83t19.5 107q0 63 -25 116.5t-69 91.5t-104 59.5t-131 21.5q-86 0 -155 -27.5t-118 -75.5t-75.5 -112t-26.5 -137q0 -72 27.5 -136t75 -112t111.5 -76t136 -28q34 0 71 4t72 14t67 27t57 42h21q-55 -62 -128 -85t-158 -23q-77 0 -145 29
t-118.5 79.5t-80 118.5t-29.5 146q0 77 28.5 145t80 118.5t123.5 80t159 29.5q81 0 146.5 -23.5t112 -64t71.5 -95.5t25 -117q0 -68 -24 -122.5t-59.5 -92.5t-77 -58.5t-76.5 -20.5zM426 561q-47 0 -85.5 -28t-65.5 -70t-42 -90t-15 -88q0 -60 33 -97.5t83 -37.5
q40 0 75.5 30t61 73.5t40.5 92t15 85.5q0 36 -8 61t-21.5 40.5t-31.5 22t-39 6.5z" />
    <glyph glyph-name="A" unicode="A" horiz-adv-x="686" 
d="M660 0l-108 237h-418l-108 -237h-31l328 714h40l328 -714h-31zM343 696l-200 -439h400z" />
    <glyph glyph-name="B" unicode="B" horiz-adv-x="722" 
d="M60 0v714h388q103 0 153.5 -45t50.5 -126q0 -26 -6.5 -50.5t-23 -46t-44 -38t-70.5 -25.5v-20q54 -5 87.5 -24t51.5 -44.5t24 -53t6 -50.5q0 -28 -9.5 -61t-35.5 -62t-72 -48.5t-120 -19.5h-380zM87 693v-312h339q15 0 48 2.5t66.5 17.5t59 47.5t25.5 91.5q0 57 -20.5 88
t-51.5 45.5t-67 17t-67 2.5h-332zM87 360v-339h343q10 0 30 1t44.5 6t50 15.5t47 29.5t35 49t13.5 73q0 61 -24 94.5t-59.5 49t-76 18.5t-72.5 3h-331z" />
    <glyph glyph-name="C" unicode="C" horiz-adv-x="796" 
d="M409 -16q-82 0 -151.5 25t-120.5 73t-79.5 117t-28.5 158q0 65 22.5 131.5t69 120t118.5 87.5t170 34q63 0 118 -14.5t98.5 -43t74 -70.5t45.5 -98h-26q-15 53 -46 91.5t-72.5 64t-90.5 37.5t-101 12q-81 0 -146 -28.5t-111 -76.5t-71 -112t-25 -135t22.5 -135t67 -112
t110.5 -76.5t153 -28.5q61 0 115 17t96 49.5t71 79.5t41 107h26q-8 -50 -34 -99t-70 -88t-105.5 -63t-139.5 -24z" />
    <glyph glyph-name="D" unicode="D" horiz-adv-x="759" 
d="M60 0v714h334q64 0 122 -16.5t102 -57.5t70 -110t26 -173q0 -79 -20 -144.5t-60.5 -113t-102.5 -73.5t-145 -26h-326zM87 693v-672h308q64 0 117.5 20t92.5 61.5t60.5 104.5t21.5 150q0 89 -22 153t-62 104.5t-96 59.5t-123 19h-297z" />
    <glyph glyph-name="E" unicode="E" horiz-adv-x="648" 
d="M60 0v714h564v-21h-537v-312h515v-21h-515v-339h543v-21h-570z" />
    <glyph glyph-name="F" unicode="F" horiz-adv-x="593" 
d="M87 693v-312h464v-21h-464v-360h-27v714h518v-21h-491z" />
    <glyph glyph-name="G" unicode="G" horiz-adv-x="833" 
d="M752 0v181h-19q-21 -50 -53.5 -87t-73 -61.5t-88 -36.5t-99.5 -12q-82 0 -151.5 25t-120.5 73t-79.5 117t-28.5 158q0 65 22.5 131.5t69 120t118.5 87.5t170 34q64 0 119.5 -15t98.5 -43.5t73 -71t45 -96.5h-26q-14 51 -43 89.5t-70 64t-91.5 38.5t-105.5 13
q-81 0 -146 -28.5t-111 -76.5t-71 -112t-25 -135t22.5 -135t67 -112t110.5 -76.5t153 -28.5q72 0 130.5 21.5t101 62.5t67 100.5t29.5 135.5h-296v21h322v-346h-21z" />
    <glyph glyph-name="H" unicode="H" horiz-adv-x="759" 
d="M672 0v366h-585v-366h-27v714h27v-327h585v327h27v-714h-27z" />
    <glyph glyph-name="I" unicode="I" 
d="M71 714h25v-714h-25v714z" />
    <glyph glyph-name="J" unicode="J" horiz-adv-x="537" 
d="M253 -16q-45 0 -86 10.5t-73 36t-51 68.5t-19 108v7h27v-7q0 -25 5.5 -60t26 -66.5t60.5 -53.5t110 -22q101 0 149 52t48 150v507h27v-503q0 -116 -59.5 -171.5t-164.5 -55.5z" />
    <glyph glyph-name="K" unicode="K" horiz-adv-x="704" 
d="M668 0l-383 405l-198 -157v-248h-27v714h27v-433l544 433h42l-367 -292l399 -422h-37z" />
    <glyph glyph-name="L" unicode="L" horiz-adv-x="574" 
d="M60 0v714h27v-693h487v-21h-514z" />
    <glyph glyph-name="M" unicode="M" horiz-adv-x="962" 
d="M870 0v669h-18l-354 -669h-34l-354 669h-18v-669h-27v714h54l362 -687l362 687h54v-714h-27z" />
    <glyph glyph-name="N" unicode="N" horiz-adv-x="759" 
d="M654 0l-550 669h-17v-669h-27v714h45l550 -669h17v669h27v-714h-45z" />
    <glyph glyph-name="O" unicode="O" horiz-adv-x="816" 
d="M408 -16q-72 0 -128.5 18t-98.5 47.5t-71 68t-47 80t-26 83t-8 76.5t8 76.5t26 83t47 80t71 68t98 47.5t129 18q72 0 128.5 -18t98.5 -47.5t71 -68t47 -80t26 -83t8 -76.5t-8 -76.5t-26 -83t-47 -80t-71 -68t-98.5 -47.5t-128.5 -18zM408 709q-85 0 -150.5 -29.5
t-110.5 -79t-68 -113t-23 -130.5q0 -68 23 -131t68 -112.5t110.5 -79t150.5 -29.5t150.5 29.5t110.5 79t68 112.5t23 131q0 67 -23 130.5t-68 113t-110.5 79t-150.5 29.5z" />
    <glyph glyph-name="P" unicode="P" horiz-adv-x="667" 
d="M87 323v-323h-27v714h375q38 0 76 -8t69 -29t50 -58.5t19 -97.5q0 -44 -12.5 -80.5t-39.5 -62.5t-69 -40.5t-101 -14.5h-340zM87 693v-349h339q35 0 70 8t63 27.5t45.5 53.5t17.5 86q0 43 -10.5 73t-28 49t-39.5 29.5t-45 15.5t-45 6t-39 1h-328z" />
    <glyph glyph-name="Q" unicode="Q" horiz-adv-x="816" 
d="M772 -28l-13 -19l-131 93q-45 -29 -98 -45t-122 -16q-72 0 -128.5 18t-98.5 47.5t-71 68t-47 80t-26 82.5t-8 76t8 76.5t26 83t47 80t71 68t98 47.5t129 18q72 0 128.5 -18t98.5 -47.5t71 -68t47 -80t26 -83t8 -76.5q0 -33 -7 -71t-23.5 -77.5t-43.5 -77.5t-66 -71z
M408 709q-85 0 -150.5 -29.5t-110.5 -78.5t-68 -112.5t-23 -131.5t23 -131t68 -112.5t110.5 -79t150.5 -29.5q55 0 103 13.5t96 42.5l-122 86l13 18l128 -91q69 56 101.5 129.5t32.5 153.5q0 68 -23 131.5t-68 112.5t-110.5 78.5t-150.5 29.5z" />
    <glyph glyph-name="R" unicode="R" horiz-adv-x="704" 
d="M642 0q-3 5 -5.5 16t-4.5 30t-3.5 47t-2.5 68q-1 50 -11.5 83.5t-33.5 53.5t-61 28t-94 8h-339v-334h-27v714h367q52 0 96 -8.5t76 -29.5t49.5 -56.5t17.5 -89.5q0 -27 -8.5 -54t-27 -51t-47 -42t-68.5 -27v-19q70 -9 103.5 -48t34.5 -96q1 -84 4.5 -127t11.5 -66h-27z
M87 693v-338h332q12 0 33 1t45.5 6t49.5 15.5t45.5 30.5t33.5 50.5t13 74.5q0 48 -17.5 79t-47 49t-67 25t-76.5 7h-344z" />
    <glyph glyph-name="S" unicode="S" horiz-adv-x="667" 
d="M353 -16q-87 0 -148.5 17t-100 48.5t-57 75.5t-19.5 97h27q4 -103 74.5 -160t218.5 -57q69 0 118 14t80 37.5t45.5 55t14.5 66.5q0 34 -10 58.5t-33 43.5t-62.5 33t-97.5 26l-137 29q-60 13 -101 28.5t-66.5 36.5t-36.5 49.5t-11 67.5q0 38 16.5 71t50 57t84 38t118.5 14
q135 0 212.5 -48.5t85.5 -154.5h-27q-4 33 -17.5 65.5t-43 58.5t-77.5 42t-120 16q-68 0 -115.5 -12t-77 -33t-43 -50.5t-13.5 -64.5q0 -32 8.5 -56t29.5 -42.5t56 -32.5t89 -24l152 -30q55 -11 96.5 -25.5t69 -36t41 -51t13.5 -70.5q0 -35 -13 -70t-45.5 -63t-87.5 -46
t-140 -18z" />
    <glyph glyph-name="T" unicode="T" horiz-adv-x="592" 
d="M309 693v-693h-26v693h-298v21h622v-21h-298z" />
    <glyph glyph-name="U" unicode="U" horiz-adv-x="740" 
d="M370 -16q-160 0 -238 70t-78 208v452h27v-450q0 -62 15.5 -110t50 -81t89.5 -50.5t134 -17.5t134 17.5t89.5 50.5t50 81t15.5 110v450h27v-452q0 -138 -78 -208t-238 -70z" />
    <glyph glyph-name="V" unicode="V" horiz-adv-x="668" 
d="M354 0h-40l-317 714h31l306 -690l306 690h31z" />
    <glyph glyph-name="W" unicode="W" horiz-adv-x="1018" 
d="M796 0h-44l-235 669h-16l-235 -669h-44l-233 714h31l217 -669h16l234 669h44l234 -669h16l217 669h31z" />
    <glyph glyph-name="X" unicode="X" horiz-adv-x="648" 
d="M609 0l-285 343l-288 -343h-33l303 363l-292 351h37l273 -330l278 330h33l-292 -351l302 -363h-36z" />
    <glyph glyph-name="Y" unicode="Y" horiz-adv-x="668" 
d="M347 302v-302h-26v302l-330 412h40l303 -388l310 388h33z" />
    <glyph glyph-name="Z" unicode="Z" horiz-adv-x="611" 
d="M-5 0v36l592 657h-558v21h579v-33l-593 -660h601v-21h-621z" />
    <glyph glyph-name="bracketleft" unicode="[" horiz-adv-x="207" 
d="M61 -133v645h128v-21h-100v-603h100v-21h-128z" />
    <glyph glyph-name="backslash" unicode="\" horiz-adv-x="285" 
d="M268 -12l-281 534h25l281 -534h-25z" />
    <glyph glyph-name="bracketright" unicode="]" horiz-adv-x="207" 
d="M17 -133v21h100v603h-100v21h128v-645h-128z" />
    <glyph glyph-name="asciicircum" unicode="^" horiz-adv-x="420" 
d="M376 170l-166 317l-166 -317h-20l170 329h34l168 -329h-20z" />
    <glyph glyph-name="underscore" unicode="_" horiz-adv-x="500" 
d="M0 -125v50h500v-50h-500z" />
    <glyph glyph-name="grave" unicode="`" 
d="M110 593l-62 61h30l52 -61h-20z" />
    <glyph glyph-name="a" unicode="a" horiz-adv-x="593" 
d="M553 -10q-20 0 -31 6.5t-16.5 20.5t-6.5 36t-1 54h-18q-22 -41 -53.5 -65.5t-66 -37t-68 -16.5t-59.5 -4q-11 0 -30.5 0.5t-42.5 4.5t-46.5 13t-43 26t-32 43t-12.5 65q0 37 14.5 63t40 42.5t60.5 25t75 11.5l186 12q21 1 38 4.5t28.5 12.5t17.5 25.5t6 43.5
q0 30 -10 54.5t-34 41.5t-63.5 26t-99.5 9q-53 0 -89.5 -8t-60.5 -25.5t-37.5 -43.5t-19.5 -62h-27q7 44 23.5 74.5t44.5 49.5t69 27.5t98 8.5q116 0 174.5 -31.5t58.5 -113.5v-298q0 -18 1.5 -31.5t6 -23t13.5 -14.5t25 -5t36 5v-20q-18 -6 -48 -6zM492 298h-17
q-9 -10 -28 -18.5t-53 -10.5l-179 -12q-33 -2 -62.5 -9t-51.5 -20.5t-35 -36t-13 -55.5q0 -45 20 -71t48.5 -39.5t60 -17t54.5 -3.5q40 0 85 9.5t83 31.5t63 57.5t25 86.5v108z" />
    <glyph glyph-name="b" unicode="b" horiz-adv-x="593" 
d="M57 0v512h341q74 0 110.5 -32t36.5 -94q0 -24 -7 -45t-21 -37.5t-34 -26t-47 -9.5q37 0 62 -12.5t39 -31.5t20 -41t6 -41q0 -24 -6.5 -49.5t-25.5 -46t-52 -33.5t-86 -13h-336zM82 492v-215h300h13t19 1q46 5 76 30t30 78q0 40 -14.5 61.5t-36 31.5t-46 11.5t-45.5 1.5
h-296zM82 255v-234h304q5 0 14 -0.5t20 1.5q25 3 46.5 11t37.5 22.5t25 36t9 50.5q0 41 -16 64t-40.5 34t-52.5 13t-52 2h-295z" />
    <glyph glyph-name="c" unicode="c" horiz-adv-x="611" 
d="M315 -16q-63 0 -116.5 19.5t-91.5 54.5t-59.5 84t-21.5 109q0 67 23 119t62.5 87t92 53t111.5 18q57 0 103.5 -14t79.5 -37.5t53 -52.5t25 -59h-27q-5 27 -24.5 52.5t-50.5 45.5t-71.5 32t-87.5 12q-65 0 -114 -21.5t-82 -57.5t-49.5 -82t-16.5 -95q0 -34 13 -76.5
t43.5 -80t80.5 -63.5t125 -26q40 0 78.5 9.5t71 29.5t56.5 50t35 72h26q-12 -47 -37 -81t-60.5 -56.5t-78.5 -33.5t-91 -11z" />
    <glyph glyph-name="d" unicode="d" horiz-adv-x="587" 
d="M57 1v512h271q45 0 86.5 -12t73 -41.5t50.5 -78.5t19 -124q0 -57 -14.5 -104t-43.5 -80.5t-73 -52.5t-104 -19h-265zM82 492v-470h246q44 0 81.5 14t64.5 43t42 73t15 105q0 63 -15.5 107.5t-43 73t-66.5 41.5t-85 13h-239z" />
    <glyph glyph-name="e" unicode="e" horiz-adv-x="611" 
d="M53 256q1 -56 19 -102t51.5 -79t82 -51.5t110.5 -18.5q61 0 102.5 16.5t68 40t40.5 49.5t22 45h26q-33 -90 -98.5 -131t-165.5 -41q-66 0 -119 19t-89.5 55t-56.5 87t-20 115q0 40 14 87t47 87t88 67t137 27q66 0 117 -20t87 -56t56 -86t22 -110h-541zM307 507
q-107 0 -172.5 -61t-83.5 -169h511q-8 61 -31.5 104.5t-57 71.5t-76.5 41t-90 13z" />
    <glyph glyph-name="f" unicode="f" horiz-adv-x="464" 
d="M80 490v-215h330v-21h-330v-255h-25v512h374v-21h-349z" />
    <glyph glyph-name="g" unicode="g" horiz-adv-x="617" 
d="M561 -6v102l-2 -6l-1 -1l1 1l-16 12q-17 -30 -41.5 -52t-54.5 -37t-64 -22.5t-69 -7.5q-60 0 -112 18.5t-91 53t-61.5 85t-22.5 115.5q0 47 18 95.5t54 88t90 64.5t126 25q46 0 87.5 -11t75 -32.5t57.5 -53t36 -73.5h-26q-10 37 -32.5 65t-53.5 46t-68.5 27t-76.5 9
q-57 0 -105 -20t-82.5 -54t-54 -79.5t-19.5 -96.5t18 -96.5t51.5 -80t82 -54.5t110.5 -20q50 0 92.5 15t74.5 43.5t51.5 70.5t24.5 96h-224v21h249v-256h-22z" />
    <glyph glyph-name="h" unicode="h" horiz-adv-x="611" 
d="M530 1v259h-447v-259h-25v512h25v-232h447v232h25v-512h-25z" />
    <glyph glyph-name="i" unicode="i" 
d="M71 513h25v-513h-25v513z" />
    <glyph glyph-name="j" unicode="j" horiz-adv-x="424" 
d="M216 -16q-32 0 -63.5 7.5t-56.5 26t-40.5 49.5t-15.5 78v8h25v-8q0 -18 5.5 -42t22 -46t46 -37t77.5 -15q69 0 108.5 35.5t39.5 104.5v362h25v-359q0 -83 -48.5 -123.5t-124.5 -40.5z" />
    <glyph glyph-name="k" unicode="k" horiz-adv-x="556" 
d="M509 0l-270 305l-156 -115v-190h-27v510h27v-291l394 293h36l-254 -189l287 -323h-37z" />
    <glyph glyph-name="l" unicode="l" horiz-adv-x="448" 
d="M38 0v512h25v-491h387v-21h-412z" />
    <glyph glyph-name="m" unicode="m" horiz-adv-x="964" 
d="M881 0v335q0 34 -10 65.5t-31.5 55t-56 37.5t-82.5 14q-100 0 -153 -50t-53 -140v-317h-26v344q0 75 -43 119t-138 44q-45 0 -82.5 -13t-64.5 -38.5t-42.5 -63t-15.5 -85.5v-307h-27v511h27v-90h18q31 53 83.5 80t112.5 27q46 0 79 -10t56.5 -28t38 -44t25.5 -59
q35 75 85 108t119 33q110 0 159 -46.5t49 -131.5v-350h-27z" />
    <glyph glyph-name="n" unicode="n" horiz-adv-x="611" 
d="M528 0v316q0 42 -9.5 77.5t-33.5 60.5t-64 39t-101 14t-105.5 -17.5t-74 -46.5t-43.5 -66.5t-14 -76.5v-300h-27v511h27v-106h19q13 25 32 47t46 39t62 27t79 10q58 0 98 -11t66 -29.5t40.5 -41.5t21 -46t7.5 -45t1 -37v-318h-27z" />
    <glyph glyph-name="o" unicode="o" horiz-adv-x="630" 
d="M315 -16q-69 0 -123 22t-90.5 59.5t-56 87t-19.5 103.5t19.5 103t56 86.5t90.5 60t123 22.5t123 -22.5t90.5 -60t56 -86.5t19.5 -103t-19.5 -103.5t-56 -87t-90.5 -59.5t-123 -22zM315 507q-65 0 -114 -21.5t-82 -56.5t-49.5 -80t-16.5 -93t16.5 -93t49.5 -80t82 -56.5
t114 -21.5t114 21.5t82 56.5t49.5 80t16.5 93t-16.5 93t-49.5 80t-82 56.5t-114 21.5z" />
    <glyph glyph-name="p" unicode="p" horiz-adv-x="593" 
d="M82 229v-229h-25v512h343q27 0 54.5 -5.5t49.5 -21t35.5 -43t13.5 -70.5q0 -64 -37.5 -103.5t-120.5 -39.5h-313zM82 491v-241h312q24 0 48 5.5t43.5 19t31.5 36.5t12 59q0 45 -15.5 69.5t-37.5 36t-46.5 13.5t-43.5 2h-304z" />
    <glyph glyph-name="q" unicode="q" horiz-adv-x="630" 
d="M591 -21l-91 63q-39 -28 -84.5 -43t-100.5 -15q-69 0 -123 22t-90.5 59.5t-56 87t-19.5 103.5t19.5 103t56 86.5t90.5 60t123 22.5t123 -22.5t90.5 -60t56 -86.5t19.5 -103t-20.5 -104t-63.5 -94l84 -60zM315 507q-65 0 -114 -21.5t-82 -56.5t-49.5 -80t-16.5 -93
q0 -47 16.5 -92.5t49 -80.5t81.5 -56.5t114 -21.5q47 0 86.5 12.5t81.5 38.5l-89 62l13 19l93 -66q41 41 59.5 88t18.5 97q0 48 -16.5 93t-49.5 80t-82 56.5t-114 21.5z" />
    <glyph glyph-name="r" unicode="r" horiz-adv-x="380" 
d="M308 492q-56 0 -98 -17.5t-70 -47t-42 -68.5t-14 -81v-278h-28v512h28v-126h20q28 72 85 102.5t135 30.5q17 0 30 -4v-26q-17 3 -46 3z" />
    <glyph glyph-name="s" unicode="s" horiz-adv-x="537" 
d="M271 -16q-53 0 -97 9t-76 28.5t-52 50t-24 74.5h27q3 -22 11.5 -47t33 -46t69.5 -34.5t121 -13.5q106 0 155.5 31.5t49.5 95.5q0 26 -9 45t-25 31.5t-37 20t-45 10.5l-188 25q-24 3 -49.5 11t-45.5 22t-33 36.5t-13 54.5q0 20 8.5 44.5t32 45.5t65.5 35.5t108 14.5
q69 0 113 -13t70 -34.5t38 -49t15 -55.5h-27q-8 68 -58.5 99.5t-153.5 31.5q-50 0 -85 -9t-57 -25t-32 -37t-10 -45q0 -25 9 -43t25 -30t37 -18.5t45 -9.5l170 -22q75 -10 117 -40t42 -96q0 -50 -25 -79t-62 -44.5t-80 -20t-78 -4.5z" />
    <glyph glyph-name="t" unicode="t" horiz-adv-x="487" 
d="M257 491v-491h-25v491h-232v21h487v-21h-230z" />
    <glyph glyph-name="u" unicode="u" horiz-adv-x="611" 
d="M528 1v106h-19q-13 -25 -32 -47t-46 -39t-62 -27t-79 -10q-58 0 -98 11.5t-66 29.5t-40.5 41t-21 46t-7.5 44.5t-1 37.5v318h27v-316q0 -42 9.5 -77.5t33.5 -60.5t64 -39t101 -14t105.5 17.5t74 46.5t43.5 66.5t14 76.5v300h27v-511h-27z" />
    <glyph glyph-name="v" unicode="v" horiz-adv-x="556" 
d="M295 0h-34l-253 512h31l239 -499l239 499h31z" />
    <glyph glyph-name="w" unicode="w" horiz-adv-x="870" 
d="M666 0h-40l-191 497l-191 -497h-40l-205 512h31l197 -490l185 490h46l192 -490l190 490h31z" />
    <glyph glyph-name="x" unicode="x" horiz-adv-x="537" 
d="M497 0l-231 249l-232 -249h-32l248 267l-226 245h38l207 -224l208 224h32l-224 -241l250 -271h-38z" />
    <glyph glyph-name="y" unicode="y" horiz-adv-x="500" 
d="M260 216v-216h-24v216l-237 296h36l213 -273l217 273h32z" />
    <glyph glyph-name="z" unicode="z" horiz-adv-x="519" 
d="M12 0v33l449 458h-422v21h453v-21l-461 -470h476v-21h-495z" />
    <glyph glyph-name="braceleft" unicode="{" horiz-adv-x="207" 
d="M89 58q0 20 -2.5 40t-8.5 36.5t-17.5 28.5t-29.5 15l1 23q18 3 29.5 15t17.5 28.5t8.5 36.5t2.5 40l-1 110q-1 48 16.5 64.5t49.5 16.5h42v-21h-34q-14 0 -23 -2.5t-14 -10.5t-7 -22.5t-2 -37.5v-109q0 -26 -4.5 -45t-12 -32.5t-18.5 -23.5t-24 -17q13 -8 23.5 -18
t18 -24.5t12 -33.5t4.5 -46l1 -108q0 -23 2 -37.5t7.5 -22.5t14 -10.5t22.5 -2.5h34v-21h-42q-32 0 -49 16.5t-17 65.5v109v0z" />
    <glyph glyph-name="bar" unicode="|" horiz-adv-x="155" 
d="M67 -12v534h20v-534h-20z" />
    <glyph glyph-name="braceright" unicode="}" horiz-adv-x="207" 
d="M117 -51q0 -49 -17 -65.5t-49 -16.5h-42v21h34q14 0 22.5 2.5t14 10.5t7.5 22.5t2 37.5l1 108q0 27 4.5 46t12 33.5t18 24.5t23.5 18q-13 7 -24 17t-18.5 23.5t-12 32.5t-4.5 45v109q0 23 -2 37.5t-7 22.5t-14 10.5t-23 2.5h-34v21h42q32 0 49.5 -16.5t16.5 -64.5
l-1 -110q0 -20 2.5 -40t8.5 -36.5t17.5 -28.5t29.5 -15l1 -23q-18 -3 -29.5 -15t-17.5 -28.5t-8.5 -36.5t-2.5 -40v-109z" />
    <glyph glyph-name="asciitilde" unicode="~" horiz-adv-x="420" 
d="M299 123l19 22q-39 0 -61 8.5t-47 23.5q-13 8 -34.5 17t-36.5 9q-30 0 -47 -18.5t-28 -42.5l-15 20q17 32 36 49t49 17q21 0 38 -7t43 -21q20 -11 37 -21t40 -10q21 0 39 19t31 43l15 -19q-17 -28 -36.5 -48t-48.5 -20z" />
    <glyph glyph-name="quotesinglbase" unicode="&#x201a;" horiz-adv-x="222" 
d="M67 -110q16 7 26 18.5t15.5 25t7 27t1.5 24.5v27h-25v88h45v-99q0 -43 -16 -75t-54 -49v13z" />
    <glyph glyph-name="florin" unicode="&#x192;" horiz-adv-x="648" 
d="M560 694q-15 2 -19.5 3t-6.5 1q-2 1 -10 1q-4 0 -9.5 0.5t-16.5 0.5q-35 1 -58 -8t-38.5 -26t-24.5 -41t-15 -52l-33 -156h147l-3 -14h-147l-87 -415q-9 -41 -18 -73.5t-27 -56t-49 -36t-83 -12.5q-31 0 -61 3l3 20q20 -2 35 -2.5t23 -0.5q38 0 62.5 9.5t39.5 25t22.5 35
t12.5 39.5l101 464h-144l4 14h143l36 165q8 37 20.5 63.5t31.5 43t47 24t67 7.5q14 0 28.5 -1t30.5 -3z" />
    <glyph glyph-name="quotedblbase" unicode="&#x201e;" horiz-adv-x="352" 
d="M223 -110q13 7 20.5 18.5t12 25t6 27t1.5 24.5v27h-20v88h35v-99q0 -43 -12.5 -75t-42.5 -49v13zM56 -110q13 7 20.5 18.5t12 25t6 27t1.5 24.5v27h-20v88h35v-99q0 -43 -12.5 -75t-42.5 -49v13z" />
    <glyph glyph-name="ellipsis" unicode="&#x2026;" horiz-adv-x="1000" 
d="M826 0v100h33v-100h-33zM484 0v100h32v-100h-32zM141 0v100h33v-100h-33z" />
    <glyph glyph-name="dagger" unicode="&#x2020;" horiz-adv-x="648" 
d="M337 444v-600h-26v600h-261v20h261v250h26v-250h261v-20h-261z" />
    <glyph glyph-name="daggerdbl" unicode="&#x2021;" horiz-adv-x="648" 
d="M337 51v-207h-26v207h-261v20h261v416h-261v20h261v207h26v-207h261v-20h-261v-416h261v-20h-261z" />
    <glyph glyph-name="circumflex" unicode="&#x2c6;" 
d="M224 593l-141 137l-141 -137h-25l140 142h52l140 -142h-25z" />
    <glyph glyph-name="perthousand" unicode="&#x2030;" horiz-adv-x="1167" 
d="M995 -16q-85 0 -126 51.5t-41 136.5q0 41 10.5 75t31.5 58.5t52 38t73 13.5q86 0 126.5 -50t40.5 -135q0 -41 -10 -75t-31 -59.5t-52.5 -39.5t-73.5 -14zM589 -16q-85 0 -126 51.5t-41 136.5q0 41 10.5 75t31.5 58.5t52 38t73 13.5q86 0 126.5 -50t40.5 -135
q0 -41 -10 -75t-31 -59.5t-52.5 -39.5t-73.5 -14zM118 -22h-16l524 748h16zM172 347q-85 0 -126 51.5t-41 136.5q0 41 10.5 75t31.5 58.5t52 38t73 13.5q86 0 126.5 -50t40.5 -135q0 -41 -10 -75t-31 -59.5t-52.5 -39.5t-73.5 -14zM995 343q-39 0 -66.5 -13.5t-45.5 -36.5
t-26 -54t-8 -67q0 -35 8 -66.5t25.5 -55t45 -37.5t67.5 -14t68 14t45.5 37.5t25.5 55t8 66.5q0 36 -8 67t-25.5 54t-45.5 36.5t-68 13.5zM589 343q-39 0 -66.5 -13.5t-45.5 -36.5t-26 -54t-8 -67q0 -35 8 -66.5t25.5 -55t45 -37.5t67.5 -14t68 14t45.5 37.5t25.5 55t8 66.5
q0 36 -8 67t-25.5 54t-45.5 36.5t-68 13.5zM172 705q-39 0 -67 -13.5t-46 -36.5t-26 -54t-8 -66t8 -66.5t25.5 -55.5t45.5 -38t68 -14t68 14t45 38t25 55.5t8 66.5t-8 66t-25 54t-45 36.5t-68 13.5z" />
    <glyph glyph-name="Scaron" unicode="&#x160;" horiz-adv-x="667" 
d="M353 -16q-87 0 -148.5 17t-100 48.5t-57 75.5t-19.5 97h27q4 -103 74.5 -160t218.5 -57q69 0 118 14t80 37.5t45.5 55t14.5 66.5q0 34 -10 58.5t-33 43.5t-62.5 33t-97.5 26l-137 29q-60 13 -101 28.5t-66.5 36.5t-36.5 49.5t-11 67.5q0 38 16.5 71t50 57t84 38t118.5 14
q135 0 212.5 -48.5t85.5 -154.5h-27q-4 33 -17.5 65.5t-43 58.5t-77.5 42t-120 16q-68 0 -115.5 -12t-77 -33t-43 -50.5t-13.5 -64.5q0 -32 8.5 -56t29.5 -42.5t56 -32.5t89 -24l152 -30q55 -11 96.5 -25.5t69 -36t41 -51t13.5 -70.5q0 -35 -13 -70t-45.5 -63t-87.5 -46
t-140 -18zM360 755h-52l-140 142h25l141 -137l141 137h25z" />
    <glyph glyph-name="guilsinglleft" unicode="&#x2039;" horiz-adv-x="296" 
d="M73 250v40l136 123v-28l-124 -115l124 -115v-28z" />
    <glyph glyph-name="OE" unicode="&#x152;" horiz-adv-x="1167" 
d="M643 0v94q-59 -64 -121.5 -87t-129.5 -23q-81 0 -147 25.5t-113 73.5t-72.5 117.5t-25.5 158.5q0 87 27.5 156t75.5 117t113.5 73t141.5 25q33 0 65 -4.5t63.5 -15.5t62 -31t60.5 -50v85h500v-21h-474v-312h453v-21h-453v-339h480v-21h-506zM643 584q0 19 -18.5 41
t-51.5 41t-78 31t-98 12q-81 0 -144 -26.5t-106 -73.5t-65 -111t-22 -139q0 -66 17.5 -129.5t57.5 -113.5t104.5 -80.5t157.5 -30.5q57 0 102.5 14t77.5 34t49 42t17 39v450z" />
    <glyph glyph-name="quoteleft" unicode="&#x2018;" horiz-adv-x="222" 
d="M105 572h25v-88h-45v99q0 43 16 75t54 49v-13q-17 -7 -26.5 -18.5t-15 -25t-7 -27t-1.5 -24.5v-27z" />
    <glyph glyph-name="quoteright" unicode="&#x2019;" horiz-adv-x="222" 
d="M67 504q16 7 26 18.5t15.5 25t7 27t1.5 24.5v27h-25v88h45v-99q0 -43 -16 -75t-54 -49v13z" />
    <glyph glyph-name="quotedblleft" unicode="&#x201c;" horiz-adv-x="352" 
d="M256 572h20v-88h-35v99q0 43 12.5 75t42.5 49v-13q-13 -7 -20.5 -18.5t-12 -25t-6 -27t-1.5 -24.5v-27zM89 572h20v-88h-35v99q0 43 12.5 75t42.5 49v-13q-13 -7 -20.5 -18.5t-12 -25t-6 -27t-1.5 -24.5v-27z" />
    <glyph glyph-name="quotedblright" unicode="&#x201d;" horiz-adv-x="352" 
d="M223 504q13 7 20.5 18.5t12 25t6 27t1.5 24.5v27h-20v88h35v-99q0 -43 -12.5 -75t-42.5 -49v13zM56 504q13 7 20.5 18.5t12 25t6 27t1.5 24.5v27h-20v88h35v-99q0 -43 -12.5 -75t-42.5 -49v13z" />
    <glyph glyph-name="bullet" unicode="&#x2022;" horiz-adv-x="500" 
d="M250 179q-37 0 -69.5 14t-56.5 38t-38 56.5t-14 69.5t14 69.5t38 56.5t56.5 38t69.5 14t69.5 -14t56.5 -38t38 -56.5t14 -69.5t-14 -69.5t-38 -56.5t-56.5 -38t-69.5 -14z" />
    <glyph glyph-name="endash" unicode="&#x2013;" horiz-adv-x="500" 
d="M0 263v14h500v-14h-500z" />
    <glyph glyph-name="emdash" unicode="&#x2014;" horiz-adv-x="1000" 
d="M0 263v14h1000v-14h-1000z" />
    <glyph glyph-name="tilde" unicode="&#x2dc;" 
d="M231 647q-10 -14 -24 -22.5t-31 -8.5q-26 0 -48 10.5t-43 23.5q-22 14 -43.5 25t-46.5 11q-28 0 -46 -21t-23 -49h-15q7 35 29.5 61.5t57.5 26.5q18 0 34.5 -6.5t32.5 -15.5t31.5 -19t31.5 -17q11 -5 22.5 -8.5t22.5 -3.5q17 0 29 7t19.5 17.5t12 22.5t6.5 23h15
q-6 -34 -24 -57z" />
    <glyph glyph-name="trademark" unicode="&#x2122;" horiz-adv-x="990" 
d="M852 302v397h-19l-171 -397h-6l-171 397h-19v-397h-14v412h42l165 -379l164 379h43v-412h-14zM205 699v-397h-14v397h-147v15h307v-15h-146z" />
    <glyph glyph-name="scaron" unicode="&#x161;" horiz-adv-x="537" 
d="M271 -16q-53 0 -97 9t-76 28.5t-52 50t-24 74.5h27q3 -22 11.5 -47t33 -46t69.5 -34.5t121 -13.5q106 0 155.5 31.5t49.5 95.5q0 26 -9 45t-25 31.5t-37 20t-45 10.5l-188 25q-24 3 -49.5 11t-45.5 22t-33 36.5t-13 54.5q0 20 8.5 44.5t32 45.5t65.5 35.5t108 14.5
q69 0 113 -13t70 -34.5t38 -49t15 -55.5h-27q-8 68 -58.5 99.5t-153.5 31.5q-50 0 -85 -9t-57 -25t-32 -37t-10 -45q0 -25 9 -43t25 -30t37 -18.5t45 -9.5l170 -22q75 -10 117 -40t42 -96q0 -50 -25 -79t-62 -44.5t-80 -20t-78 -4.5zM295 593h-52l-140 142h25l141 -137
l141 137h25z" />
    <glyph glyph-name="guilsinglright" unicode="&#x203a;" horiz-adv-x="296" 
d="M87 127v28l124 115l-124 115v28l136 -123v-40z" />
    <glyph glyph-name="oe" unicode="&#x153;" horiz-adv-x="1074" 
d="M551 256q0 -118 62.5 -184.5t173.5 -66.5q84 0 143.5 35t82.5 111h26q-22 -79 -90 -123t-162 -44q-41 0 -79.5 10t-70.5 30t-55.5 51t-33.5 73h-17q-32 -86 -92.5 -125t-150.5 -39q-60 0 -108.5 19.5t-82.5 55t-52.5 85.5t-18.5 112q0 60 19.5 110t54.5 86t84 56t108 20
q86 0 148.5 -40t93.5 -125h16q38 89 100 127t137 38q63 0 110.5 -19.5t80 -55.5t50 -86t20.5 -111h-497zM787 507q-51 0 -94.5 -18.5t-75 -50t-49 -73.5t-17.5 -88h472q-14 114 -72.5 172t-163.5 58zM292 507q-56 0 -100.5 -18t-75 -51t-47 -79t-16.5 -103q0 -56 16 -102
t46.5 -79t75 -51.5t101.5 -18.5q56 0 100.5 18t75 50.5t47 79t16.5 103.5q0 56 -16 102.5t-46.5 79.5t-75 51t-101.5 18z" />
    <glyph glyph-name="Ydieresis" unicode="&#x178;" horiz-adv-x="668" 
d="M347 302v-302h-26v302l-330 412h40l303 -388l310 388h33zM435 760v106h28v-106h-28zM205 760v106h28v-106h-28z" />
    <glyph glyph-name="nonbreakingspace" unicode="&#xa0;" horiz-adv-x="222" 
 />
    <glyph glyph-name="exclamdown" unicode="&#xa1;" horiz-adv-x="181" 
d="M69 309v65h38v-65h-38zM69 -138v135q0 60 4 120t6 123h16q3 -63 7.5 -123t4.5 -120v-135h-38z" />
    <glyph glyph-name="cent" unicode="&#xa2;" horiz-adv-x="648" 
d="M334 -125h-14v112q-62 4 -113 24.5t-87 55t-55.5 81.5t-19.5 103q0 64 21 113.5t57.5 84t87 54t109.5 22.5v95h14v-94q58 -1 104.5 -15.5t79.5 -37.5t52.5 -51.5t24.5 -57.5h-27q-5 26 -23.5 51t-49 44.5t-71.5 32t-90 13.5v-497q45 0 84.5 10t70.5 30t53 49.5t32 69.5
h26q-11 -45 -35.5 -79t-59 -56.5t-78.5 -33.5t-93 -11v-112zM320 505q-63 -5 -110 -27.5t-77.5 -57.5t-45.5 -79t-15 -90q0 -32 12 -72t40.5 -76.5t76 -63.5t119.5 -31v497z" />
    <glyph glyph-name="sterling" unicode="&#xa3;" horiz-adv-x="648" 
d="M437 -16q-30 0 -57.5 7t-54.5 15q-28 9 -55.5 16t-56.5 7q-24 0 -41.5 -2t-34 -6.5t-34.5 -12.5t-43 -21l-17 25q29 26 53 51t41.5 51t27 54.5t9.5 61.5q0 25 -9 53.5t-22 47.5h-87v15h85q-36 63 -52.5 107.5t-16.5 80.5q0 18 7.5 49t34 61.5t76.5 53t136 22.5
q80 0 131 -19t81 -50.5t41.5 -72.5t12.5 -86h-27q-2 60 -20.5 100t-50.5 63.5t-75 33.5t-94 10q-38 0 -78 -8t-73 -27t-54 -50.5t-21 -79.5q0 -22 6.5 -45.5t17 -47.5t23 -48t25.5 -47h231v-15h-226q14 -34 19.5 -53.5t5.5 -40.5q0 -61 -37 -114t-92 -97l16 -16q27 15 48 23
t38 12t30 4.5t23 0.5q25 0 51.5 -7t53.5 -15q14 -5 27.5 -9t26.5 -7t26 -5t25 -2q52 0 92 24.5t66 51.5l11 -20q-43 -43 -88.5 -60t-80.5 -17z" />
    <glyph glyph-name="currency" unicode="&#xa4;" horiz-adv-x="648" 
d="M561 129l-13 -14l-56 56q-41 -35 -83.5 -51t-84.5 -16q-44 0 -86 16t-82 51l-57 -57l-14 13l60 56q-35 42 -51.5 84t-17.5 85t15.5 85.5t52.5 82.5l-59 58l14 13l57 -57q40 34 82 49.5t86 16.5q42 0 84.5 -16t83.5 -52l56 58l13 -14l-57 -56q36 -40 52 -82.5t16 -85.5
t-16 -85.5t-52 -81.5zM324 573q-46 0 -86 -17.5t-70 -47.5t-47.5 -70t-17.5 -86t17.5 -86t47.5 -70t70 -47.5t86 -17.5t86 17.5t70 47.5t47.5 70t17.5 86t-17.5 86t-47.5 70t-70 47.5t-86 17.5z" />
    <glyph glyph-name="yen" unicode="&#xa5;" horiz-adv-x="648" 
d="M366 340h189v-15h-200l-18 -23v-113h218v-14h-218v-175h-26v175h-218v14h218v113l-18 23h-200v15h189l-281 364h40l273 -364h20l280 364h33z" />
    <glyph glyph-name="brokenbar" unicode="&#xa6;" horiz-adv-x="222" 
d="M101 473v257h20v-257h-20zM101 -16v257h20v-257h-20z" />
    <glyph glyph-name="section" unicode="&#xa7;" horiz-adv-x="648" 
d="M451 101q19 -14 26.5 -19.5t12.5 -10.5q5 -4 10.5 -9t10.5 -11q9 -12 15.5 -29.5t6.5 -42.5q0 -44 -18.5 -71.5t-48.5 -43t-68.5 -21t-79.5 -5.5q-33 0 -70 5.5t-68.5 23.5t-53.5 52t-24 91h27q3 -80 52.5 -116t138.5 -36q9 0 26 1t38 4.5t42.5 10.5t39.5 19.5t29.5 31.5
t11.5 47q0 27 -9.5 46t-25.5 33.5t-37.5 26t-45.5 22.5l-212 97q-41 19 -67 36.5t-40.5 35t-20 35.5t-5.5 38q0 36 15.5 60.5t38.5 40t49 25t47 15.5q-18 12 -33 22.5t-26.5 23.5t-17.5 29t-6 39q0 62 52.5 97.5t140.5 35.5q103 0 161.5 -36.5t61.5 -128.5h-27q0 18 -5 42.5
t-24 47.5t-55.5 39t-99.5 16q-20 0 -50 -2t-58.5 -13.5t-49 -35t-20.5 -65.5q0 -27 18 -51.5t64 -45.5l276 -126q49 -23 78.5 -54t29.5 -73q0 -40 -16.5 -66t-40 -42t-50 -24t-46.5 -11zM206 474q-11 0 -33.5 -7t-45 -22.5t-39.5 -39.5t-17 -57q0 -27 9 -46t25 -33.5t38 -26
t48 -23.5l245 -111q3 -1 25 2.5t48 16.5t47 38t21 66q0 27 -10 46.5t-26 34t-34.5 24.5t-36.5 18z" />
    <glyph glyph-name="dieresis" unicode="&#xa8;" 
d="M184 598v106h28v-106h-28zM-46 598v106h28v-106h-28z" />
    <glyph glyph-name="copyright" unicode="&#xa9;" horiz-adv-x="800" 
d="M400 -16q-77 0 -145 29.5t-118.5 80t-80 118.5t-29.5 145t29.5 145t80 118.5t118.5 80t145 29.5t145 -29.5t118.5 -80t80 -118.5t29.5 -145t-29.5 -145t-80 -118.5t-118.5 -80t-145 -29.5zM400 709q-73 0 -137 -27.5t-112 -75.5t-75.5 -112t-27.5 -137t27.5 -137
t75.5 -112t112 -75.5t137 -27.5t137 27.5t112 75.5t75.5 112t27.5 137t-27.5 137t-75.5 112t-112 75.5t-137 27.5zM412 124q-50 0 -91 17.5t-70 49t-45 74.5t-16 93q0 51 15.5 93.5t44 73t69.5 47.5t93 17q68 0 118.5 -36.5t64.5 -101.5h-20q-14 57 -56.5 90.5t-106.5 33.5
q-48 0 -85.5 -16.5t-63 -45.5t-39 -69t-13.5 -86q0 -44 14 -84t40 -70t63 -48t84 -18q65 0 107 34.5t56 96.5h20q-14 -66 -64.5 -105.5t-118.5 -39.5z" />
    <glyph glyph-name="ordfeminine" unicode="&#xaa;" horiz-adv-x="385" 
d="M381 404q-2 -1 -6 -1h-16q-27 -1 -32 13.5t-5 52.5h-19q-14 -26 -33.5 -42t-40 -24t-41 -10.5t-37.5 -2.5q-43 0 -69.5 8.5t-40.5 22t-19 30t-5 32.5q0 37 28.5 58.5t91.5 26.5l118 8q12 1 23.5 3t21.5 7.5t16 14.5t6 24q0 16 -4 31.5t-18 27.5t-40 19.5t-70 7.5
q-27 0 -52 -4t-44 -13.5t-31.5 -25t-14.5 -38.5h-15q5 49 46.5 69.5t100.5 20.5q33 0 62 -3t50 -12t33 -25t12 -42v-175q0 -24 5.5 -38t28.5 -14q5 0 10 0.5t10 1.5v-8q-5 -1 -6.5 -1h-3.5zM322 598q-16 -14 -30 -21t-40 -9l-120 -9q-100 -8 -100 -79q0 -15 5.5 -30
t19.5 -26t37.5 -18t58.5 -7q24 0 53 6t55 20t43.5 37t17.5 57v79z" />
    <glyph glyph-name="guillemotleft" unicode="&#xab;" horiz-adv-x="444" 
d="M232 250v40l125 123v-28l-114 -115l114 -115v-28zM73 250v40l125 123v-28l-114 -115l114 -115v-28z" />
    <glyph glyph-name="logicalnot" unicode="&#xac;" horiz-adv-x="600" 
d="M532 108v240h-485v22h506v-262h-21z" />
    <glyph glyph-name="registered" unicode="&#xae;" horiz-adv-x="800" 
d="M400 -16q-77 0 -145 29.5t-118.5 80t-80 118.5t-29.5 145t29.5 145t80 118.5t118.5 80t145 29.5t145 -29.5t118.5 -80t80 -118.5t29.5 -145t-29.5 -145t-80 -118.5t-118.5 -80t-145 -29.5zM400 709q-73 0 -137 -27.5t-112 -75.5t-75.5 -112t-27.5 -137t27.5 -137
t75.5 -112t112 -75.5t137 -27.5t137 27.5t112 75.5t75.5 112t27.5 137t-27.5 137t-75.5 112t-112 75.5t-137 27.5zM554 140l-137 208h-134v-208h-21v434h165q33 0 58.5 -5.5t43 -18.5t26.5 -35t9 -56q0 -55 -30 -79.5t-93 -34.5l135 -205h-22zM283 559v-197h107q31 0 59 2.5
t49 12t33.5 29t12.5 53.5q0 29 -9.5 48.5t-25 31t-37 16t-45.5 4.5h-144z" />
    <glyph glyph-name="macron" unicode="&#xaf;" 
d="M-108 640v34h382v-34h-382z" />
    <glyph glyph-name="degree" unicode="&#xb0;" horiz-adv-x="400" 
d="M200 430q-30 0 -56.5 11.5t-46 31t-31 46t-11.5 56.5t11.5 56.5t31 46t46 31t56.5 11.5t56.5 -11.5t46 -31t31 -46t11.5 -56.5t-11.5 -56.5t-31 -46t-46 -31t-56.5 -11.5zM200 705q-27 0 -50.5 -10.5t-41 -28t-28 -41t-10.5 -50.5t10.5 -50.5t28 -41t41 -28t50.5 -10.5
t50.5 10.5t41 28t28 41t10.5 50.5t-10.5 50.5t-28 41t-41 28t-50.5 10.5z" />
    <glyph glyph-name="plusminus" unicode="&#xb1;" horiz-adv-x="600" 
d="M310 289v-195h-20v195h-243v21h243v196h20v-196h243v-21h-243zM47 0v21h506v-21h-506z" />
    <glyph glyph-name="twosuperior" unicode="&#xb2;" horiz-adv-x="421" 
d="M40 294q5 28 15 48t28 36t44 30.5t62 33.5q20 10 36.5 18.5t31.5 16.5t28.5 16t24.5 17q22 17 34 39t12 53t-13 52t-33 34t-45 18.5t-49 5.5q-77 0 -114 -35t-40 -92h-15q2 70 43.5 102.5t125.5 32.5q31 0 59 -6.5t49.5 -20.5t34 -36.5t12.5 -54.5q0 -29 -10.5 -50.5
t-31.5 -39.5t-53 -35.5t-74 -38.5q-27 -14 -51 -27t-44 -29t-35 -35.5t-23 -44.5h334v-8h-343z" />
    <glyph glyph-name="threesuperior" unicode="&#xb3;" horiz-adv-x="421" 
d="M209 274q-37 0 -68 7.5t-54.5 24t-37 43t-15.5 65.5h15q2 -38 16.5 -63.5t37.5 -40.5t52.5 -21.5t60.5 -6.5q25 0 52.5 5.5t50.5 19t38 36.5t15 57q0 37 -17 59t-43.5 33.5t-57.5 15t-58 3.5v8q24 0 52 3t53 12.5t41.5 28.5t16.5 51q0 30 -14 49.5t-34.5 30t-45 14.5
t-45.5 4q-29 0 -56.5 -6.5t-49.5 -20.5t-35.5 -37t-15.5 -56h-15q5 71 51.5 99.5t126.5 28.5q25 0 51.5 -5t48 -17.5t35 -33t13.5 -50.5q0 -42 -28 -62t-79 -25v-22q55 0 87.5 -27.5t32.5 -78.5q0 -37 -15.5 -61t-40.5 -38.5t-57 -20t-65 -5.5z" />
    <glyph glyph-name="acute" unicode="&#xb4;" 
d="M56 593h-22l46 61h33z" />
    <glyph glyph-name="mu" unicode="&#xb5;" horiz-adv-x="611" 
d="M528 6v105h-19q-13 -24 -32 -46.5t-46 -39t-62 -26.5t-79 -10t-75 7.5t-53 19t-36.5 26.5t-24.5 30h-18v-274h-27v714h27v-313q0 -42 9.5 -77t33.5 -59.5t64 -38.5t101 -14t105.5 17.5t74 46t43.5 65.5t14 76v297h27v-506h-27z" />
    <glyph glyph-name="paragraph" unicode="&#xb6;" horiz-adv-x="600" 
d="M470 -146v840h-181v-840h-21v481q-48 0 -88 15t-68.5 41t-44.5 60.5t-16 72.5q0 94 58 142t165 48h217v-860h-21z" />
    <glyph glyph-name="periodcentered" unicode="&#xb7;" horiz-adv-x="222" 
d="M111 264q-23 0 -39.5 16.5t-16.5 39.5t16.5 39.5t39.5 16.5t39.5 -16.5t16.5 -39.5t-16.5 -39.5t-39.5 -16.5z" />
    <glyph glyph-name="cedilla" unicode="&#xb8;" 
d="M83 -190q-23 0 -53 5t-55 12l4 9q20 -7 46 -12t46 -5q9 0 25.5 1.5t33.5 7.5t29.5 18.5t12.5 33.5q0 16 -7.5 26.5t-19 16.5t-25.5 8.5t-26 2.5q-22 0 -37 -3.5t-26 -8.5l-5 5l59 73h7l-46 -51l14 -14q20 5 31.5 6.5t20.5 1.5q32 0 57 -15t25 -44q0 -20 -10 -34
t-25.5 -23t-35.5 -13t-40 -4z" />
    <glyph glyph-name="onesuperior" unicode="&#xb9;" horiz-adv-x="388" 
d="M219 286v399q-43 -33 -84 -48t-79 -20v8q20 2 44 8.5t46.5 17t41.5 25t30 32.5h17v-422h-16z" />
    <glyph glyph-name="ordmasculine" unicode="&#xba;" horiz-adv-x="410" 
d="M205 390q-39 0 -73.5 11t-60 32t-40 51.5t-14.5 70.5t14.5 70.5t40 51.5t60 32t73.5 11t73 -11t59.5 -32t40.5 -51.5t15 -70.5t-15 -70.5t-40.5 -51.5t-59.5 -32t-73 -11zM205 711q-43 0 -75.5 -13.5t-54 -35.5t-32.5 -50t-11 -57t11 -57t32.5 -50t54 -35.5t75.5 -13.5
q42 0 74.5 13.5t54 35.5t33 50t11.5 57t-11.5 57t-33 50t-54 35.5t-74.5 13.5z" />
    <glyph glyph-name="guillemotright" unicode="&#xbb;" horiz-adv-x="444" 
d="M246 127v28l114 115l-114 115v28l125 -123v-40zM87 127v28l114 115l-114 115v28l125 -123v-40z" />
    <glyph glyph-name="onequarter" unicode="&#xbc;" horiz-adv-x="972" 
d="M831 112v-112h-14v112h-251v20l245 282h20v-293h91v-9h-91zM232 -16h-17l455 736h17zM179 294v391q-39 -32 -76.5 -46.5t-71.5 -19.5v7q18 2 40 8.5t42.5 17t38 24.5t26.5 32h16v-414h-15zM817 411l-249 -290h249v290z" />
    <glyph glyph-name="onehalf" unicode="&#xbd;" horiz-adv-x="972" 
d="M578 0q5 28 15 47.5t27 35t42 30.5t60 33q19 10 35.5 18t30.5 16t26.5 15.5t23.5 16.5q22 17 33.5 38.5t11.5 52.5q0 30 -12.5 50.5t-32 33t-43.5 18t-47 5.5q-75 0 -110.5 -34t-38.5 -91h-14q2 69 42 101t121 32q30 0 57 -6.5t47.5 -20t33 -35.5t12.5 -53q0 -29 -10 -50
t-30.5 -39t-51 -35t-71.5 -38q-53 -26 -92.5 -54.5t-55.5 -77.5h322v-9h-331zM232 -16h-17l455 736h17zM179 294v391q-39 -32 -76.5 -46.5t-71.5 -19.5v7q18 2 40 8.5t42.5 17t38 24.5t27.5 32h15v-414h-15z" />
    <glyph glyph-name="threequarters" unicode="&#xbe;" horiz-adv-x="972" 
d="M831 112v-112h-14v112h-251v20l245 284h20v-295h91v-9h-91zM303 -16h-17l455 736h17zM223 282q-35 0 -65 7.5t-52.5 24t-36 42.5t-15.5 64h15q1 -37 15.5 -62t36.5 -40t50.5 -21.5t58.5 -6.5q24 0 50.5 5.5t49 18.5t37 35.5t14.5 55.5q0 37 -16.5 58.5t-42 32.5
t-55.5 14.5t-56 3.5v9q23 0 50.5 2.5t51 12t39.5 28t16 50.5q0 30 -13.5 48.5t-34 29t-44 14.5t-43.5 4q-28 0 -54.5 -6t-47.5 -20t-34 -36.5t-15 -54.5h-14q5 69 49.5 97t121.5 28q25 0 50.5 -5t46.5 -17t34 -32t13 -50q0 -42 -27.5 -61t-76.5 -24v-22q54 0 85 -27t31 -78
q0 -36 -15 -59.5t-39 -37.5t-55 -19.5t-63 -5.5zM817 413l-249 -292h249v292z" />
    <glyph glyph-name="questiondown" unicode="&#xbf;" horiz-adv-x="441" 
d="M214 305v64h31v-64h-31zM226 -154q-81 0 -132 33t-51 101q0 22 5 39.5t16.5 32.5t29.5 29.5t44 31.5q22 14 37 24.5t24 21.5t13 24t4 32v20h27v-12q0 -25 -4 -41.5t-14.5 -29.5t-27.5 -25.5t-43 -29.5q-25 -17 -41.5 -30t-26 -25.5t-13.5 -27t-4 -32.5q0 -31 13.5 -53
t35.5 -35.5t49 -20t56 -6.5q75 0 118 33t45 109h26q-2 -43 -16 -74t-38.5 -50.5t-58 -29t-73.5 -9.5z" />
    <glyph glyph-name="Agrave" unicode="&#xc0;" horiz-adv-x="686" 
d="M660 0l-108 237h-418l-108 -237h-31l328 714h40l328 -714h-31zM343 696l-200 -439h400zM370 755l-62 61h30l52 -61h-20z" />
    <glyph glyph-name="Aacute" unicode="&#xc1;" horiz-adv-x="686" 
d="M660 0l-108 237h-418l-108 -237h-31l328 714h40l328 -714h-31zM343 696l-200 -439h400zM316 755h-22l46 61h33z" />
    <glyph glyph-name="Acircumflex" unicode="&#xc2;" horiz-adv-x="686" 
d="M660 0l-108 237h-418l-108 -237h-31l328 714h40l328 -714h-31zM343 696l-200 -439h400zM484 755l-141 137l-141 -137h-25l140 142h52l140 -142h-25z" />
    <glyph glyph-name="Atilde" unicode="&#xc3;" horiz-adv-x="686" 
d="M660 0l-108 237h-418l-108 -237h-31l328 714h40l328 -714h-31zM343 696l-200 -439h400zM491 809q-10 -14 -24 -22.5t-31 -8.5q-26 0 -48 10.5t-43 23.5q-22 14 -43.5 25t-46.5 11q-28 0 -46 -21t-23 -49h-15q7 35 29.5 61.5t57.5 26.5q18 0 34.5 -6.5t32.5 -15.5
t31.5 -19t31.5 -17q11 -5 22.5 -8.5t22.5 -3.5q17 0 29 7t19.5 17.5t12 22.5t6.5 23h15q-6 -34 -24 -57z" />
    <glyph glyph-name="Adieresis" unicode="&#xc4;" horiz-adv-x="686" 
d="M660 0l-108 237h-418l-108 -237h-31l328 714h40l328 -714h-31zM343 696l-200 -439h400zM444 760v106h28v-106h-28zM214 760v106h28v-106h-28z" />
    <glyph glyph-name="Aring" unicode="&#xc5;" horiz-adv-x="686" 
d="M660 0l-108 237h-418l-108 -237h-31l328 714h40l328 -714h-31zM343 696l-200 -439h400zM343 730q-23 0 -43 8.5t-35 23.5t-23.5 35t-8.5 43t8.5 43t23.5 35t35 23.5t43 8.5t43 -8.5t35 -23.5t23.5 -35t8.5 -43t-8.5 -43t-23.5 -35t-35 -23.5t-43 -8.5zM343 935
q-20 0 -37 -7.5t-30 -20.5t-20.5 -30.5t-7.5 -36.5q0 -20 7.5 -37t20.5 -30t30 -20.5t37 -7.5q19 0 36.5 7.5t30.5 20.5t20.5 30t7.5 37q0 19 -7.5 36.5t-20.5 30.5t-30.5 20.5t-36.5 7.5z" />
    <glyph glyph-name="AE" unicode="&#xc6;" horiz-adv-x="1056" 
d="M524 0v264h-348l-169 -264h-31l459 714h597v-21h-481v-312h459v-21h-459v-339h487v-21h-514zM524 693h-73l-261 -408h334v408z" />
    <glyph glyph-name="Ccedilla" unicode="&#xc7;" horiz-adv-x="796" 
d="M363 -63l13 -12q35 7 49 7q30 0 53.5 -14.5t23.5 -40.5q0 -18 -9 -30.5t-24 -21t-33.5 -12t-37.5 -3.5q-22 0 -50 4.5t-51 10.5l4 9q19 -6 43.5 -11t42.5 -5q8 0 23.5 1.5t31.5 7t27.5 16.5t11.5 31q0 14 -7 23.5t-18 15t-23.5 8t-24.5 2.5q-20 0 -33.5 -3t-24.5 -7l-5 4
l59 71q-84 4 -153.5 31t-118.5 74.5t-76 114.5t-27 151q0 65 22.5 131t69 119.5t118.5 87t170 33.5q63 0 118 -14t98.5 -42.5t74 -70.5t45.5 -98h-26q-15 53 -46 91.5t-72.5 64t-90.5 37.5t-101 12q-81 0 -146 -28.5t-111 -76.5t-71 -111.5t-25 -134.5t22.5 -134.5
t67 -111.5t110.5 -76.5t153 -28.5q61 0 115 17t96 49.5t71 79.5t41 107h26q-8 -49 -34 -97t-69.5 -87t-104.5 -63.5t-140 -25.5z" />
    <glyph glyph-name="Egrave" unicode="&#xc8;" horiz-adv-x="648" 
d="M60 0v714h564v-21h-537v-312h515v-21h-515v-339h543v-21h-570zM351 755l-62 61h30l52 -61h-20z" />
    <glyph glyph-name="Eacute" unicode="&#xc9;" horiz-adv-x="648" 
d="M60 0v714h564v-21h-537v-312h515v-21h-515v-339h543v-21h-570zM297 755h-22l46 61h33z" />
    <glyph glyph-name="Ecircumflex" unicode="&#xca;" horiz-adv-x="648" 
d="M60 0v714h564v-21h-537v-312h515v-21h-515v-339h543v-21h-570zM465 755l-141 137l-141 -137h-25l140 142h52l140 -142h-25z" />
    <glyph glyph-name="Edieresis" unicode="&#xcb;" horiz-adv-x="648" 
d="M60 0v714h564v-21h-537v-312h515v-21h-515v-339h543v-21h-570zM425 760v106h28v-106h-28zM195 760v106h28v-106h-28z" />
    <glyph glyph-name="Igrave" unicode="&#xcc;" 
d="M71 0h25v714h-25v-714zM110 755l-62 61h30l52 -61h-20z" />
    <glyph glyph-name="Iacute" unicode="&#xcd;" 
d="M71 714h25v-714h-25v714zM56 755h-22l46 61h33z" />
    <glyph glyph-name="Icircumflex" unicode="&#xce;" 
d="M71 0h25v714h-25v-714zM224 755l-141 137l-141 -137h-25l140 142h52l140 -142h-25z" />
    <glyph glyph-name="Idieresis" unicode="&#xcf;" 
d="M71 714h25v-714h-25v714zM184 760v106h28v-106h-28zM-46 760v106h28v-106h-28z" />
    <glyph glyph-name="Eth" unicode="&#xd0;" horiz-adv-x="759" 
d="M62 0v360h-62v21h62v333h333q63 0 121 -16.5t102 -57.5t70 -110t26 -173q0 -79 -20 -144.5t-60.5 -113t-102 -73.5t-144.5 -26h-325zM88 693v-312h274v-21h-274v-339h308q63 0 116.5 20t92.5 61.5t60.5 104.5t21.5 150q0 89 -22 153t-61.5 104.5t-95.5 59.5t-123 19h-297
z" />
    <glyph glyph-name="Ntilde" unicode="&#xd1;" horiz-adv-x="759" 
d="M654 0l-550 669h-17v-669h-27v714h45l550 -669h17v669h27v-714h-45zM528 809q-10 -14 -24 -22.5t-31 -8.5q-26 0 -48 10.5t-43 23.5q-22 14 -43.5 25t-46.5 11q-28 0 -46 -21t-23 -49h-15q7 35 29.5 61.5t57.5 26.5q18 0 34.5 -6.5t32.5 -15.5t31.5 -19t31.5 -17
q11 -5 22.5 -8.5t22.5 -3.5q17 0 29 7t19.5 17.5t12 22.5t6.5 23h15q-6 -34 -24 -57z" />
    <glyph glyph-name="Ograve" unicode="&#xd2;" horiz-adv-x="816" 
d="M408 -16q-72 0 -128.5 18t-98.5 47.5t-71 68t-47 80t-26 83t-8 76.5t8 76.5t26 83t47 80t71 68t98 47.5t129 18q72 0 128.5 -18t98.5 -47.5t71 -68t47 -80t26 -83t8 -76.5t-8 -76.5t-26 -83t-47 -80t-71 -68t-98.5 -47.5t-128.5 -18zM408 709q-85 0 -150.5 -29.5
t-110.5 -79t-68 -113t-23 -130.5q0 -68 23 -131t68 -112.5t110.5 -79t150.5 -29.5t150.5 29.5t110.5 79t68 112.5t23 131q0 67 -23 130.5t-68 113t-110.5 79t-150.5 29.5zM435 755l-62 61h30l52 -61h-20z" />
    <glyph glyph-name="Oacute" unicode="&#xd3;" horiz-adv-x="816" 
d="M408 -16q-72 0 -128.5 18t-98.5 47.5t-71 68t-47 80t-26 83t-8 76.5t8 76.5t26 83t47 80t71 68t98 47.5t129 18q72 0 128.5 -18t98.5 -47.5t71 -68t47 -80t26 -83t8 -76.5t-8 -76.5t-26 -83t-47 -80t-71 -68t-98.5 -47.5t-128.5 -18zM408 709q-85 0 -150.5 -29.5
t-110.5 -79t-68 -113t-23 -130.5q0 -68 23 -131t68 -112.5t110.5 -79t150.5 -29.5t150.5 29.5t110.5 79t68 112.5t23 131q0 67 -23 130.5t-68 113t-110.5 79t-150.5 29.5zM381 755h-22l46 61h33z" />
    <glyph glyph-name="Ocircumflex" unicode="&#xd4;" horiz-adv-x="816" 
d="M408 -16q-72 0 -128.5 18t-98.5 47.5t-71 68t-47 80t-26 83t-8 76.5t8 76.5t26 83t47 80t71 68t98 47.5t129 18q72 0 128.5 -18t98.5 -47.5t71 -68t47 -80t26 -83t8 -76.5t-8 -76.5t-26 -83t-47 -80t-71 -68t-98.5 -47.5t-128.5 -18zM408 709q-85 0 -150.5 -29.5
t-110.5 -79t-68 -113t-23 -130.5q0 -68 23 -131t68 -112.5t110.5 -79t150.5 -29.5t150.5 29.5t110.5 79t68 112.5t23 131q0 67 -23 130.5t-68 113t-110.5 79t-150.5 29.5zM549 755l-141 137l-141 -137h-25l140 142h52l140 -142h-25z" />
    <glyph glyph-name="Otilde" unicode="&#xd5;" horiz-adv-x="816" 
d="M408 -16q-72 0 -128.5 18t-98.5 47.5t-71 68t-47 80t-26 83t-8 76.5t8 76.5t26 83t47 80t71 68t98 47.5t129 18q72 0 128.5 -18t98.5 -47.5t71 -68t47 -80t26 -83t8 -76.5t-8 -76.5t-26 -83t-47 -80t-71 -68t-98.5 -47.5t-128.5 -18zM408 709q-85 0 -150.5 -29.5
t-110.5 -79t-68 -113t-23 -130.5q0 -68 23 -131t68 -112.5t110.5 -79t150.5 -29.5t150.5 29.5t110.5 79t68 112.5t23 131q0 67 -23 130.5t-68 113t-110.5 79t-150.5 29.5zM556 809q-10 -14 -24 -22.5t-31 -8.5q-26 0 -48 10.5t-43 23.5q-22 14 -43.5 25t-46.5 11
q-28 0 -46 -21t-23 -49h-15q7 35 29.5 61.5t57.5 26.5q18 0 34.5 -6.5t32.5 -15.5t31.5 -19t31.5 -17q11 -5 22.5 -8.5t22.5 -3.5q17 0 29 7t19.5 17.5t12 22.5t6.5 23h15q-6 -34 -24 -57z" />
    <glyph glyph-name="Odieresis" unicode="&#xd6;" horiz-adv-x="816" 
d="M408 -16q-72 0 -128.5 18t-98.5 47.5t-71 68t-47 80t-26 83t-8 76.5t8 76.5t26 83t47 80t71 68t98 47.5t129 18q72 0 128.5 -18t98.5 -47.5t71 -68t47 -80t26 -83t8 -76.5t-8 -76.5t-26 -83t-47 -80t-71 -68t-98.5 -47.5t-128.5 -18zM408 709q-85 0 -150.5 -29.5
t-110.5 -79t-68 -113t-23 -130.5q0 -68 23 -131t68 -112.5t110.5 -79t150.5 -29.5t150.5 29.5t110.5 79t68 112.5t23 131q0 67 -23 130.5t-68 113t-110.5 79t-150.5 29.5zM509 760v106h28v-106h-28zM279 760v106h28v-106h-28z" />
    <glyph glyph-name="multiply" unicode="&#xd7;" horiz-adv-x="420" 
d="M355 18l-145 145l-146 -144l-13 13l145 145l-145 146l13 13l146 -145l145 146l14 -14l-145 -146l145 -145z" />
    <glyph glyph-name="Oslash" unicode="&#xd8;" horiz-adv-x="816" 
d="M408 -16q-88 0 -153 26.5t-114 71.5l-96 -94l-8 8l95 95q-29 33 -48.5 68t-31.5 69.5t-17.5 67t-5.5 61.5q0 35 8 76.5t26 83t47 80t71 68t98 47.5t129 18q89 0 153 -26.5t114 -73.5l96 96l8 -8l-97 -96q29 -32 49 -66.5t32.5 -69t18 -68t5.5 -61.5q0 -35 -8 -76.5
t-26 -83t-47 -80t-71 -68t-98.5 -47.5t-128.5 -18zM408 709q-85 0 -150.5 -29.5t-110.5 -79t-68 -113t-23 -130.5t23 -130t72 -117l506 503q-50 47 -111 71.5t-138 24.5zM159 101q51 -48 112.5 -72t136.5 -24q85 0 150.5 29.5t110.5 79t68 112.5t23 131q0 66 -22.5 129
t-72.5 119z" />
    <glyph glyph-name="Ugrave" unicode="&#xd9;" horiz-adv-x="740" 
d="M370 -16q-160 0 -238 70t-78 208v452h27v-450q0 -62 15.5 -110t50 -81t89.5 -50.5t134 -17.5t134 17.5t89.5 50.5t50 81t15.5 110v450h27v-452q0 -138 -78 -208t-238 -70zM397 755l-62 61h30l52 -61h-20z" />
    <glyph glyph-name="Uacute" unicode="&#xda;" horiz-adv-x="740" 
d="M370 -16q-160 0 -238 70t-78 208v452h27v-450q0 -62 15.5 -110t50 -81t89.5 -50.5t134 -17.5t134 17.5t89.5 50.5t50 81t15.5 110v450h27v-452q0 -138 -78 -208t-238 -70zM343 755h-22l46 61h33z" />
    <glyph glyph-name="Ucircumflex" unicode="&#xdb;" horiz-adv-x="740" 
d="M370 -16q-160 0 -238 70t-78 208v452h27v-450q0 -62 15.5 -110t50 -81t89.5 -50.5t134 -17.5t134 17.5t89.5 50.5t50 81t15.5 110v450h27v-452q0 -138 -78 -208t-238 -70zM511 755l-141 137l-141 -137h-25l140 142h52l140 -142h-25z" />
    <glyph glyph-name="Udieresis" unicode="&#xdc;" horiz-adv-x="740" 
d="M370 -16q-160 0 -238 70t-78 208v452h27v-450q0 -62 15.5 -110t50 -81t89.5 -50.5t134 -17.5t134 17.5t89.5 50.5t50 81t15.5 110v450h27v-452q0 -138 -78 -208t-238 -70zM471 760v106h28v-106h-28zM241 760v106h28v-106h-28z" />
    <glyph glyph-name="Yacute" unicode="&#xdd;" horiz-adv-x="668" 
d="M347 302v-302h-26v302l-330 412h40l303 -388l310 388h33zM307 755h-22l46 61h33z" />
    <glyph glyph-name="Thorn" unicode="&#xde;" horiz-adv-x="667" 
d="M87 169v-169h-27v714h27v-154h348q38 0 76 -8t69 -29.5t50 -59t19 -97.5q0 -44 -12.5 -80t-39.5 -62t-69 -40.5t-101 -14.5h-340zM87 539v-350h339q35 0 70 8t63 28t45.5 53.5t17.5 85.5q0 43 -10.5 73t-28 49.5t-39.5 30t-45 15.5t-45 6t-39 1h-328z" />
    <glyph glyph-name="germandbls" unicode="&#xdf;" horiz-adv-x="593" 
d="M329 -10q-26 0 -43.5 2t-28.5 5v21q13 -3 32 -5t43 -2q39 0 76.5 9.5t67 32.5t47 61.5t17.5 95.5q0 49 -17.5 82.5t-50 54.5t-77 30t-98.5 9h-28v20h21q46 0 85 8.5t67.5 27t44 47t15.5 68.5q0 20 -7.5 46t-30 49t-64 39t-108.5 16q-57 0 -97 -13t-64.5 -36t-36 -56.5
t-11.5 -73.5v-528h-27v527q0 53 16 91t46 62.5t72.5 36t96.5 11.5q53 0 97.5 -9t77 -29.5t50.5 -53t18 -79.5q0 -21 -6.5 -44t-23 -44t-45.5 -37t-73 -22v-21q48 -3 82.5 -18t57.5 -39.5t34 -57.5t11 -73q0 -44 -14.5 -82t-44 -67t-74 -45.5t-105.5 -16.5z" />
    <glyph glyph-name="agrave" unicode="&#xe0;" horiz-adv-x="593" 
d="M553 -10q-20 0 -31 6.5t-16.5 20.5t-6.5 36t-1 54h-18q-22 -41 -53.5 -65.5t-66 -37t-68 -16.5t-59.5 -4q-11 0 -30.5 0.5t-42.5 4.5t-46.5 13t-43 26t-32 43t-12.5 65q0 37 14.5 63t40 42.5t60.5 25t75 11.5l186 12q21 1 38 4.5t28.5 12.5t17.5 25.5t6 43.5
q0 30 -10 54.5t-34 41.5t-63.5 26t-99.5 9q-53 0 -89.5 -8t-60.5 -25.5t-37.5 -43.5t-19.5 -62h-27q7 44 23.5 74.5t44.5 49.5t69 27.5t98 8.5q116 0 174.5 -31.5t58.5 -113.5v-298q0 -18 1.5 -31.5t6 -23t13.5 -14.5t25 -5t36 5v-20q-18 -6 -48 -6zM492 298h-17
q-9 -10 -28 -18.5t-53 -10.5l-179 -12q-33 -2 -62.5 -9t-51.5 -20.5t-35 -36t-13 -55.5q0 -45 20 -71t48.5 -39.5t60 -17t54.5 -3.5q40 0 85 9.5t83 31.5t63 57.5t25 86.5v108zM294 593l-62 61h30l52 -61h-20z" />
    <glyph glyph-name="aacute" unicode="&#xe1;" horiz-adv-x="593" 
d="M553 -10q-20 0 -31 6.5t-16.5 20.5t-6.5 36t-1 54h-18q-22 -41 -53.5 -65.5t-66 -37t-68 -16.5t-59.5 -4q-11 0 -30.5 0.5t-42.5 4.5t-46.5 13t-43 26t-32 43t-12.5 65q0 37 14.5 63t40 42.5t60.5 25t75 11.5l186 12q21 1 38 4.5t28.5 12.5t17.5 25.5t6 43.5
q0 30 -10 54.5t-34 41.5t-63.5 26t-99.5 9q-53 0 -89.5 -8t-60.5 -25.5t-37.5 -43.5t-19.5 -62h-27q7 44 23.5 74.5t44.5 49.5t69 27.5t98 8.5q116 0 174.5 -31.5t58.5 -113.5v-298q0 -18 1.5 -31.5t6 -23t13.5 -14.5t25 -5t36 5v-20q-18 -6 -48 -6zM492 298h-17
q-9 -10 -28 -18.5t-53 -10.5l-179 -12q-33 -2 -62.5 -9t-51.5 -20.5t-35 -36t-13 -55.5q0 -45 20 -71t48.5 -39.5t60 -17t54.5 -3.5q40 0 85 9.5t83 31.5t63 57.5t25 86.5v108zM310 593h-22l46 61h33z" />
    <glyph glyph-name="acircumflex" unicode="&#xe2;" horiz-adv-x="593" 
d="M553 -10q-20 0 -31 6.5t-16.5 20.5t-6.5 36t-1 54h-18q-22 -41 -53.5 -65.5t-66 -37t-68 -16.5t-59.5 -4q-11 0 -30.5 0.5t-42.5 4.5t-46.5 13t-43 26t-32 43t-12.5 65q0 37 14.5 63t40 42.5t60.5 25t75 11.5l186 12q21 1 38 4.5t28.5 12.5t17.5 25.5t6 43.5
q0 30 -10 54.5t-34 41.5t-63.5 26t-99.5 9q-53 0 -89.5 -8t-60.5 -25.5t-37.5 -43.5t-19.5 -62h-27q7 44 23.5 74.5t44.5 49.5t69 27.5t98 8.5q116 0 174.5 -31.5t58.5 -113.5v-298q0 -18 1.5 -31.5t6 -23t13.5 -14.5t25 -5t36 5v-20q-18 -6 -48 -6zM492 298h-17
q-9 -10 -28 -18.5t-53 -10.5l-179 -12q-33 -2 -62.5 -9t-51.5 -20.5t-35 -36t-13 -55.5q0 -45 20 -71t48.5 -39.5t60 -17t54.5 -3.5q40 0 85 9.5t83 31.5t63 57.5t25 86.5v108zM438 593l-141 137l-141 -137h-25l140 142h52l140 -142h-25z" />
    <glyph glyph-name="atilde" unicode="&#xe3;" horiz-adv-x="593" 
d="M553 -10q-20 0 -31 6.5t-16.5 20.5t-6.5 36t-1 54h-18q-22 -41 -53.5 -65.5t-66 -37t-68 -16.5t-59.5 -4q-11 0 -30.5 0.5t-42.5 4.5t-46.5 13t-43 26t-32 43t-12.5 65q0 37 14.5 63t40 42.5t60.5 25t75 11.5l186 12q21 1 38 4.5t28.5 12.5t17.5 25.5t6 43.5
q0 30 -10 54.5t-34 41.5t-63.5 26t-99.5 9q-53 0 -89.5 -8t-60.5 -25.5t-37.5 -43.5t-19.5 -62h-27q7 44 23.5 74.5t44.5 49.5t69 27.5t98 8.5q116 0 174.5 -31.5t58.5 -113.5v-298q0 -18 1.5 -31.5t6 -23t13.5 -14.5t25 -5t36 5v-20q-18 -6 -48 -6zM492 298h-17
q-9 -10 -28 -18.5t-53 -10.5l-179 -12q-33 -2 -62.5 -9t-51.5 -20.5t-35 -36t-13 -55.5q0 -45 20 -71t48.5 -39.5t60 -17t54.5 -3.5q40 0 85 9.5t83 31.5t63 57.5t25 86.5v108zM445 647q-10 -14 -24 -22.5t-31 -8.5q-26 0 -48 10.5t-43 23.5q-22 14 -43.5 25t-46.5 11
q-28 0 -46 -21t-23 -49h-15q7 35 29.5 61.5t57.5 26.5q18 0 34.5 -6.5t32.5 -15.5t31.5 -19t31.5 -17q11 -5 22.5 -8.5t22.5 -3.5q17 0 29 7t19.5 17.5t12 22.5t6.5 23h15q-6 -34 -24 -57z" />
    <glyph glyph-name="adieresis" unicode="&#xe4;" horiz-adv-x="593" 
d="M553 -10q-20 0 -31 6.5t-16.5 20.5t-6.5 36t-1 54h-18q-22 -41 -53.5 -65.5t-66 -37t-68 -16.5t-59.5 -4q-11 0 -30.5 0.5t-42.5 4.5t-46.5 13t-43 26t-32 43t-12.5 65q0 37 14.5 63t40 42.5t60.5 25t75 11.5l186 12q21 1 38 4.5t28.5 12.5t17.5 25.5t6 43.5
q0 30 -10 54.5t-34 41.5t-63.5 26t-99.5 9q-53 0 -89.5 -8t-60.5 -25.5t-37.5 -43.5t-19.5 -62h-27q7 44 23.5 74.5t44.5 49.5t69 27.5t98 8.5q116 0 174.5 -31.5t58.5 -113.5v-298q0 -18 1.5 -31.5t6 -23t13.5 -14.5t25 -5t36 5v-20q-18 -6 -48 -6zM492 298h-17
q-9 -10 -28 -18.5t-53 -10.5l-179 -12q-33 -2 -62.5 -9t-51.5 -20.5t-35 -36t-13 -55.5q0 -45 20 -71t48.5 -39.5t60 -17t54.5 -3.5q40 0 85 9.5t83 31.5t63 57.5t25 86.5v108zM398 598v106h28v-106h-28zM168 598v106h28v-106h-28z" />
    <glyph glyph-name="aring" unicode="&#xe5;" horiz-adv-x="593" 
d="M553 -10q-20 0 -31 6.5t-16.5 20.5t-6.5 36t-1 54h-18q-22 -41 -53.5 -65.5t-66 -37t-68 -16.5t-59.5 -4q-11 0 -30.5 0.5t-42.5 4.5t-46.5 13t-43 26t-32 43t-12.5 65q0 37 14.5 63t40 42.5t60.5 25t75 11.5l186 12q21 1 38 4.5t28.5 12.5t17.5 25.5t6 43.5
q0 30 -10 54.5t-34 41.5t-63.5 26t-99.5 9q-53 0 -89.5 -8t-60.5 -25.5t-37.5 -43.5t-19.5 -62h-27q7 44 23.5 74.5t44.5 49.5t69 27.5t98 8.5q116 0 174.5 -31.5t58.5 -113.5v-298q0 -18 1.5 -31.5t6 -23t13.5 -14.5t25 -5t36 5v-20q-18 -6 -48 -6zM492 298h-17
q-9 -10 -28 -18.5t-53 -10.5l-179 -12q-33 -2 -62.5 -9t-51.5 -20.5t-35 -36t-13 -55.5q0 -45 20 -71t48.5 -39.5t60 -17t54.5 -3.5q40 0 85 9.5t83 31.5t63 57.5t25 86.5v108zM297 568q-23 0 -43 8.5t-35 23.5t-23.5 35t-8.5 43t8.5 43t23.5 35t35 23.5t43 8.5t43 -8.5
t35 -23.5t23.5 -35t8.5 -43t-8.5 -43t-23.5 -35t-35 -23.5t-43 -8.5zM297 773q-20 0 -37 -7.5t-30 -20.5t-20.5 -30.5t-7.5 -36.5q0 -20 7.5 -37t20.5 -30t30 -20.5t37 -7.5q19 0 36.5 7.5t30.5 20.5t20.5 30t7.5 37q0 19 -7.5 36.5t-20.5 30.5t-30.5 20.5t-36.5 7.5z" />
    <glyph glyph-name="ae" unicode="&#xe6;" horiz-adv-x="1055" 
d="M505 256q1 -56 19 -102t51 -79t81 -51.5t109 -18.5q60 0 100.5 16.5t66.5 40t40 49.5t22 45h25q-32 -90 -97 -131t-163 -41q-38 0 -75.5 7.5t-71.5 26.5t-61.5 50t-44.5 79h-16q-20 -74 -86.5 -118.5t-173.5 -44.5q-16 0 -49.5 2t-68 16t-60.5 45t-26 89q0 37 14.5 63
t39.5 42.5t59.5 25t73.5 11.5l183 12q21 1 37.5 4.5t28 12.5t17.5 25.5t6 43.5q0 30 -10 54.5t-33.5 41.5t-63 26t-97.5 9q-51 0 -87 -8t-60 -25.5t-37 -43.5t-19 -62h-27q7 44 23 74.5t43.5 49.5t68 27.5t96.5 8.5q45 0 83.5 -5.5t68 -21t48.5 -43t25 -71.5h18
q26 67 87 104t149 37q64 0 114.5 -20t86 -56t55 -86t21.5 -110h-533zM755 507q-106 0 -170 -61t-81 -169h503q-8 61 -31 104.5t-56.5 71.5t-75.5 41t-89 13zM485 298h-17q-8 -10 -27.5 -18.5t-52.5 -10.5l-176 -12q-33 -2 -62 -9t-50.5 -20.5t-34 -36t-12.5 -55.5
q0 -45 19.5 -71t47.5 -39.5t59 -17t54 -3.5q39 0 83 9.5t81.5 31.5t62.5 57.5t25 86.5v108z" />
    <glyph glyph-name="ccedilla" unicode="&#xe7;" horiz-adv-x="611" 
d="M271 -62l13 -13q19 5 30 6t19 1q30 0 54 -14t24 -40q0 -18 -9 -31t-24 -21t-34 -12t-38 -4q-22 0 -50.5 4.5t-51.5 10.5l4 9q20 -6 44 -11t43 -5q8 0 24 1.5t31.5 7t27.5 17t12 31.5q0 14 -7 23.5t-18 15t-24 8t-25 2.5q-20 0 -34 -3t-25 -7l-5 4l59 72q-66 4 -119 24.5
t-90 55t-56.5 81t-19.5 102.5q0 67 23 118.5t62.5 86t92 52.5t111.5 18q57 0 103.5 -14t79.5 -37t53 -52t25 -58h-27q-5 27 -24.5 52t-50.5 44.5t-71.5 31.5t-87.5 12q-65 0 -114 -21.5t-82 -56.5t-49.5 -81t-16.5 -95q0 -33 13 -75.5t43.5 -79.5t80.5 -62.5t125 -25.5
q40 0 78.5 9.5t71 29t56.5 49.5t35 71h26q-11 -45 -35.5 -78.5t-59 -55.5t-78 -33t-91.5 -12z" />
    <glyph glyph-name="egrave" unicode="&#xe8;" horiz-adv-x="611" 
d="M53 256q1 -56 19 -102t51.5 -79t82 -51.5t110.5 -18.5q61 0 102.5 16.5t68 40t40.5 49.5t22 45h26q-33 -90 -98.5 -131t-165.5 -41q-66 0 -119 19t-89.5 55t-56.5 87t-20 115q0 40 14 87t47 87t88 67t137 27q66 0 117 -20t87 -56t56 -86t22 -110h-541zM307 507
q-107 0 -172.5 -61t-83.5 -169h511q-8 61 -31.5 104.5t-57 71.5t-76.5 41t-90 13zM313 593l-62 61h30l52 -61h-20z" />
    <glyph glyph-name="eacute" unicode="&#xe9;" horiz-adv-x="611" 
d="M53 256q1 -56 19 -102t51.5 -79t82 -51.5t110.5 -18.5q61 0 102.5 16.5t68 40t40.5 49.5t22 45h26q-33 -90 -98.5 -131t-165.5 -41q-66 0 -119 19t-89.5 55t-56.5 87t-20 115q0 40 14 87t47 87t88 67t137 27q66 0 117 -20t87 -56t56 -86t22 -110h-541zM307 507
q-107 0 -172.5 -61t-83.5 -169h511q-8 61 -31.5 104.5t-57 71.5t-76.5 41t-90 13zM319 593h-22l46 61h33z" />
    <glyph glyph-name="ecircumflex" unicode="&#xea;" horiz-adv-x="611" 
d="M53 256q1 -56 19 -102t51.5 -79t82 -51.5t110.5 -18.5q61 0 102.5 16.5t68 40t40.5 49.5t22 45h26q-33 -90 -98.5 -131t-165.5 -41q-66 0 -119 19t-89.5 55t-56.5 87t-20 115q0 40 14 87t47 87t88 67t137 27q66 0 117 -20t87 -56t56 -86t22 -110h-541zM307 507
q-107 0 -172.5 -61t-83.5 -169h511q-8 61 -31.5 104.5t-57 71.5t-76.5 41t-90 13zM447 593l-141 137l-141 -137h-25l140 142h52l140 -142h-25z" />
    <glyph glyph-name="edieresis" unicode="&#xeb;" horiz-adv-x="611" 
d="M53 256q1 -56 19 -102t51.5 -79t82 -51.5t110.5 -18.5q61 0 102.5 16.5t68 40t40.5 49.5t22 45h26q-33 -90 -98.5 -131t-165.5 -41q-66 0 -119 19t-89.5 55t-56.5 87t-20 115q0 40 14 87t47 87t88 67t137 27q66 0 117 -20t87 -56t56 -86t22 -110h-541zM307 507
q-107 0 -172.5 -61t-83.5 -169h511q-8 61 -31.5 104.5t-57 71.5t-76.5 41t-90 13zM407 598v106h28v-106h-28zM177 598v106h28v-106h-28z" />
    <glyph glyph-name="igrave" unicode="&#xec;" 
d="M70 593l-62 61h30l52 -61h-20zM71 0h25v513h-25v-513z" />
    <glyph glyph-name="iacute" unicode="&#xed;" 
d="M96 593h-22l46 61h33zM71 0h25v513h-25v-513z" />
    <glyph glyph-name="icircumflex" unicode="&#xee;" 
d="M224 593l-141 137l-141 -137h-25l140 142h52l140 -142h-25zM71 0h25v513h-25v-513z" />
    <glyph glyph-name="idieresis" unicode="&#xef;" 
d="M184 598v106h28v-106h-28zM-46 598v106h28v-106h-28zM71 0h25v513h-25v-513z" />
    <glyph glyph-name="eth" unicode="&#xf0;" horiz-adv-x="630" 
d="M216 615l-10 7l260 129l9 -9zM315 -16q-69 0 -123 22t-90.5 59t-56 86t-19.5 102q0 54 19 102.5t55 85.5t87.5 59t116.5 22q72 0 134 -27t113 -102l16 16q-32 69 -70 121.5t-85 92t-104.5 67.5t-127.5 47l13 15q89 -23 164.5 -67t130 -106.5t85.5 -141.5t31 -172
q0 -62 -19.5 -113.5t-56 -89t-90.5 -58t-123 -20.5zM315 501q-65 0 -114 -21t-82 -56t-49.5 -79.5t-16.5 -91.5t16.5 -91.5t49.5 -79.5t82 -56t114 -21t114 21t82 56t49.5 79.5t16.5 91.5t-16.5 91.5t-49.5 79.5t-82 56t-114 21z" />
    <glyph glyph-name="ntilde" unicode="&#xf1;" horiz-adv-x="611" 
d="M528 0v316q0 42 -9.5 77.5t-33.5 60.5t-64 39t-101 14t-105.5 -17.5t-74 -46.5t-43.5 -66.5t-14 -76.5v-300h-27v511h27v-106h19q13 25 32 47t46 39t62 27t79 10q58 0 98 -11t66 -29.5t40.5 -41.5t21 -46t7.5 -45t1 -37v-318h-27zM454 647q-10 -14 -24 -22.5t-31 -8.5
q-26 0 -48 10.5t-43 23.5q-22 14 -43.5 25t-46.5 11q-28 0 -46 -21t-23 -49h-15q7 35 29.5 61.5t57.5 26.5q18 0 34.5 -6.5t32.5 -15.5t31.5 -19t31.5 -17q11 -5 22.5 -8.5t22.5 -3.5q17 0 29 7t19.5 17.5t12 22.5t6.5 23h15q-6 -34 -24 -57z" />
    <glyph glyph-name="ograve" unicode="&#xf2;" horiz-adv-x="630" 
d="M315 -16q-69 0 -123 22t-90.5 59.5t-56 87t-19.5 103.5t19.5 103t56 86.5t90.5 60t123 22.5t123 -22.5t90.5 -60t56 -86.5t19.5 -103t-19.5 -103.5t-56 -87t-90.5 -59.5t-123 -22zM315 507q-65 0 -114 -21.5t-82 -56.5t-49.5 -80t-16.5 -93t16.5 -93t49.5 -80t82 -56.5
t114 -21.5t114 21.5t82 56.5t49.5 80t16.5 93t-16.5 93t-49.5 80t-82 56.5t-114 21.5zM332 593l-62 61h30l52 -61h-20z" />
    <glyph glyph-name="oacute" unicode="&#xf3;" horiz-adv-x="630" 
d="M315 -16q-69 0 -123 22t-90.5 59.5t-56 87t-19.5 103.5t19.5 103t56 86.5t90.5 60t123 22.5t123 -22.5t90.5 -60t56 -86.5t19.5 -103t-19.5 -103.5t-56 -87t-90.5 -59.5t-123 -22zM315 507q-65 0 -114 -21.5t-82 -56.5t-49.5 -80t-16.5 -93t16.5 -93t49.5 -80t82 -56.5
t114 -21.5t114 21.5t82 56.5t49.5 80t16.5 93t-16.5 93t-49.5 80t-82 56.5t-114 21.5zM348 593h-22l46 61h33z" />
    <glyph glyph-name="ocircumflex" unicode="&#xf4;" horiz-adv-x="630" 
d="M315 -16q-69 0 -123 22t-90.5 59.5t-56 87t-19.5 103.5t19.5 103t56 86.5t90.5 60t123 22.5t123 -22.5t90.5 -60t56 -86.5t19.5 -103t-19.5 -103.5t-56 -87t-90.5 -59.5t-123 -22zM315 507q-65 0 -114 -21.5t-82 -56.5t-49.5 -80t-16.5 -93t16.5 -93t49.5 -80t82 -56.5
t114 -21.5t114 21.5t82 56.5t49.5 80t16.5 93t-16.5 93t-49.5 80t-82 56.5t-114 21.5zM456 593l-141 137l-141 -137h-25l140 142h52l140 -142h-25z" />
    <glyph glyph-name="otilde" unicode="&#xf5;" horiz-adv-x="630" 
d="M315 -16q-69 0 -123 22t-90.5 59.5t-56 87t-19.5 103.5t19.5 103t56 86.5t90.5 60t123 22.5t123 -22.5t90.5 -60t56 -86.5t19.5 -103t-19.5 -103.5t-56 -87t-90.5 -59.5t-123 -22zM315 507q-65 0 -114 -21.5t-82 -56.5t-49.5 -80t-16.5 -93t16.5 -93t49.5 -80t82 -56.5
t114 -21.5t114 21.5t82 56.5t49.5 80t16.5 93t-16.5 93t-49.5 80t-82 56.5t-114 21.5zM463 647q-10 -14 -24 -22.5t-31 -8.5q-26 0 -48 10.5t-43 23.5q-22 14 -43.5 25t-46.5 11q-28 0 -46 -21t-23 -49h-15q7 35 29.5 61.5t57.5 26.5q18 0 34.5 -6.5t32.5 -15.5t31.5 -19
t31.5 -17q11 -5 22.5 -8.5t22.5 -3.5q17 0 29 7t19.5 17.5t12 22.5t6.5 23h15q-6 -34 -24 -57z" />
    <glyph glyph-name="odieresis" unicode="&#xf6;" horiz-adv-x="630" 
d="M315 -16q-69 0 -123 22t-90.5 59.5t-56 87t-19.5 103.5t19.5 103t56 86.5t90.5 60t123 22.5t123 -22.5t90.5 -60t56 -86.5t19.5 -103t-19.5 -103.5t-56 -87t-90.5 -59.5t-123 -22zM315 507q-65 0 -114 -21.5t-82 -56.5t-49.5 -80t-16.5 -93t16.5 -93t49.5 -80t82 -56.5
t114 -21.5t114 21.5t82 56.5t49.5 80t16.5 93t-16.5 93t-49.5 80t-82 56.5t-114 21.5zM416 598v106h28v-106h-28zM186 598v106h28v-106h-28z" />
    <glyph glyph-name="divide" unicode="&#xf7;" horiz-adv-x="600" 
d="M300 416q-18 0 -31.5 13.5t-13.5 31.5q0 19 13.5 32t31.5 13t31.5 -13t13.5 -32q0 -18 -13.5 -31.5t-31.5 -13.5zM47 243v20h506v-20h-506zM300 0q-18 0 -31.5 13t-13.5 32q0 18 13.5 31.5t31.5 13.5t31.5 -13.5t13.5 -31.5q0 -19 -13.5 -32t-31.5 -13z" />
    <glyph glyph-name="oslash" unicode="&#xf8;" horiz-adv-x="630" 
d="M315 -16q-63 0 -113 18.5t-90 53.5l-74 -71l-5 5l74 71q-42 42 -61.5 91.5t-19.5 103.5t19.5 103t56 86.5t90.5 60t123 22.5q62 0 111.5 -18.5t91.5 -53.5l74 71l5 -5l-74 -71q42 -43 61.5 -92t19.5 -103t-19.5 -103.5t-56 -87t-90.5 -59.5t-123 -22zM129 73
q40 -35 84.5 -51.5t101.5 -16.5q65 0 114 21.5t82 56.5t49.5 80.5t16.5 92.5q0 48 -16.5 92.5t-54.5 86.5zM315 507q-65 0 -114 -21.5t-82 -57t-49.5 -80.5t-16.5 -92q0 -48 16.5 -93t54.5 -86l377 362q-38 34 -83.5 51t-102.5 17z" />
    <glyph glyph-name="ugrave" unicode="&#xf9;" horiz-adv-x="611" 
d="M528 1v106h-19q-13 -25 -32 -47t-46 -39t-62 -27t-79 -10q-58 0 -98 11.5t-66 29.5t-40.5 41t-21 46t-7.5 44.5t-1 37.5v318h27v-316q0 -42 9.5 -77.5t33.5 -60.5t64 -39t101 -14t105.5 17.5t74 46.5t43.5 66.5t14 76.5v300h27v-511h-27zM293 593l-62 61h30l52 -61h-20z
" />
    <glyph glyph-name="uacute" unicode="&#xfa;" horiz-adv-x="611" 
d="M528 1v106h-19q-13 -25 -32 -47t-46 -39t-62 -27t-79 -10q-58 0 -98 11.5t-66 29.5t-40.5 41t-21 46t-7.5 44.5t-1 37.5v318h27v-316q0 -42 9.5 -77.5t33.5 -60.5t64 -39t101 -14t105.5 17.5t74 46.5t43.5 66.5t14 76.5v300h27v-511h-27zM279 593h-22l46 61h33z" />
    <glyph glyph-name="ucircumflex" unicode="&#xfb;" horiz-adv-x="611" 
d="M528 1v106h-19q-13 -25 -32 -47t-46 -39t-62 -27t-79 -10q-58 0 -98 11.5t-66 29.5t-40.5 41t-21 46t-7.5 44.5t-1 37.5v318h27v-316q0 -42 9.5 -77.5t33.5 -60.5t64 -39t101 -14t105.5 17.5t74 46.5t43.5 66.5t14 76.5v300h27v-511h-27zM447 593l-141 137l-141 -137h-25
l140 142h52l140 -142h-25z" />
    <glyph glyph-name="udieresis" unicode="&#xfc;" horiz-adv-x="611" 
d="M528 1v106h-19q-13 -25 -32 -47t-46 -39t-62 -27t-79 -10q-58 0 -98 11.5t-66 29.5t-40.5 41t-21 46t-7.5 44.5t-1 37.5v318h27v-316q0 -42 9.5 -77.5t33.5 -60.5t64 -39t101 -14t105.5 17.5t74 46.5t43.5 66.5t14 76.5v300h27v-511h-27zM407 598v106h28v-106h-28z
M177 598v106h28v-106h-28z" />
    <glyph glyph-name="yacute" unicode="&#xfd;" horiz-adv-x="519" 
d="M260 216v-216h-24v216l-237 296h36l213 -273l217 273h32zM233 593h-22l46 61h33z" />
    <glyph glyph-name="thorn" unicode="&#xfe;" horiz-adv-x="630" 
d="M331 -12q-47 0 -84.5 11.5t-65.5 30t-47.5 41t-31.5 45.5h-19v-318h-27v916h27v-321h20q9 24 27.5 47.5t46 42t66 30t88.5 11.5q67 0 118.5 -22t85.5 -59t51.5 -85.5t17.5 -102.5q0 -60 -20.5 -109.5t-57.5 -84.5t-87 -54t-108 -19zM336 503q-78 0 -128 -24.5t-79 -60.5
t-40.5 -78.5t-11.5 -78.5q0 -72 24 -120t61 -77.5t81.5 -42t86.5 -12.5q48 0 92.5 15t79 45.5t55 76.5t20.5 108q0 58 -18.5 104.5t-50.5 78.5t-76 49t-96 17z" />
    <glyph glyph-name="ydieresis" unicode="&#xff;" horiz-adv-x="519" 
d="M260 216v-216h-24v216l-237 296h36l213 -273l217 273h32zM361 598v106h28v-106h-28zM131 598v106h28v-106h-28z" />
    <glyph glyph-name="fraction" unicode="&#x2044;" horiz-adv-x="167" 
d="M-140 -16h-17l464 736h17z" />
    <glyph glyph-name="fi" unicode="&#xfb01;" horiz-adv-x="444" 
d="M371 625v89h27v-89h-27zM371 0v506h27v-506h-27zM249 699q-10 0 -27.5 -1.5t-35 -9.5t-30 -26.5t-12.5 -51.5v-104h155v-21h-155v-485h-28v485h-126v21h126v90q0 29 5 52t18.5 39t38.5 24.5t64 8.5q16 0 34.5 -1.5t38.5 -3.5v-20q-17 2 -34.5 3t-31.5 1z" />
    <glyph glyph-name="fl" unicode="&#xfb02;" horiz-adv-x="444" 
d="M371 0v714h27v-714h-27zM249 699q-10 0 -27.5 -1.5t-35 -9.5t-30 -26.5t-12.5 -51.5v-104h155v-21h-155v-485h-28v485h-126v21h126v90q0 29 5 52t18.5 39t38.5 24.5t64 8.5q16 0 34.5 -1.5t38.5 -3.5v-20q-17 2 -34.5 3t-31.5 1z" />
    <glyph glyph-name="breve" unicode="&#x2d8;" 
d="M83 603q-60 0 -102.5 26t-53.5 91h15q7 -30 21 -49.5t32 -31t40.5 -15.5t47.5 -4t47.5 4t40.5 15.5t31.5 31t21.5 49.5h15q-11 -65 -53.5 -91t-102.5 -26z" />
    <glyph glyph-name="dotaccent" unicode="&#x2d9;" 
d="M60 598v106h46v-106h-46z" />
    <glyph glyph-name="ring" unicode="&#x2da;" 
d="M83 568q-23 0 -43 8.5t-35 23.5t-23.5 35t-8.5 43t8.5 43t23.5 35t35 23.5t43 8.5t43 -8.5t35 -23.5t23.5 -35t8.5 -43t-8.5 -43t-23.5 -35t-35 -23.5t-43 -8.5zM83 773q-20 0 -37 -7.5t-30 -20.5t-20.5 -30.5t-7.5 -36.5q0 -20 7.5 -37t20.5 -30t30 -20.5t37 -7.5
q19 0 36.5 7.5t30.5 20.5t20.5 30t7.5 37q0 19 -7.5 36.5t-20.5 30.5t-30.5 20.5t-36.5 7.5z" />
    <glyph glyph-name="hungarumlaut" unicode="&#x2dd;" 
d="M157 593h-18l131 142h29zM-47 593h-18l130 142h30z" />
    <glyph glyph-name="ogonek" unicode="&#x2db;" 
d="M110 -16q-27 -20 -45 -44.5t-18 -53.5q0 -38 24 -52.5t60 -14.5q26 0 45.5 3.5t38.5 9.5l4 -8q-19 -6 -45.5 -10t-53.5 -4q-52 0 -73.5 20t-21.5 49q0 17 7.5 32.5t19.5 29t27 24.5t31 19z" />
    <glyph glyph-name="caron" unicode="&#x2c7;" 
d="M109 593h-52l-140 142h25l141 -137l141 137h25z" />
    <glyph glyph-name="Lslash" unicode="&#x141;" horiz-adv-x="574" 
d="M62 0v255l-62 -49v21l62 49v438h27v-417l267 214v-20l-267 -214v-256h485v-21h-512z" />
    <glyph glyph-name="dotlessi" unicode="&#x131;" 
d="M71 513h25v-513h-25v513z" />
    <glyph glyph-name="lslash" unicode="&#x142;" 
d="M98 381v-381h-30v353l-68 -65v17l68 64v345h30v-317l68 65v-17z" />
    <glyph glyph-name="minus" unicode="&#x2212;" horiz-adv-x="600" 
d="M47 263h506v-20h-506v20z" />
    <glyph glyph-name="Zcaron" unicode="&#x17d;" horiz-adv-x="611" 
d="M-5 0v36l592 657h-558v21h579v-33l-593 -660h601v-21h-621zM332 755h-52l-140 142h25l141 -137l141 137h25z" />
    <glyph glyph-name="zcaron" unicode="&#x17e;" horiz-adv-x="519" 
d="M12 0v33l449 458h-422v21h453v-21l-461 -470h476v-21h-495zM286 593h-52l-140 142h25l141 -137l141 137h25z" />
    <glyph glyph-name="quotedbl" unicode="&#x22;" horiz-adv-x="352" 
d="M244 484v230h22v-230h-22zM86 484v230h23v-230h-23z" />
    <glyph glyph-name="exclam" unicode="!" horiz-adv-x="181" 
d="M79 133q-3 63 -7.5 123t-4.5 120v135h38v-135q0 -60 -4 -120t-6 -123h-16zM67 -1v65h38v-65h-38z" />
  </font>
</defs>
</svg>
