<?xml version="1.0" standalone="no"?>
<!DOCTYPE svg PUBLIC "-//W3C//DTD SVG 1.1//EN" "http://www.w3.org/Graphics/SVG/1.1/DTD/svg11.dtd" >
<svg xmlns="http://www.w3.org/2000/svg" xmlns:xlink="http://www.w3.org/1999/xlink" version="1.1">
<metadata>
Created by FontForge 20190801 at Mon Oct  4 08:22:46 2010
 By Jimmy Wärting
Inspired on the popular font HELVETICA by Max Miedinger with Eduard Hoffman, eliminating all highs and lows.
</metadata>
<defs>
<font id="Lowvetica" horiz-adv-x="166" >
  <font-face 
    font-family="Lowvetica"
    font-weight="400"
    font-stretch="normal"
    units-per-em="1000"
    panose-1="0 0 0 0 0 0 0 0 0 0"
    ascent="800"
    descent="-200"
    x-height="512"
    cap-height="714"
    bbox="-165 -202 1162 950"
    underline-thickness="50"
    underline-position="-100"
    unicode-range="U+000D-FB02"
  />
<missing-glyph horiz-adv-x="222" 
 />
    <glyph glyph-name=".notdef" horiz-adv-x="222" 
 />
    <glyph glyph-name=".null" horiz-adv-x="0" 
 />
    <glyph glyph-name=".null" horiz-adv-x="0" 
 />
    <glyph glyph-name="nonmarkingreturn" unicode="&#xd;" horiz-adv-x="222" 
 />
    <glyph glyph-name="space" unicode=" " horiz-adv-x="222" 
 />
    <glyph glyph-name="exclam" unicode="!" horiz-adv-x="181" 
d="M74 128q-2 63 -4.5 123t-2.5 120v140h48v-140q0 -60 -2.5 -120t-3.5 -123h-35zM67 81h48v-82h-48v82z" />
    <glyph glyph-name="quotedbl" unicode="&#x22;" horiz-adv-x="352" 
d="M86 484v230h40v-230h-40zM226 484v230h40v-230h-40z" />
    <glyph glyph-name="numbersign" unicode="#" horiz-adv-x="454" 
d="M324 303l-16 -114h78v-35h-83l-22 -160h-36l22 160h-106l-22 -160h-36l22 160h-79v35h84l16 114h-79v36h84l22 160h35l-21 -160h106l22 160h36l-22 -160h78v-36h-83zM182 303l-16 -114h106l16 114h-106z" />
    <glyph glyph-name="dollar" unicode="$" horiz-adv-x="454" 
d="M248 -77h-36v66q-106 7 -151.5 56t-45.5 130h44q1 -66 36.5 -103.5t116.5 -42.5l1 212q-32 7 -65 14.5t-59.5 22t-43 39.5t-16.5 67q0 63 49 96.5t134 35.5v52h36v-51q80 -6 128.5 -44.5t51.5 -118.5h-44q-2 21 -8.5 41.5t-21.5 37.5t-40.5 28.5t-65.5 14.5v-198
q31 -6 65.5 -13t63 -22t47 -40.5t18.5 -67.5q0 -26 -9.5 -52t-32 -46.5t-60 -33.5t-92.5 -14v-66zM212 476q-39 -2 -65 -10t-41 -20.5t-21.5 -29t-6.5 -35.5q0 -44 34 -63.5t100 -32.5v191zM248 233v-204q40 1 68 10t45 23t24.5 32t7.5 38q0 19 -5 33.5t-17.5 25.5t-34 19.5
t-55.5 15.5z" />
    <glyph glyph-name="percent" unicode="%" horiz-adv-x="648" 
d="M487 -17q-65 0 -96.5 39.5t-31.5 101.5q0 60 31 99.5t97 39.5t96.5 -38.5t30.5 -99.5q0 -30 -8 -55.5t-23.5 -45t-39.5 -30.5t-57 -11h1zM108 -21l379 535h43l-379 -535h-43zM163 230q-65 0 -96.5 39.5t-31.5 101.5q0 60 31 99.5t97 39.5t96.5 -38.5t31.5 -99.5
q0 -30 -8 -55.5t-23.5 -45t-39.5 -30.5t-57 -11zM488 227q-48 0 -68 -28.5t-20 -73.5q0 -46 20 -76t67 -30t68 30t21 74q1 46 -20 75t-69 29h1zM164 474q-48 0 -68 -28.5t-20 -73.5q0 -46 20 -76t67 -30t68 30t21 74q1 46 -19.5 75t-68.5 29z" />
    <glyph glyph-name="ampersand" unicode="&#x26;" horiz-adv-x="461" 
d="M415 65q-43 -43 -88.5 -60t-108.5 -17q-48 0 -84 13.5t-59 35t-34.5 49.5t-11.5 58q0 33 13 57t34 41.5t46.5 30.5t50.5 23l-24 26t-21 27t-14.5 30.5t-5.5 36.5q0 15 6 33t20.5 34t38 26.5t59.5 10.5q25 0 47.5 -6.5t39.5 -19.5t27 -33t10 -46q0 -27 -11.5 -48
t-28 -36.5t-36 -26.5t-34.5 -18l165 -157q11 17 17 41t6 47l44 -2q0 -33 -11 -64t-26 -52l105 -100h-64zM233 479q-42 0 -61 -20t-19 -43q0 -14 6 -28t15.5 -27t21 -25t21.5 -21q15 7 32 16t30.5 20.5t22.5 26.5t9 35q0 19 -8 32t-20 20.5t-26 11t-26 3.5zM206 266
q-29 -12 -53.5 -24t-41.5 -26t-26.5 -31t-9.5 -40q0 -29 11.5 -50.5t31.5 -36.5t46.5 -22.5t57.5 -7.5q35 0 62.5 7.5t47.5 18t33.5 21.5t19.5 19l-180 173z" />
    <glyph glyph-name="quotesingle" unicode="'" horiz-adv-x="222" 
d="M91 484v230h40v-230h-40z" />
    <glyph glyph-name="parenleft" unicode="(" horiz-adv-x="207" 
d="M159 -70q-53 75 -85 154t-32 169t32 169t85 154h41q-28 -45 -48.5 -82.5t-34 -74.5t-20.5 -77t-7 -88q0 -49 7 -88.5t21 -76.5t34.5 -75t48.5 -83h-42v-1z" />
    <glyph glyph-name="parenright" unicode=")" horiz-adv-x="207" 
d="M7 -70q28 45 48.5 82.5t34 75t20.5 77t7 88.5t-7 88.5t-20.5 77t-34 75t-48.5 82.5h42q54 -75 85 -153t31 -169q-1 -91 -31.5 -169.5t-84.5 -153.5z" />
    <glyph glyph-name="asterisk" unicode="*" horiz-adv-x="408" 
d="M83 424l95 112l-139 50l14 33l134 -46v141h34v-141l134 46l14 -33l-139 -50l95 -112l-28 -22l-93 110l-93 -110z" />
    <glyph glyph-name="plus" unicode="+" horiz-adv-x="600" 
d="M47 233v40h233v233h40v-233h233v-40h-233v-233h-40v233h-233z" />
    <glyph glyph-name="comma" unicode="," horiz-adv-x="222" 
d="M85 100h52v-100q0 -45 -15.5 -79.5t-54.5 -50.5v34q23 10 29.5 34t6.5 47v15h-18v100z" />
    <glyph glyph-name="hyphen" unicode="-" horiz-adv-x="407" 
d="M75 247v46h257v-46h-257z" />
    <glyph glyph-name="period" unicode="." horiz-adv-x="222" 
d="M85 0v100h52v-100h-52z" />
    <glyph glyph-name="slash" unicode="/" horiz-adv-x="285" 
d="M28 -17h-46l275 534h45z" />
    <glyph glyph-name="zero" unicode="0" horiz-adv-x="454" 
d="M230 -9q-60 0 -101.5 22t-66.5 59t-36 85t-11 100t11 100t36 85t65.5 59t99.5 22q61 0 102.5 -22t67 -58.5t36.5 -85t11 -100.5q0 -53 -10.5 -101t-35.5 -85t-66.5 -58.5t-102.5 -21.5h1zM230 483q-48 0 -81 -18.5t-52.5 -50t-28 -72.5t-8.5 -85t8 -84.5t27.5 -72
t52 -50.5t82.5 -19q49 0 82 18.5t52.5 49.5t27.5 72t8 87q0 45 -8 86t-27.5 71.5t-52.5 49t-82 18.5z" />
    <glyph glyph-name="one" unicode="1" horiz-adv-x="301" 
d="M170 434q-33 -26 -74 -39.5t-84 -17.5l1 42q21 1 46 8t48 18.5t41.5 28t27.5 36.5h38v-510h-44v434z" />
    <glyph glyph-name="two" unicode="2" horiz-adv-x="461" 
d="M34 0q4 39 15 65.5t31.5 48.5t51.5 42t75 45q29 17 64.5 37t59.5 43q20 19 29.5 39t9.5 49q1 54 -35 84t-108 30q-75 0 -107 -39t-32 -111h-45q2 102 49.5 146.5t140.5 44.5t137.5 -42.5t43.5 -111.5q0 -36 -10 -61.5t-33 -48.5q-22 -22 -57.5 -44t-87.5 -52
q-16 -9 -39 -22.5t-45 -30t-38.5 -34.5t-19.5 -36h341v-41h-390h-1z" />
    <glyph glyph-name="three" unicode="3" horiz-adv-x="461" 
d="M335 275q17 -5 34.5 -15t31 -26t22 -40t8.5 -57q0 -65 -50 -107t-148 -42q-94 0 -148 45t-56 145h45q0 -81 41.5 -115.5t122.5 -33.5q26 0 52.5 4.5t48 17.5t35 35.5t13.5 57.5q0 40 -18.5 62t-46.5 32t-61 12t-62 2l1 41q32 0 63 1.5t56 10t40 26t15 50.5
q0 29 -10.5 48.5t-29 31.5t-43 17t-52.5 5q-69 0 -110 -32.5t-41 -107.5h-44q1 48 16 82.5t40.5 56t61 31.5t77.5 10q82 0 130.5 -35.5t48.5 -102.5q0 -48 -22.5 -74t-59.5 -36h-1z" />
    <glyph glyph-name="four" unicode="4" horiz-adv-x="459" 
d="M342 126v-126h-44v126h-273v42l274 342h43v-343h95v-41h-95zM298 447l-222 -280h222v280z" />
    <glyph glyph-name="five" unicode="5" horiz-adv-x="459" 
d="M99 300q29 23 65.5 34.5t73.5 11.5q44 0 79 -13t59.5 -36t37.5 -55t13 -70q0 -45 -15 -79t-42 -57.5t-64 -35t-81 -11.5q-39 0 -74 11t-61.5 33t-42 54.5t-16.5 76.5h44q6 -72 47 -102.5t108 -30.5q72 1 112.5 35t39.5 103q0 24 -8 48.5t-26.5 44t-47.5 31.5t-71 12
q-54 0 -89 -21t-52 -46h-44l58 273h299v-40h-264l-37 -170z" />
    <glyph glyph-name="six" unicode="6" horiz-adv-x="461" 
d="M73 260q18 33 58.5 59t104.5 26q40 0 75.5 -11.5t61 -34t40.5 -55t15 -74.5q0 -39 -13.5 -72.5t-39 -58t-62 -38.5t-82.5 -14q-59 0 -98 19.5t-62 53.5t-32.5 79.5t-9.5 96.5q0 57 8 109t31 91.5t65.5 63t111.5 23.5q75 0 122.5 -38t51.5 -105h-44q-6 55 -45.5 79
t-91.5 24q-51 0 -83.5 -19t-50.5 -50t-24.5 -71t-6.5 -82v-1zM238 304q-78 0 -117 -38t-38 -98q0 -19 6 -43.5t23 -46.5t47 -37t79 -15q66 0 106 38t40 104q0 58 -36.5 97t-108.5 39h-1z" />
    <glyph glyph-name="seven" unicode="7" horiz-adv-x="419" 
d="M20 470v40h378v-41q-54 -54 -93.5 -104.5t-68 -106t-47 -118t-29.5 -140.5l-50 -1q21 141 78 258t157 213h-325z" />
    <glyph glyph-name="eight" unicode="8" horiz-adv-x="461" 
d="M326 278q19 -5 39 -15t36 -26t26 -39.5t10 -56.5q1 -73 -51.5 -113t-154.5 -40q-103 0 -155 40t-52 113q0 33 10 57t26 40t35.5 25.5t39.5 14.5q-50 16 -68.5 46t-18.5 69q0 40 17 65t44 39t59.5 19.5t63.5 5.5q30 0 62.5 -5.5t58.5 -20t43 -39t17 -63.5q0 -40 -18.5 -70
t-68.5 -46zM230 482q-26 0 -51 -4t-44 -14.5t-30.5 -29.5t-11.5 -48q0 -28 12 -45t31.5 -26.5t44 -13t49.5 -3.5t50 3.5t44.5 13.5t31.5 27.5t12 46.5q0 27 -12 45t-31.5 28.5t-44.5 15t-50 4.5zM231 257q-85 0 -123.5 -30.5t-39.5 -84.5q0 -49 38 -81t125 -32q27 0 56 4.5
t52 17t38 34t15 56.5q0 54 -37.5 85t-124.5 31h1z" />
    <glyph glyph-name="nine" unicode="9" horiz-adv-x="461" 
d="M386 254q-18 -33 -58.5 -59.5t-104.5 -26.5q-41 0 -76 11.5t-60.5 34t-40 55.5t-14.5 75q0 39 13.5 72.5t39 57.5t62 38t82.5 14q58 0 97 -20t62.5 -53.5t33 -78.5t9.5 -96q0 -57 -8 -109t-31.5 -91.5t-66 -63t-110.5 -23.5q-75 0 -122.5 38t-52.5 105l44 -1
q3 -28 15 -47.5t30.5 -31.5t42 -17.5t49.5 -5.5q51 0 83.5 19t50.5 50t24.5 71t6.5 82v1zM222 486q-66 0 -106 -38t-41 -102q0 -58 37 -97t109 -39q77 0 116.5 38t39.5 98q0 19 -6 43t-23 45.5t-47 36.5t-79 15z" />
    <glyph glyph-name="colon" unicode=":" horiz-adv-x="222" 
d="M85 395v100h52v-100h-52zM85 0v100h52v-100h-52z" />
    <glyph glyph-name="semicolon" unicode=";" horiz-adv-x="222" 
d="M85 100h52v-100q0 -45 -15.5 -79.5t-54.5 -50.5v34q23 10 29.5 34t6.5 47v15h-18v100zM85 495h52v-100h-52v100z" />
    <glyph glyph-name="less" unicode="&#x3c;" horiz-adv-x="420" 
d="M27 156v44l366 171v-42l-322 -152l322 -152v-41z" />
    <glyph glyph-name="equal" unicode="=" horiz-adv-x="600" 
d="M553 370v-40h-506v40h506zM553 176v-40h-506v40h506z" />
    <glyph glyph-name="greater" unicode="&#x3e;" horiz-adv-x="420" 
d="M27 -16v41l322 152l-322 152v42l366 -173v-44z" />
    <glyph glyph-name="question" unicode="?" horiz-adv-x="441" 
d="M305 248q-21 -14 -35 -24t-21.5 -19t-10.5 -20t-3 -27v-29h-44l-1 21q-1 27 3.5 44t15 30.5t28 26t41.5 29.5q23 16 38 28t23.5 23t12 23t3.5 28q0 27 -11.5 46t-30 31t-43 18t-50.5 6q-70 0 -107.5 -31t-38.5 -106h-44q0 47 14 80.5t38.5 55t58.5 31.5t75 10
q39 0 72.5 -8t58 -25.5t38.5 -43.5t14 -62q0 -23 -5.5 -41t-16.5 -33.5t-29 -30t-42 -30.5zM188 81h48v-82h-48v82z" />
    <glyph glyph-name="at" unicode="@" horiz-adv-x="800" 
d="M336 166q36 0 68 27.5t56 68t38.5 86t14.5 81.5q0 34 -7 56.5t-19 36t-28 19t-34 5.5q-42 0 -77.5 -26t-61 -65t-39.5 -84.5t-14 -83.5q0 -55 29 -88t74 -33zM566 560h46l-101 -309q-5 -14 -8.5 -26t-3.5 -23q0 -30 40 -30q31 0 65.5 18t63 50t47 77.5t18.5 100.5
q0 59 -23.5 109t-64.5 86t-98.5 56.5t-124.5 20.5q-81 0 -146.5 -26t-112 -71.5t-71.5 -106t-25 -129.5q0 -68 26 -128.5t71 -106t105.5 -72t128.5 -26.5q34 0 69.5 4t69.5 14t64 26.5t53 40.5h46q-28 -36 -62 -60.5t-72 -38.5t-80 -20t-86 -6q-77 0 -145 29t-118.5 79.5
t-80 118.5t-29.5 146q0 77 28.5 145t80 118.5t123.5 80t159 29.5q80 0 145.5 -23.5t112 -64.5t72 -96t25.5 -118q0 -68 -24 -123t-60 -93.5t-78 -59t-79 -20.5q-31 0 -51 17.5t-22 53.5h-2q-26 -35 -62.5 -53t-72.5 -18q-27 0 -50.5 10.5t-41 30t-27.5 47t-10 62.5
q0 53 17.5 106.5t49 96t74.5 69t95 26.5q19 0 38 -6t34.5 -17.5t26 -27.5t13.5 -36h2z" />
    <glyph glyph-name="A" unicode="A" horiz-adv-x="686" 
d="M-11 0l328 714h52l328 -714h-52l-105 230h-394l-105 -230h-52zM343 662l-179 -392h358z" />
    <glyph glyph-name="B" unicode="B" horiz-adv-x="722" 
d="M106 390h318q9 0 26.5 0.5t37.5 4.5t41.5 13t38.5 25t28 41t11 61q0 52 -19 80.5t-47.5 41.5t-62 15t-61.5 2h-311v-284zM106 40h322q9 0 27.5 0.5t41 5t46.5 14.5t43.5 27.5t32 45t12.5 67.5q0 56 -22.5 86.5t-55.5 44.5t-70 16.5t-67 2.5h-310v-310zM60 714h385
q103 0 155.5 -45.5t52.5 -130.5q0 -27 -7 -52.5t-23 -47t-43 -38.5t-67 -26v-2q52 -5 84 -24.5t50 -45.5t24 -54.5t6 -51.5q0 -29 -9.5 -63t-36 -63.5t-73 -49.5t-120.5 -20h-378v714z" />
    <glyph glyph-name="C" unicode="C" horiz-adv-x="796" 
d="M760 271q-6 -51 -31.5 -102t-70 -92.5t-107 -67t-142.5 -25.5q-81 0 -150.5 25t-120.5 73t-80 117t-29 158q0 65 22.5 131.5t69 120t118.5 87.5t170 34q64 0 120 -15t100 -45t74.5 -75t44.5 -105h-46q-13 51 -41.5 89t-67.5 62.5t-86 36.5t-98 12q-77 0 -138.5 -26.5
t-105 -72.5t-67 -106.5t-23.5 -127.5t21.5 -127.5t63.5 -106t104.5 -72.5t144.5 -27q59 0 110.5 17t91 48.5t66.5 77.5t37 104h46z" />
    <glyph glyph-name="D" unicode="D" horiz-adv-x="759" 
d="M60 714h334q63 0 121 -17t102.5 -58t70.5 -110t26 -172q0 -78 -20 -144t-60.5 -113t-102.5 -73.5t-145 -26.5h-326v714zM106 40h289q59 0 109 18.5t86.5 57.5t57 98.5t20.5 142.5q0 85 -20.5 145t-58 98t-90 56t-115.5 18h-278v-634z" />
    <glyph glyph-name="E" unicode="E" horiz-adv-x="648" 
d="M60 0v714h564v-40h-518v-284h497v-40h-497v-310h524v-40h-570z" />
    <glyph glyph-name="F" unicode="F" horiz-adv-x="593" 
d="M60 0v714h518v-40h-472v-284h446v-40h-446v-350h-46z" />
    <glyph glyph-name="G" unicode="G" horiz-adv-x="833" 
d="M440 356h333v-356h-40v176h-2q-20 -48 -52 -84t-72.5 -60t-88.5 -36t-99 -12q-81 0 -150.5 25t-120.5 73t-80 117t-29 158q0 65 22.5 131.5t69 120t118.5 87.5t170 34q66 0 122 -16t100 -46.5t74 -75t43 -102.5h-46q-11 49 -38 86.5t-66 63t-87 38t-102 12.5
q-77 0 -138.5 -26.5t-105 -72.5t-67 -106.5t-23.5 -127.5t21.5 -127.5t63.5 -106t104.5 -72.5t144.5 -27q67 0 122.5 20t95 58t63 92t27.5 122h-287v40z" />
    <glyph glyph-name="H" unicode="H" horiz-adv-x="759" 
d="M60 0v714h46v-318h547v318h46v-714h-46v356h-547v-356h-46z" />
    <glyph glyph-name="I" unicode="I" 
d="M60 0v714h46v-714h-46z" />
    <glyph glyph-name="J" unicode="J" horiz-adv-x="537" 
d="M70 228v-17q0 -24 5 -56t23.5 -61.5t55 -49.5t99.5 -20q93 0 135.5 47t42.5 140v503h46v-499q0 -117 -60 -174t-164 -57q-44 0 -85 10.5t-73 36.5t-51.5 70t-19.5 110v17h46z" />
    <glyph glyph-name="K" unicode="K" horiz-adv-x="704" 
d="M60 0v714h46v-410l514 410h73l-370 -295l396 -419h-64l-368 390l-181 -144v-246h-46z" />
    <glyph glyph-name="L" unicode="L" horiz-adv-x="574" 
d="M60 0v714h46v-674h468v-40h-514z" />
    <glyph glyph-name="M" unicode="M" horiz-adv-x="962" 
d="M65 0v714h69l347 -656l347 656h69v-714h-46v650h-2l-345 -650h-46l-345 650h-2v-650h-46z" />
    <glyph glyph-name="N" unicode="N" horiz-adv-x="759" 
d="M60 0v714h58l533 -650h2v650h46v-714h-58l-533 650h-2v-650h-46z" />
    <glyph glyph-name="O" unicode="O" horiz-adv-x="816" 
d="M75 357q0 -64 22 -124t64 -106.5t104 -74.5t143 -28t143 28t104 74.5t64 106.5t22 124t-22 124t-64 106.5t-104 74.5t-143 28t-143 -28t-104 -74.5t-64 -106.5t-22 -124zM29 357q0 35 8 76t26 82.5t47 80t71 68.5t98 48t129 18q72 0 128.5 -18t98.5 -48t71 -68.5t47 -80
t26 -82.5t8 -76t-8 -76t-26 -82.5t-47 -80t-71 -68.5t-98.5 -48t-128.5 -18t-128.5 18t-98.5 48t-71 68.5t-47 80t-26 82.5t-8 76z" />
    <glyph glyph-name="P" unicode="P" horiz-adv-x="667" 
d="M60 714h372q37 0 76 -8t70 -30t51 -60.5t20 -99.5q0 -45 -13 -82t-40.5 -64t-70 -41.5t-100.5 -14.5h-319v-314h-46v714zM106 354h318q33 0 65 7.5t57.5 25.5t41 49t15.5 78q0 60 -21 92.5t-51 47.5t-62.5 17.5t-55.5 2.5h-307v-320z" />
    <glyph glyph-name="Q" unicode="Q" horiz-adv-x="816" 
d="M493 184l127 -91q60 51 90.5 119.5t30.5 144.5q0 64 -22 124t-64 106.5t-104 74.5t-143 28t-143 -28t-104 -74.5t-64 -106.5t-22 -124t22 -124t64 -106.5t104 -74.5t143 -28q52 0 96 12t79 33l-114 80zM622 41q-42 -26 -93.5 -41.5t-120.5 -15.5q-72 0 -128.5 18
t-98.5 48t-71 68.5t-47 80t-26 82.5t-8 76t8 76t26 82.5t47 80t71 68.5t98 48t129 18q72 0 128.5 -18t98.5 -48t71 -68.5t47 -80t26 -82.5t8 -76q0 -33 -7 -71t-22.5 -76.5t-40 -75t-60.5 -66.5l119 -84l-24 -35z" />
    <glyph glyph-name="R" unicode="R" horiz-adv-x="704" 
d="M60 714h365q51 0 95.5 -8.5t76.5 -30t50.5 -58t18.5 -92.5q0 -29 -8.5 -56.5t-26.5 -51.5t-45.5 -42t-65.5 -27v-2q66 -8 99.5 -49t34.5 -99q1 -50 2.5 -83t3.5 -55.5t5.5 -36t8.5 -23.5h-46q-10 9 -14 46.5t-6 119.5q-1 46 -10 77t-30 49t-56 25.5t-88 7.5h-318v-325
h-46v714zM106 365h311q11 0 30.5 1t42 5.5t46 14t42 27.5t30.5 46t12 69q0 43 -15.5 71.5t-42 45t-61 23t-72.5 6.5h-323v-309z" />
    <glyph glyph-name="S" unicode="S" horiz-adv-x="667" 
d="M74 236q1 -100 65.5 -156t208.5 -56q66 0 111.5 13t74 35t41 50.5t12.5 60.5q0 30 -8.5 52.5t-29.5 39.5t-57.5 30t-92.5 25l-133 28q-59 12 -100 28t-67 38t-37.5 51.5t-11.5 69.5t17.5 74t51.5 58.5t84.5 38.5t116.5 14q67 0 121.5 -12.5t93.5 -39.5t60.5 -68t23.5 -98
h-46q-2 31 -13.5 62.5t-38.5 57t-72.5 42t-115.5 16.5q-65 0 -109.5 -11.5t-71.5 -31t-38.5 -46t-11.5 -57.5q0 -29 7.5 -50.5t26 -38.5t51.5 -29.5t84 -22.5l147 -29q54 -11 95 -25.5t69 -36.5t42.5 -52.5t14.5 -73.5q0 -36 -13.5 -72.5t-46.5 -65t-88 -46.5t-139 -18
q-88 0 -149.5 18t-100.5 51t-56.5 79.5t-17.5 103.5h46z" />
    <glyph glyph-name="T" unicode="T" horiz-adv-x="592" 
d="M-15 674v40h622v-40h-288v-674h-46v674h-288z" />
    <glyph glyph-name="U" unicode="U" horiz-adv-x="740" 
d="M54 714h46v-448q0 -57 14.5 -102t46.5 -76t83.5 -47.5t125.5 -16.5t125.5 16.5t83.5 47.5t46.5 76t14.5 102v448h46v-450q0 -280 -316 -280t-316 280v450z" />
    <glyph glyph-name="V" unicode="V" horiz-adv-x="668" 
d="M308 0l-317 714h52l291 -656l291 656h52l-317 -714h-52z" />
    <glyph glyph-name="W" unicode="W" horiz-adv-x="1018" 
d="M220 0l-235 714h52l212 -650h2l229 650h58l229 -650h2l212 650h52l-235 -714h-58l-230 650h-2l-230 -650h-58z" />
    <glyph glyph-name="X" unicode="X" horiz-adv-x="648" 
d="M-9 0l303 363l-292 351h62l260 -315l265 315h58l-292 -351l302 -363h-61l-272 328l-275 -328h-58z" />
    <glyph glyph-name="Y" unicode="Y" horiz-adv-x="668" 
d="M311 300l-331 414h64l290 -371l296 371h58l-331 -414v-300h-46v300z" />
    <glyph glyph-name="Z" unicode="Z" horiz-adv-x="611" 
d="M-5 0v49l561 625h-528v40h580v-46l-561 -628h569v-40h-621z" />
    <glyph glyph-name="bracketleft" unicode="[" horiz-adv-x="207" 
d="M61 -133v645h128v-40h-84v-565h84v-40h-128z" />
    <glyph glyph-name="backslash" unicode="\" horiz-adv-x="285" 
d="M254 -12l-274 534h46l274 -534h-46z" />
    <glyph glyph-name="bracketright" unicode="]" horiz-adv-x="207" 
d="M17 -133v40h84v565h-84v40h128v-645h-128z" />
    <glyph glyph-name="asciicircum" unicode="^" horiz-adv-x="420" 
d="M361 170l-151 286l-151 -286h-42l172 329h44l170 -329h-42z" />
    <glyph glyph-name="underscore" unicode="_" horiz-adv-x="500" 
d="M500 -125h-500v50h500v-50z" />
    <glyph glyph-name="grave" unicode="`" 
d="M103 593l-78 61h58l65 -61h-45z" />
    <glyph glyph-name="a" unicode="a" horiz-adv-x="593" 
d="M476 286h-2q-8 -9 -28.5 -17t-53.5 -10l-173 -12q-32 -2 -59 -8.5t-46.5 -19t-30.5 -32t-11 -47.5q0 -39 17.5 -62t43 -35t54.5 -15.5t52 -3.5q38 0 80 9t77 29t57.5 52t22.5 78v94zM49 354q6 48 22.5 81.5t45 54t70.5 29.5t100 9q55 0 99 -7.5t74 -24.5t46 -46t16 -72
v-287q0 -29 4 -45t30 -16q19 0 45 8v-40q-24 -8 -56 -8q-24 0 -36.5 8t-18.5 22.5t-7 35t-1 46.5h-2q-21 -39 -52.5 -62.5t-65.5 -36t-67.5 -16t-58.5 -3.5q-11 0 -31 0.5t-43 5t-47.5 14t-44 27t-32 44t-12.5 65.5t15.5 66t42 44t61.5 25.5t74 11.5l179 12q20 1 34.5 4
t24.5 10.5t14.5 21.5t4.5 37q0 26 -8.5 47.5t-30 36.5t-58 23.5t-93.5 8.5q-51 0 -85 -8t-56 -24.5t-33.5 -42t-16.5 -59.5h-46z" />
    <glyph glyph-name="b" unicode="b" horiz-adv-x="593" 
d="M563 144q0 -21 -7 -46.5t-26 -47t-53 -36t-87 -14.5h-333v512h338q75 0 113 -33t38 -96q0 -35 -17 -66.5t-62 -47.5q30 -7 49 -22t29.5 -33t14 -37t3.5 -34v1zM502 381q0 34 -12 52.5t-31 27.5t-41 10.5t-43 1.5h-274v-187h278q9 0 29.5 1.5t41.5 10.5t36.5 28.5
t15.5 55.5v-1zM518 146q0 37 -14.5 57t-36 29.5t-47 11t-46.5 1.5h-273v-205h282q9 0 31.5 1.5t45.5 11.5t41 31.5t18 61.5h-1z" />
    <glyph glyph-name="c" unicode="c" horiz-adv-x="611" 
d="M532 351q-2 24 -19 48.5t-45.5 44t-67.5 32t-85 12.5q-61 0 -106.5 -20t-76 -53t-45.5 -75.5t-15 -88.5q0 -31 12 -70.5t40 -74t75 -58.5t116 -24q39 0 75.5 9.5t66.5 28.5t51.5 48t30.5 69h46q-10 -50 -35.5 -87t-61.5 -61t-80.5 -35.5t-92.5 -11.5q-63 0 -116 19.5
t-91.5 54.5t-60 84t-21.5 109q0 67 23 119t62.5 87t92 53t111.5 18q58 0 106 -15.5t82 -40.5t53.5 -56.5t21.5 -64.5h-46z" />
    <glyph glyph-name="d" unicode="d" horiz-adv-x="587" 
d="M57 1v512h270q45 0 87 -12.5t73.5 -42t50.5 -79t19 -122.5q0 -56 -14.5 -103t-43.5 -81t-73.5 -53t-104.5 -19h-264zM101 473v-432h226q40 0 74 12.5t58.5 39t38.5 67t14 97.5q0 58 -14 99t-39.5 67t-60.5 38t-78 12h-219z" />
    <glyph glyph-name="e" unicode="e" horiz-adv-x="611" 
d="M72 246q1 -48 17.5 -88.5t47.5 -70.5t76 -46.5t103 -16.5q60 0 99 16.5t63 39.5t36.5 48t19.5 42h46q-32 -97 -99 -141.5t-170 -44.5q-66 0 -118.5 19t-89.5 55t-57 87t-20 115q0 40 14 87t47 87t88 67t137 27q67 0 119 -21t88 -58.5t55 -89.5t20 -113h-522zM542 286
q-7 52 -28 90.5t-52.5 63t-71 36.5t-83.5 12q-100 0 -160 -54.5t-75 -147.5h470z" />
    <glyph glyph-name="f" unicode="f" horiz-adv-x="464" 
d="M99 471v-187h312v-40h-312v-245h-44v512h374v-40h-330z" />
    <glyph glyph-name="g" unicode="g" horiz-adv-x="617" 
d="M543 103q-17 -30 -42 -52.5t-55 -37.5t-64 -22.5t-68 -7.5q-59 0 -111.5 18.5t-91.5 53t-61.5 85t-22.5 115.5q0 47 18 95.5t54 88t90 64.5t126 25q48 0 90.5 -11.5t76.5 -35t58 -58t34 -79.5h-45q-8 36 -28.5 62.5t-49.5 44t-64.5 26.5t-72.5 9q-53 0 -97.5 -19
t-76.5 -50.5t-50 -73.5t-18 -88q0 -47 16.5 -89t47.5 -74t76.5 -50.5t102.5 -18.5q46 0 85.5 13.5t68.5 39t47 62t22 82.5h-215v40h260v-266h-41v108z" />
    <glyph glyph-name="h" unicode="h" horiz-adv-x="611" 
d="M511 1v249h-409v-249h-44v512h44v-223h409v223h44v-512h-44z" />
    <glyph glyph-name="i" unicode="i" 
d="M60 0v512h46v-512h-46z" />
    <glyph glyph-name="j" unicode="j" horiz-adv-x="424" 
d="M216 -16q-32 0 -63 8t-56.5 26.5t-41 50.5t-15.5 80v18h44v-18q0 -17 4.5 -38.5t19 -40.5t40.5 -32.5t68 -13.5q63 0 96 31t33 94v358h44v-355q0 -42 -13 -73.5t-36 -52.5t-55 -31.5t-69 -10.5z" />
    <glyph glyph-name="k" unicode="k" horiz-adv-x="556" 
d="M56 0v510h46v-270l365 272h68l-259 -193l283 -319h-63l-256 290l-138 -102v-188h-46z" />
    <glyph glyph-name="l" unicode="l" horiz-adv-x="448" 
d="M38 0v512h44v-472h368v-40h-412z" />
    <glyph glyph-name="m" unicode="m" horiz-adv-x="964" 
d="M56 512h46v-87h2q30 51 83 77t114 26q47 0 80.5 -9.5t56.5 -26t37 -38t22 -45.5q56 119 198 119q111 0 162 -47t51 -134v-347h-46v332q0 31 -9 59.5t-29 50t-51.5 34t-76.5 12.5q-94 0 -142.5 -46t-48.5 -127v-315h-46v341q0 68 -38.5 107.5t-127.5 39.5q-42 0 -77 -12
t-60.5 -35.5t-39.5 -57.5t-14 -78v-305h-46v512z" />
    <glyph glyph-name="n" unicode="n" horiz-adv-x="611" 
d="M56 512h46v-102h2q12 23 31 44t45.5 37.5t61 26.5t78.5 10q59 0 99 -11.5t66 -30t40.5 -41.5t21 -46.5t7.5 -45.5t1 -37v-316h-46v314q0 39 -8.5 71t-30 55t-58 35.5t-93.5 12.5t-98 -16t-67.5 -42.5t-39 -60.5t-12.5 -70v-299h-46v512z" />
    <glyph glyph-name="o" unicode="o" horiz-adv-x="630" 
d="M72 256q0 -44 15 -85.5t45.5 -74t76 -52.5t106.5 -20t106.5 20t76 52.5t45.5 74t15 85.5q0 43 -15 85t-45.5 74.5t-76 52.5t-106.5 20t-106.5 -20t-76 -52.5t-45.5 -74.5t-15 -85zM26 256q0 54 19.5 103t56.5 86.5t90.5 60t122.5 22.5t122.5 -22.5t90.5 -60t56.5 -86.5
t19.5 -103t-19.5 -103.5t-56.5 -87t-90.5 -59.5t-122.5 -22t-122.5 22t-90.5 59.5t-56.5 87t-19.5 103.5z" />
    <glyph glyph-name="p" unicode="p" horiz-adv-x="593" 
d="M101 220v-220h-44v512h339q27 0 55 -6t50.5 -21.5t37 -44t14.5 -73.5q0 -65 -39 -106t-123 -41h-290zM101 472v-212h289q22 0 44 5t38.5 17t27 32.5t10.5 51.5q0 40 -13.5 61.5t-33.5 31.5t-42 11.5t-38 1.5h-282z" />
    <glyph glyph-name="q" unicode="q" horiz-adv-x="630" 
d="M608 10l-24 -35l-90 62q-35 -25 -80 -39t-99 -14q-69 0 -122.5 22t-90.5 59.5t-56.5 87t-19.5 103.5t19.5 103t56.5 86.5t90.5 60t122.5 22.5t122.5 -22.5t90.5 -60t56.5 -86.5t19.5 -103t-19.5 -103t-56.5 -87zM401 155l91 -64q33 33 49.5 76t16.5 89q0 43 -15 85
t-45.5 74.5t-76 52.5t-106.5 20t-106.5 -20t-76 -52.5t-45.5 -74.5t-15 -85q0 -44 15 -85.5t45.5 -74t76 -52.5t105.5 -20q45 0 80 10.5t64 28.5l-82 57z" />
    <glyph glyph-name="r" unicode="r" horiz-adv-x="380" 
d="M56 512h46v-121h2q26 69 81.5 98.5t130.5 29.5q11 0 19 -1.5t19 -4.5v-46q-8 3 -19.5 4.5t-33.5 1.5q-50 0 -87.5 -16t-62 -43t-37 -62.5t-12.5 -74.5v-277h-46v512z" />
    <glyph glyph-name="s" unicode="s" horiz-adv-x="537" 
d="M450 362q-5 64 -49.5 95t-144.5 31q-47 0 -79 -8.5t-51.5 -22.5t-28 -32.5t-8.5 -38.5q0 -42 28.5 -61.5t74.5 -25.5l163 -22q36 -5 65.5 -14.5t51 -26t33 -41t11.5 -58.5q0 -52 -26 -82.5t-64 -46t-80 -20t-75 -4.5q-53 0 -97.5 9.5t-77.5 30.5t-52.5 54.5t-22.5 81.5
h46q2 -20 8 -43.5t27.5 -44t63.5 -34.5t117 -14q101 0 144 29t43 84q0 45 -29 66t-74 27l-180 24q-24 3 -49.5 11t-46.5 22.5t-34.5 37.5t-13.5 58q0 22 9 47t33 47t66 36.5t107 14.5q71 0 116.5 -14.5t71.5 -38.5t37 -53.5t13 -59.5h-46z" />
    <glyph glyph-name="t" unicode="t" horiz-adv-x="487" 
d="M266 472v-472h-44v472h-222v40h487v-40h-221z" />
    <glyph glyph-name="u" unicode="u" horiz-adv-x="611" 
d="M555 0h-46v102h-2q-12 -23 -31 -44t-45.5 -37.5t-61.5 -26.5t-78 -10q-59 0 -99 11.5t-66 30t-40.5 41.5t-21 46.5t-7.5 45t-1 37.5v316h46v-314q0 -39 8.5 -71t30 -55t58 -35.5t93.5 -12.5t98 16t67.5 42.5t39 60.5t12.5 70v299h46v-512z" />
    <glyph glyph-name="v" unicode="v" horiz-adv-x="556" 
d="M255 0l-253 512h52l224 -466l224 466h52l-253 -512h-46z" />
    <glyph glyph-name="w" unicode="w" horiz-adv-x="870" 
d="M231 58l175 454h58l181 -454l179 454h52l-209 -512h-52l-180 460l-180 -460h-52l-209 512h52z" />
    <glyph glyph-name="x" unicode="x" horiz-adv-x="537" 
d="M-11 0l248 267l-227 245h64l195 -211l196 211h58l-225 -242l250 -270h-64l-218 235l-219 -235h-58z" />
    <glyph glyph-name="y" unicode="y" horiz-adv-x="500" 
d="M270 214v-214h-44v214l-238 298h60l200 -256l204 256h56z" />
    <glyph glyph-name="z" unicode="z" horiz-adv-x="519" 
d="M12 0v46l417 426h-391v40h455v-34l-429 -438h443v-40h-495z" />
    <glyph glyph-name="braceleft" unicode="{" horiz-adv-x="207" 
d="M146 -133q-33 0 -50.5 19t-17.5 70v106q0 45 -10.5 75.5t-40.5 32.5v39q30 2 40.5 32.5t10.5 75.5v106q0 51 17.5 70t49.5 19h47v-40h-40q-9 0 -14.5 -1t-9 -7t-5 -18.5t-1.5 -34.5v-105q0 -54 -13.5 -79.5t-30.5 -36.5q17 -11 30.5 -36.5t13.5 -79.5v-106q0 -23 1.5 -35
t5 -18t9 -7t14.5 -1h40v-40h-47h1z" />
    <glyph glyph-name="bar" unicode="|" horiz-adv-x="155" 
d="M57 -12v534h40v-534h-40z" />
    <glyph glyph-name="braceright" unicode="}" horiz-adv-x="207" 
d="M124 -44q0 -51 -17.5 -70t-50.5 -19h-47v40h40q9 0 14.5 1t9 7t5 18t1.5 35l1 105q1 53 14 79.5t29 37.5q-17 11 -30.5 36.5t-13.5 78.5v106q0 22 -1.5 34.5t-5 18.5t-9 7t-14.5 1h-40v40h47q33 0 51 -19t17 -70l-1 -106q-1 -45 10 -75.5t41 -32.5l1 -39
q-30 -2 -40.5 -32.5t-10.5 -75.5v-106z" />
    <glyph glyph-name="asciitilde" unicode="~" horiz-adv-x="420" 
d="M288 143q-21 0 -40 7.5t-42 19.5q-12 6 -31 13t-32 7q-28 0 -42.5 -17t-24.5 -40l-30 32q18 30 38 47.5t55 17.5q22 0 39 -6.5t41 -17.5q17 -8 32.5 -16t35.5 -8q18 0 35 17t29 40l29 -31q-17 -24 -38.5 -45t-54.5 -21z" />
    <glyph glyph-name="quotesinglbase" unicode="&#x201a;" horiz-adv-x="222" 
d="M85 100h52v-100q0 -45 -15.5 -79.5t-54.5 -50.5v34q23 10 29.5 34t6.5 47v15h-18v100z" />
    <glyph glyph-name="florin" unicode="&#x192;" horiz-adv-x="648" 
d="M156 424h138l33 153q8 38 21 65t32.5 44.5t48 25.5t68.5 8q31 0 69 -6l-8 -40q-21 2 -26.5 3t-8 2t-8 1h-25.5q-31 0 -51.5 -7.5t-34 -22.5t-21.5 -36.5t-14 -49.5l-29 -140h141l-6 -34h-142l-83 -398q-8 -40 -17.5 -73.5t-28 -57.5t-50.5 -37.5t-84 -13.5q-17 0 -35.5 1
t-35.5 3l7 40q21 -3 38 -3.5t26 -0.5q34 0 56 8.5t35 22t20 31t11 36.5l95 442h-139z" />
    <glyph glyph-name="quotedblbase" unicode="&#x201e;" horiz-adv-x="352" 
d="M74 100h52v-100q0 -45 -15.5 -79.5t-54.5 -50.5v34q23 10 29.5 34t6.5 47v15h-18v100zM226 100h52v-100q0 -45 -15.5 -79.5t-54.5 -50.5v34q23 10 29.5 34t6.5 47v15h-18v100z" />
    <glyph glyph-name="ellipsis" unicode="&#x2026;" horiz-adv-x="1000" 
d="M141 0v100h52v-100h-52zM474 0v100h52v-100h-52zM807 0v100h52v-100h-52z" />
    <glyph glyph-name="dagger" unicode="&#x2020;" horiz-adv-x="648" 
d="M50 430v40h251v244h46v-244h251v-40h-251v-586h-46v586h-251z" />
    <glyph glyph-name="daggerdbl" unicode="&#x2021;" horiz-adv-x="648" 
d="M50 46v40h251v386h-251v40h251v202h46v-202h251v-40h-251v-386h251v-40h-251v-202h-46v202h-251z" />
    <glyph glyph-name="circumflex" unicode="&#x2c6;" 
d="M266 593h-53l-130 114l-130 -114h-53l155 142h56z" />
    <glyph glyph-name="perthousand" unicode="&#x2030;" horiz-adv-x="1167" 
d="M988 -16q-44 0 -77 14t-54.5 39.5t-32 61t-10.5 78.5q0 42 11 76.5t32.5 60t54 39.5t76.5 14q89 0 131.5 -52t42.5 -138q0 -41 -10.5 -76t-32 -61t-54.5 -41t-77 -15zM988 18q36 0 61.5 12.5t41.5 34t23.5 50.5t7.5 62t-7.5 61.5t-23.5 49.5t-41.5 33t-61.5 12t-61 -12
t-41.5 -33t-24 -49.5t-7.5 -61.5t7.5 -62t23.5 -50.5t41.5 -34t61.5 -12.5zM589 -16q-44 0 -77 14t-54.5 39.5t-32 61t-10.5 78.5q0 42 11 76.5t32.5 60t54 39.5t76.5 14q89 0 131.5 -52t42.5 -138q0 -41 -10.5 -76t-32 -61t-54.5 -41t-77 -15zM589 18q36 0 61.5 12.5
t41.5 34t23.5 50.5t7.5 62t-7.5 61.5t-23.5 49.5t-41.5 33t-61.5 12t-61 -12t-41.5 -33t-24 -49.5t-7.5 -61.5t7.5 -62t23.5 -50.5t41.5 -34t61.5 -12.5zM179 337q-44 0 -77 14t-54.5 39.5t-32 61t-10.5 78.5q0 42 11 76.5t32.5 60t54 39.5t76.5 14q89 0 131.5 -52
t42.5 -138q0 -41 -10.5 -76t-32 -61t-54.5 -41t-77 -15zM179 371q36 0 61.5 12.5t41.5 34t23.5 50.5t7.5 62t-7.5 61.5t-23.5 49.5t-41.5 33t-61.5 12t-61 -12t-41.5 -33t-24 -49.5t-7.5 -61.5t7.5 -62t23.5 -50.5t41.5 -34t61.5 -12.5zM620 726h40l-529 -748h-40z" />
    <glyph glyph-name="Scaron" unicode="&#x160;" horiz-adv-x="667" 
d="M74 236q1 -100 65.5 -156t208.5 -56q66 0 111.5 13t74 35t41 50.5t12.5 60.5q0 30 -8.5 52.5t-29.5 39.5t-57.5 30t-92.5 25l-133 28q-59 12 -100 28t-67 38t-37.5 51.5t-11.5 69.5t17.5 74t51.5 58.5t84.5 38.5t116.5 14q67 0 121.5 -12.5t93.5 -39.5t60.5 -68t23.5 -98
h-46q-2 31 -13.5 62.5t-38.5 57t-72.5 42t-115.5 16.5q-65 0 -109.5 -11.5t-71.5 -31t-38.5 -46t-11.5 -57.5q0 -29 7.5 -50.5t26 -38.5t51.5 -29.5t84 -22.5l147 -29q54 -11 95 -25.5t69 -36.5t42.5 -52.5t14.5 -73.5q0 -36 -13.5 -72.5t-46.5 -65t-88 -46.5t-139 -18
q-88 0 -149.5 18t-100.5 51t-56.5 79.5t-17.5 103.5h46zM464 897h53l-155 -142h-56l-155 142h53l130 -114z" />
    <glyph glyph-name="guilsinglleft" unicode="&#x2039;" horiz-adv-x="296" 
d="M73 247v46l136 135v-54l-102 -104l102 -104v-54z" />
    <glyph glyph-name="OE" unicode="&#x152;" horiz-adv-x="1167" 
d="M632 578q0 15 -16.5 34.5t-47 37t-73.5 29t-95 11.5q-77 0 -137 -25t-100.5 -69.5t-61.5 -105t-21 -131.5q0 -63 16.5 -123t54.5 -107.5t99 -76t150 -28.5q55 0 98.5 13.5t73 32t45 38t15.5 32.5v438zM678 40h471v-40h-517v76q-48 -51 -108.5 -71.5t-127.5 -20.5
q-82 0 -148.5 25.5t-114 73.5t-73.5 117.5t-26 158.5q0 87 28 156t76.5 116.5t114.5 73t143 25.5q66 0 127 -18t109 -66v68h511v-40h-465v-284h444v-40h-444v-310z" />
    <glyph glyph-name="quoteleft" unicode="&#x2018;" horiz-adv-x="222" 
d="M85 584q0 45 15.5 79.5t54.5 50.5v-34q-23 -10 -29.5 -34t-6.5 -47v-15h18v-100h-52v100z" />
    <glyph glyph-name="quoteright" unicode="&#x2019;" horiz-adv-x="222" 
d="M85 714h52v-100q0 -45 -15.5 -79.5t-54.5 -50.5v34q23 10 29.5 34t6.5 47v15h-18v100z" />
    <glyph glyph-name="quotedblleft" unicode="&#x201c;" horiz-adv-x="352" 
d="M74 584q0 45 15.5 79.5t54.5 50.5v-34q-23 -10 -29.5 -34t-6.5 -47v-15h18v-100h-52v100zM226 584q0 45 15.5 79.5t54.5 50.5v-34q-23 -10 -29.5 -34t-6.5 -47v-15h18v-100h-52v100z" />
    <glyph glyph-name="quotedblright" unicode="&#x201d;" horiz-adv-x="352" 
d="M74 714h52v-100q0 -45 -15.5 -79.5t-54.5 -50.5v34q23 10 29.5 34t6.5 47v15h-18v100zM226 714h52v-100q0 -45 -15.5 -79.5t-54.5 -50.5v34q23 10 29.5 34t6.5 47v15h-18v100z" />
    <glyph glyph-name="bullet" unicode="&#x2022;" horiz-adv-x="500" 
d="M72 357q0 37 14 69.5t38 56.5t56.5 38t69.5 14t69.5 -14t56.5 -38t38 -56.5t14 -69.5t-14 -69.5t-38 -56.5t-56.5 -38t-69.5 -14t-69.5 14t-56.5 38t-38 56.5t-14 69.5z" />
    <glyph glyph-name="endash" unicode="&#x2013;" horiz-adv-x="500" 
d="M0 253v34h500v-34h-500z" />
    <glyph glyph-name="emdash" unicode="&#x2014;" horiz-adv-x="1000" 
d="M0 253v34h1000v-34h-1000z" />
    <glyph glyph-name="tilde" unicode="&#x2dc;" 
d="M-91 616q4 33 29 60.5t65 27.5q24 0 45.5 -8t41.5 -19t39 -19t39 -8q15 0 25 5.5t16 14t9 17.5t5 17h34q-5 -36 -27 -61q-11 -12 -25.5 -19.5t-33.5 -7.5q-26 0 -48.5 8t-42.5 19t-39.5 19t-40.5 8q-24 0 -39.5 -16.5t-17.5 -37.5h-34z" />
    <glyph glyph-name="trademark" unicode="&#x2122;" horiz-adv-x="990" 
d="M187 302v378h-143v34h320v-34h-143v-378h-34zM832 302v378h-2l-167 -378h-18l-167 378h-2v-378h-34v412h58l154 -346l154 346h58v-412h-34z" />
    <glyph glyph-name="scaron" unicode="&#x161;" horiz-adv-x="537" 
d="M450 362q-5 64 -49.5 95t-144.5 31q-47 0 -79 -8.5t-51.5 -22.5t-28 -32.5t-8.5 -38.5q0 -42 28.5 -61.5t74.5 -25.5l163 -22q36 -5 65.5 -14.5t51 -26t33 -41t11.5 -58.5q0 -52 -26 -82.5t-64 -46t-80 -20t-75 -4.5q-53 0 -97.5 9.5t-77.5 30.5t-52.5 54.5t-22.5 81.5
h46q2 -20 8 -43.5t27.5 -44t63.5 -34.5t117 -14q101 0 144 29t43 84q0 45 -29 66t-74 27l-180 24q-24 3 -49.5 11t-46.5 22.5t-34.5 37.5t-13.5 58q0 22 9 47t33 47t66 36.5t107 14.5q71 0 116.5 -14.5t71.5 -38.5t37 -53.5t13 -59.5h-46zM399 735h53l-155 -142h-56
l-155 142h53l130 -114z" />
    <glyph glyph-name="guilsinglright" unicode="&#x203a;" horiz-adv-x="296" 
d="M189 270l-102 104v54l136 -135v-46l-136 -135v54z" />
    <glyph glyph-name="oe" unicode="&#x153;" horiz-adv-x="1074" 
d="M1002 286q-12 99 -66 150.5t-154 51.5q-48 0 -89 -17t-70 -45.5t-45.5 -64.5t-16.5 -75h441zM1042 165q-9 -43 -32.5 -76.5t-57.5 -57t-77.5 -35.5t-92.5 -12q-41 0 -80 9.5t-71.5 29t-56.5 49t-34 70.5h-2q-31 -81 -92.5 -119.5t-152.5 -38.5q-61 0 -110.5 19.5t-84 55
t-53.5 85.5t-19 112q0 60 20 110t55.5 86t85.5 56t110 20q88 0 151.5 -39t92.5 -120h2q36 84 99.5 121.5t139.5 37.5q66 0 115 -20.5t82 -58t50 -89.5t19 -114h-487q0 -103 58 -162.5t163 -59.5q82 0 138 34t76 107h46zM521 256q0 52 -15 95t-43.5 73.5t-70 47t-95.5 16.5
q-53 0 -94.5 -16.5t-70.5 -47t-44.5 -73.5t-15.5 -95t15 -94.5t44 -73t70.5 -47.5t95.5 -17q52 0 94 16.5t70.5 46.5t44 73t15.5 96z" />
    <glyph glyph-name="Ydieresis" unicode="&#x178;" horiz-adv-x="668" 
d="M311 300l-331 414h64l290 -371l296 371h58l-331 -414v-300h-46v300zM205 760v106h46v-106h-46zM417 760v106h46v-106h-46z" />
    <glyph glyph-name="nonbreakingspace" unicode="&#xa0;" horiz-adv-x="222" 
 />
    <glyph glyph-name="exclamdown" unicode="&#xa1;" horiz-adv-x="181" 
d="M69 374h48v-82h-48v82zM69 2q0 60 2.5 120t3.5 123h35q2 -63 4.5 -123t2.5 -120v-140h-48v140z" />
    <glyph glyph-name="cent" unicode="&#xa2;" horiz-adv-x="648" 
d="M310 487q-55 -4 -96 -25t-68.5 -53.5t-41 -73.5t-13.5 -84q0 -30 11 -67.5t36.5 -71.5t67.5 -58.5t104 -28.5v462zM310 -15q-58 3 -106.5 23.5t-84 55.5t-55 82.5t-19.5 104.5q0 64 21 114t57 85t84 54.5t103 22.5v93h34v-92q57 -1 102.5 -17t78.5 -41t51.5 -56.5
t20.5 -62.5h-46q-2 23 -18 47t-43.5 43.5t-64.5 32.5t-81 14v-464q80 0 138 39t75 116h46q-10 -49 -34 -85.5t-58.5 -61t-77 -36.5t-89.5 -12v-109h-34v110z" />
    <glyph glyph-name="sterling" unicode="&#xa3;" horiz-adv-x="648" 
d="M55 356h75q-59 101 -59 173q0 19 8 51.5t34.5 63.5t77 53.5t135.5 22.5q82 0 134 -20.5t81.5 -54t40.5 -77.5t11 -90h-46q0 58 -16.5 97t-46 62.5t-70 33t-89.5 9.5q-36 0 -73 -7.5t-67 -25t-49 -46.5t-19 -72q0 -20 6 -41.5t15.5 -44t21 -44.5t22.5 -43h227v-34h-213
q9 -23 14 -41.5t5 -40.5q0 -31 -10 -60t-26.5 -55.5t-38 -49t-44.5 -41.5l2 -2q48 27 80 31.5t52 4.5q26 0 52.5 -7t52.5 -15t51 -15t47 -7q26 0 49 7.5t42.5 19.5t35.5 26t27 28l21 -38q-45 -46 -91 -64.5t-84 -18.5q-30 0 -57.5 7t-53.5 15t-52 15t-53 7q-24 0 -40.5 -2
t-32.5 -7t-34 -13.5t-44 -21.5l-26 39q29 26 53 50.5t41 49.5t26 52t9 58q0 23 -8 49t-17 40h-89v34z" />
    <glyph glyph-name="currency" unicode="&#xa4;" horiz-adv-x="648" 
d="M539 110l-54 55q-35 -31 -77 -46t-84 -15q-91 0 -161 61l-55 -55l-28 26l58 55q-30 35 -45.5 76.5t-16.5 84.5t14.5 84.5t46.5 76.5l-57 56l28 26l55 -55q70 58 161 60q42 0 84 -15t77 -46l54 56l27 -28l-55 -54q31 -35 46 -76.5t15 -84.5t-15 -84.5t-46 -75.5l55 -54z
M122 352q0 -42 16 -79t43 -64t64 -43t79 -16t79 16t64 43t43 64t16 79t-16 79t-43 64t-64 43t-79 16t-79 -16t-64 -43t-43 -64t-16 -79z" />
    <glyph glyph-name="yen" unicode="&#xa5;" horiz-adv-x="648" 
d="M301 0v170h-211v34h211v96l-12 16h-199v34h173l-273 354h64l265 -354h10l271 354h58l-273 -354h173v-34h-199l-12 -16v-96h211v-34h-211v-170h-46z" />
    <glyph glyph-name="brokenbar" unicode="&#xa6;" horiz-adv-x="222" 
d="M91 -16v270h40v-270h-40zM91 460v270h40v-270h-40z" />
    <glyph glyph-name="section" unicode="&#xa7;" horiz-adv-x="648" 
d="M484 549q0 14 -2.5 38t-18.5 47t-50 39.5t-97 16.5q-18 0 -45 -1.5t-53 -11.5t-44.5 -30.5t-18.5 -59.5q0 -23 15 -44.5t58 -41.5l266 -123q49 -23 79.5 -55t30.5 -78q0 -42 -16.5 -69.5t-39 -44t-44.5 -23.5t-33 -9q9 -6 20 -15t21 -22t17 -32t7 -44q0 -47 -19.5 -76
t-50.5 -45t-70 -21.5t-78 -5.5q-32 0 -70 6t-71 25.5t-55 57t-22 99.5h46q0 -78 43.5 -113t130.5 -35q12 0 40 1.5t57 11t51 30t22 58.5q0 25 -8.5 42.5t-23.5 30.5t-34.5 23t-41.5 20l-204 95q-40 19 -66 36.5t-41 36t-21 37.5t-6 41q0 37 16 63t37.5 42t43.5 24.5t34 11.5
q-11 7 -22.5 16t-21.5 21.5t-16 29.5t-6 41q0 33 14.5 59t40.5 44t62 27.5t79 9.5q52 0 93.5 -9t70.5 -30.5t45 -56t16 -85.5h-46zM208 460q-9 0 -28.5 -6.5t-39.5 -20.5t-35 -35.5t-15 -50.5q0 -24 8.5 -41.5t23 -30.5t34.5 -23.5t44 -21.5l236 -109q1 0 20.5 3.5t42 15.5
t41 34t18.5 58q0 24 -9.5 42t-23.5 31t-31.5 22t-32.5 16z" />
    <glyph glyph-name="dieresis" unicode="&#xa8;" 
d="M-46 598v106h46v-106h-46zM166 598v106h46v-106h-46z" />
    <glyph glyph-name="copyright" unicode="&#xa9;" horiz-adv-x="800" 
d="M67 357q0 -69 26 -129.5t71.5 -106t106 -71.5t129.5 -26t129.5 26t106 71.5t71.5 106t26 129.5t-26 129.5t-71.5 106t-106 71.5t-129.5 26t-129.5 -26t-106 -71.5t-71.5 -106t-26 -129.5zM562 438q-11 57 -50 89t-100 32q-44 0 -78.5 -15t-58.5 -42t-36.5 -64t-12.5 -80
q0 -42 13 -79t37 -64.5t58.5 -44t77.5 -16.5q61 0 100 33.5t50 93.5h40q-5 -36 -22 -66t-42.5 -51t-57.5 -32.5t-68 -11.5q-51 0 -93 18t-71.5 50t-45.5 75.5t-16 94.5t15.5 94.5t44.5 74.5t71 48.5t95 17.5q73 0 125.5 -40.5t64.5 -114.5h-40zM27 357q0 77 29.5 145
t80 118.5t118.5 80t145 29.5t145 -29.5t118.5 -80t80 -118.5t29.5 -145t-29.5 -145t-80 -118.5t-118.5 -80t-145 -29.5t-145 29.5t-118.5 80t-80 118.5t-29.5 145z" />
    <glyph glyph-name="ordfeminine" unicode="&#xaa;" horiz-adv-x="385" 
d="M306 574q-5 -4 -17.5 -9.5t-38.5 -7.5l-113 -8q-46 -3 -66 -20t-20 -44q0 -12 4.5 -24t16 -21.5t32 -15.5t52.5 -6q22 0 48.5 5.5t49 18t37.5 32t15 47.5v53zM340 469q0 -17 2.5 -28t19.5 -11q14 0 29 4v-28q-9 -2 -12 -3t-5.5 -1h-6.5h-16q-17 0 -26 4.5t-13.5 13
t-5 19.5t-0.5 25h-2q-14 -25 -33 -39.5t-39.5 -22t-41 -10t-36.5 -2.5q-43 0 -69.5 9t-41.5 23t-20.5 31t-5.5 34q0 42 31.5 63.5t91.5 26.5l112 8q23 2 38.5 9t15.5 27q0 12 -3 25t-14.5 23t-34.5 16.5t-63 6.5q-57 0 -91 -17t-34 -60h-34q0 29 12.5 49t33 32.5t47.5 18
t56 5.5q30 0 59 -3t51 -12t35.5 -26.5t13.5 -45.5v-164z" />
    <glyph glyph-name="guillemotleft" unicode="&#xab;" horiz-adv-x="444" 
d="M255 270l102 -104v-54l-136 135v46l136 135v-54zM107 270l102 -104v-54l-136 135v46l136 135v-54z" />
    <glyph glyph-name="logicalnot" unicode="&#xac;" horiz-adv-x="600" 
d="M513 108v222h-466v40h506v-262h-40z" />
    <glyph glyph-name="registered" unicode="&#xae;" horiz-adv-x="800" 
d="M256 578h170q33 0 59.5 -5.5t45 -19.5t29 -37.5t10.5 -59.5q0 -58 -30.5 -84t-82.5 -34l133 -202h-46l-133 202h-115v-202h-40v442zM296 372h94q31 0 56.5 2.5t44 11t29 25t10.5 45.5q0 51 -29.5 69.5t-74.5 18.5h-130v-172zM67 357q0 -69 26 -129.5t71.5 -106t106 -71.5
t129.5 -26t129.5 26t106 71.5t71.5 106t26 129.5t-26 129.5t-71.5 106t-106 71.5t-129.5 26t-129.5 -26t-106 -71.5t-71.5 -106t-26 -129.5zM27 357q0 77 29.5 145t80 118.5t118.5 80t145 29.5t145 -29.5t118.5 -80t80 -118.5t29.5 -145t-29.5 -145t-80 -118.5t-118.5 -80
t-145 -29.5t-145 29.5t-118.5 80t-80 118.5t-29.5 145z" />
    <glyph glyph-name="macron" unicode="&#xaf;" 
d="M-108 640v34h382v-34h-382z" />
    <glyph glyph-name="degree" unicode="&#xb0;" horiz-adv-x="400" 
d="M55 575q0 30 11.5 56.5t31 46t46 31t56.5 11.5t56.5 -11.5t46 -31t31 -46t11.5 -56.5t-11.5 -56.5t-31 -46t-46 -31t-56.5 -11.5t-56.5 11.5t-46 31t-31 46t-11.5 56.5zM89 575q0 -23 9 -43t24 -35t35 -24t43 -9q22 0 42.5 9t35.5 24t24 35t9 43q0 22 -9 42.5t-24 35.5
t-35.5 24t-42.5 9q-23 0 -43 -9t-35 -24t-24 -35.5t-9 -42.5z" />
    <glyph glyph-name="plusminus" unicode="&#xb1;" horiz-adv-x="600" 
d="M47 278v40h233v188h40v-188h233v-40h-233v-188h-40v188h-233zM47 0v40h506v-40h-506z" />
    <glyph glyph-name="twosuperior" unicode="&#xb2;" horiz-adv-x="421" 
d="M383 294h-345q4 33 14 55t28 39t44 32t62 34t64 33.5t47.5 30t30 34.5t10.5 46q0 26 -11 44t-28 29t-39 16t-44 5q-72 0 -104 -33.5t-32 -87.5h-34q0 78 42.5 113.5t127.5 35.5q29 0 57 -6.5t50 -21t35.5 -37.5t13.5 -57q0 -31 -11 -53.5t-32 -41t-52 -35.5t-70 -36
q-52 -26 -88 -50.5t-47 -59.5h311v-28z" />
    <glyph glyph-name="threesuperior" unicode="&#xb3;" horiz-adv-x="421" 
d="M187 528q20 0 46.5 1.5t50.5 9t40.5 24t16.5 46.5q0 25 -11.5 41t-29.5 25.5t-39.5 13t-41.5 3.5q-28 0 -53 -6t-44 -19.5t-30 -35.5t-11 -53h-34q1 39 14 66.5t36 44t55.5 24t72.5 7.5q24 0 50.5 -5t48.5 -18t36.5 -34t14.5 -54q0 -47 -29.5 -67t-71.5 -25v-2
q48 0 80.5 -29t32.5 -83q0 -39 -16 -64t-41.5 -39.5t-57.5 -20t-63 -5.5q-37 0 -69 8t-55.5 26t-37 47.5t-13.5 72.5h34q0 -36 12 -60t32.5 -39t47 -21t56.5 -6q23 0 47.5 5t44.5 17t32.5 31.5t12.5 48.5q0 35 -17 54.5t-42 28.5t-54 11t-53 2v28z" />
    <glyph glyph-name="acute" unicode="&#xb4;" 
d="M75 654h58l-70 -61h-45z" />
    <glyph glyph-name="mu" unicode="&#xb5;" horiz-adv-x="611" 
d="M555 0h-46v102h-2q-12 -23 -31 -44t-45.5 -37.5t-61.5 -26.5t-78 -10t-74.5 7.5t-53.5 19t-36 25.5t-23 28h-2v-266h-46v714h46v-314q0 -39 8.5 -71t30 -55t58 -35.5t93.5 -12.5t98 16t67.5 42.5t39 60.5t12.5 70v299h46v-512z" />
    <glyph glyph-name="paragraph" unicode="&#xb6;" horiz-adv-x="600" 
d="M258 324q-44 0 -82 15.5t-65.5 42t-43.5 62t-16 74.5q0 97 58.5 146.5t164.5 49.5h217v-860h-40v820h-153v-820h-40v470z" />
    <glyph glyph-name="periodcentered" unicode="&#xb7;" horiz-adv-x="222" 
d="M55 320q0 23 16.5 39.5t39.5 16.5t39.5 -16.5t16.5 -39.5t-16.5 -39.5t-39.5 -16.5t-39.5 16.5t-16.5 39.5z" />
    <glyph glyph-name="cedilla" unicode="&#xb8;" 
d="M80 0h34l-51 -55l2 -2q28 6 44 6q15 0 30 -4t27.5 -11.5t20 -19.5t7.5 -28q0 -21 -10.5 -35.5t-26.5 -23.5t-36 -13t-38 -4q-25 0 -56.5 5.5t-54.5 12.5l10 28q18 -7 44.5 -12.5t45.5 -5.5q7 0 20.5 0.5t27 5t24 13.5t10.5 26q0 12 -6 19t-15 11.5t-20 6t-20 1.5
q-22 0 -35 -3.5t-24 -8.5l-17 15z" />
    <glyph glyph-name="onesuperior" unicode="&#xb9;" horiz-adv-x="388" 
d="M201 655q-31 -26 -70 -38.5t-75 -16.5v28q18 1 40.5 7t43.5 16.5t38.5 24.5t25.5 32h31v-422h-34v369z" />
    <glyph glyph-name="ordmasculine" unicode="&#xba;" horiz-adv-x="410" 
d="M51 555q0 -26 9.5 -50.5t29 -43.5t48.5 -31t67 -12q37 0 66 12t48.5 31t29.5 43.5t10 50.5q0 25 -10 50t-29.5 44t-48.5 31t-66 12q-38 0 -67 -12t-48.5 -31t-29 -44t-9.5 -50zM17 555q0 40 15 71t40.5 52t60 31.5t72.5 10.5t72.5 -10.5t60 -31.5t40.5 -52t15 -71
q0 -41 -15 -71.5t-40.5 -51.5t-60 -31.5t-72.5 -10.5t-72.5 10.5t-60 31.5t-40.5 51.5t-15 71.5z" />
    <glyph glyph-name="guillemotright" unicode="&#xbb;" horiz-adv-x="444" 
d="M337 270l-102 104v54l136 -135v-46l-136 -135v54zM189 270l-102 104v54l136 -135v-46l-136 -135v54z" />
    <glyph glyph-name="onequarter" unicode="&#xbc;" horiz-adv-x="972" 
d="M799 422h34v-285h89v-28h-89v-109h-34v109h-245v33zM799 382l-211 -245h211v245zM176 655q-31 -26 -70 -38.5t-75 -16.5v28q18 1 40.5 7t43.5 16.5t38.5 24.5t25.5 32h31v-422h-34v369zM660 720h40l-457 -736h-40z" />
    <glyph glyph-name="onehalf" unicode="&#xbd;" horiz-adv-x="972" 
d="M660 720h40l-457 -736h-40zM176 655q-31 -26 -70 -38.5t-75 -16.5v28q18 1 40.5 7t43.5 16.5t38.5 24.5t25.5 32h31v-422h-34v369zM909 0h-345q4 33 14 55t28 39t44 32t62 34t64 33.5t47.5 30t30 34.5t10.5 46q0 26 -11 44t-28 29t-39 16t-44 5q-72 0 -104 -33.5
t-32 -87.5h-34q0 78 42.5 113.5t127.5 35.5q29 0 57 -6.5t50 -21t35.5 -37.5t13.5 -57q0 -31 -11 -53.5t-32 -41t-52 -35.5t-70 -36q-52 -26 -88 -50.5t-47 -59.5h311v-28z" />
    <glyph glyph-name="threequarters" unicode="&#xbe;" horiz-adv-x="972" 
d="M799 424h34v-287h89v-28h-89v-109h-34v109h-245v33zM799 384l-211 -247h211v247zM730 720h40l-457 -736h-40zM207 528q20 0 46.5 1.5t50.5 9t40.5 24t16.5 46.5q0 25 -11.5 41t-29.5 25.5t-39.5 13t-41.5 3.5q-28 0 -53 -6t-44 -19.5t-30 -35.5t-11 -53h-34q1 39 14 66.5
t36 44t55.5 24t72.5 7.5q24 0 50.5 -5t48.5 -18t36.5 -34t14.5 -54q0 -47 -29.5 -67t-71.5 -25v-2q48 0 80.5 -29t32.5 -83q0 -39 -16 -64t-41.5 -39.5t-57.5 -20t-63 -5.5q-37 0 -69 8t-55.5 26t-37 47.5t-13.5 72.5h34q0 -36 12 -60t32.5 -39t47 -21t56.5 -6q23 0 47.5 5
t44.5 17t32.5 31.5t12.5 48.5q0 35 -17 54.5t-42 28.5t-54 11t-53 2v28z" />
    <glyph glyph-name="questiondown" unicode="&#xbf;" horiz-adv-x="441" 
d="M205 369h49v-82h-49v82zM226 -154q-39 0 -72.5 8t-58 25.5t-38.5 43.5t-14 62q0 23 5.5 41t17 33.5t29 30.5t42.5 31q21 14 35 23.5t21.5 19t10.5 20t3 27.5v29h45v-21q0 -26 -4.5 -43.5t-15 -31t-27.5 -26.5t-41 -29q-23 -16 -38 -27.5t-23.5 -23t-11.5 -23.5t-3 -28
q0 -27 11.5 -46t30 -31t43 -18t50.5 -6q70 0 107.5 31t37.5 106h44q0 -47 -14 -80.5t-38.5 -55t-59 -31.5t-74.5 -10z" />
    <glyph glyph-name="Agrave" unicode="&#xc0;" horiz-adv-x="686" 
d="M-11 0l328 714h52l328 -714h-52l-105 230h-394l-105 -230h-52zM343 662l-179 -392h358zM363 755l-78 61h58l65 -61h-45z" />
    <glyph glyph-name="Aacute" unicode="&#xc1;" horiz-adv-x="686" 
d="M-11 0l328 714h52l328 -714h-52l-105 230h-394l-105 -230h-52zM343 662l-179 -392h358zM335 816h58l-70 -61h-45z" />
    <glyph glyph-name="Acircumflex" unicode="&#xc2;" horiz-adv-x="686" 
d="M-11 0l328 714h52l328 -714h-52l-105 230h-394l-105 -230h-52zM343 662l-179 -392h358zM526 755h-53l-130 114l-130 -114h-53l155 142h56z" />
    <glyph glyph-name="Atilde" unicode="&#xc3;" horiz-adv-x="686" 
d="M-11 0l328 714h52l328 -714h-52l-105 230h-394l-105 -230h-52zM343 662l-179 -392h358zM169 778q4 33 29 60.5t65 27.5q24 0 45.5 -8t41.5 -19t39 -19t39 -8q15 0 25 5.5t16 14t9 17.5t5 17h34q-5 -36 -27 -61q-11 -12 -25.5 -19.5t-33.5 -7.5q-26 0 -48.5 8t-42.5 19
t-39.5 19t-40.5 8q-24 0 -39.5 -16.5t-17.5 -37.5h-34z" />
    <glyph glyph-name="Adieresis" unicode="&#xc4;" horiz-adv-x="686" 
d="M-11 0l328 714h52l328 -714h-52l-105 230h-394l-105 -230h-52zM343 662l-179 -392h358zM214 760v106h46v-106h-46zM426 760v106h46v-106h-46z" />
    <glyph glyph-name="Aring" unicode="&#xc5;" horiz-adv-x="686" 
d="M-11 0l328 714h52l328 -714h-52l-105 230h-394l-105 -230h-52zM343 662l-179 -392h358zM233 840q0 23 8.5 43t23.5 35t35 23.5t43 8.5t43 -8.5t35 -23.5t23.5 -35t8.5 -43t-8.5 -43t-23.5 -35t-35 -23.5t-43 -8.5t-43 8.5t-35 23.5t-23.5 35t-8.5 43zM267 840
q0 -32 22 -54t54 -22t54 22t22 54t-22 54t-54 22t-54 -22t-22 -54z" />
    <glyph glyph-name="AE" unicode="&#xc6;" horiz-adv-x="1056" 
d="M-33 0l464 714h601v-40h-472v-284h451v-40h-451v-310h478v-40h-524v257h-326l-166 -257h-55zM457 674l-243 -377h300v377h-57z" />
    <glyph glyph-name="Ccedilla" unicode="&#xc7;" horiz-adv-x="796" 
d="M760 271q-6 -51 -31 -101.5t-68.5 -91.5t-105.5 -67t-141 -27l-36 -39l2 -2q28 6 44 6q15 0 30 -4t27.5 -11.5t20 -19.5t7.5 -28q0 -21 -10.5 -35.5t-26.5 -23.5t-36 -13t-38 -4q-25 0 -56.5 5.5t-54.5 12.5l10 28q18 -7 44.5 -12.5t45.5 -5.5q7 0 20.5 0.5t27 5t24 13.5
t10.5 26q0 12 -6 19t-15 11.5t-20 6t-20 1.5q-22 0 -35 -3.5t-24 -8.5l-17 15l51 61q-77 4 -141.5 31t-112 74.5t-74 114.5t-26.5 152q0 65 22.5 131.5t69 120t118.5 87.5t170 34q64 0 120 -15t100 -45t74.5 -75t44.5 -105h-46q-13 51 -41.5 89t-67.5 62.5t-86 36.5t-98 12
q-77 0 -138.5 -26.5t-105 -72.5t-67 -106.5t-23.5 -127.5t21.5 -127.5t63.5 -106t104.5 -72.5t144.5 -27q59 0 110.5 17t91 48.5t66.5 77.5t37 104h46z" />
    <glyph glyph-name="Egrave" unicode="&#xc8;" horiz-adv-x="648" 
d="M60 0v714h564v-40h-518v-284h497v-40h-497v-310h524v-40h-570zM344 755l-78 61h58l65 -61h-45z" />
    <glyph glyph-name="Eacute" unicode="&#xc9;" horiz-adv-x="648" 
d="M60 0v714h564v-40h-518v-284h497v-40h-497v-310h524v-40h-570zM316 816h58l-70 -61h-45z" />
    <glyph glyph-name="Ecircumflex" unicode="&#xca;" horiz-adv-x="648" 
d="M60 0v714h564v-40h-518v-284h497v-40h-497v-310h524v-40h-570zM507 755h-53l-130 114l-130 -114h-53l155 142h56z" />
    <glyph glyph-name="Edieresis" unicode="&#xcb;" horiz-adv-x="648" 
d="M60 0v714h564v-40h-518v-284h497v-40h-497v-310h524v-40h-570zM195 760v106h46v-106h-46zM407 760v106h46v-106h-46z" />
    <glyph glyph-name="Igrave" unicode="&#xcc;" 
d="M60 0v714h46v-714h-46zM103 755l-78 61h58l65 -61h-45z" />
    <glyph glyph-name="Iacute" unicode="&#xcd;" 
d="M60 0v714h46v-714h-46zM75 816h58l-70 -61h-45z" />
    <glyph glyph-name="Icircumflex" unicode="&#xce;" 
d="M60 0v714h46v-714h-46zM266 755h-53l-130 114l-130 -114h-53l155 142h56z" />
    <glyph glyph-name="Idieresis" unicode="&#xcf;" 
d="M60 0v714h46v-714h-46zM-46 760v106h46v-106h-46zM166 760v106h46v-106h-46z" />
    <glyph glyph-name="Eth" unicode="&#xd0;" horiz-adv-x="759" 
d="M60 350h-60v40h60v324h334q63 0 121 -17t102.5 -58t70.5 -110t26 -172q0 -78 -20 -144t-60.5 -113t-102.5 -73.5t-145 -26.5h-326v350zM106 390h266v-40h-266v-310h289q59 0 109 18.5t86.5 57.5t57 98.5t20.5 142.5q0 85 -20.5 145t-58 98t-90 56t-115.5 18h-278v-284z
" />
    <glyph glyph-name="Ntilde" unicode="&#xd1;" horiz-adv-x="759" 
d="M60 0v714h58l533 -650h2v650h46v-714h-58l-533 650h-2v-650h-46zM206 778q4 33 29 60.5t65 27.5q24 0 45.5 -8t41.5 -19t39 -19t39 -8q15 0 25 5.5t16 14t9 17.5t5 17h34q-5 -36 -27 -61q-11 -12 -25.5 -19.5t-33.5 -7.5q-26 0 -48.5 8t-42.5 19t-39.5 19t-40.5 8
q-24 0 -39.5 -16.5t-17.5 -37.5h-34z" />
    <glyph glyph-name="Ograve" unicode="&#xd2;" horiz-adv-x="816" 
d="M75 357q0 -64 22 -124t64 -106.5t104 -74.5t143 -28t143 28t104 74.5t64 106.5t22 124t-22 124t-64 106.5t-104 74.5t-143 28t-143 -28t-104 -74.5t-64 -106.5t-22 -124zM29 357q0 35 8 76t26 82.5t47 80t71 68.5t98 48t129 18q72 0 128.5 -18t98.5 -48t71 -68.5t47 -80
t26 -82.5t8 -76t-8 -76t-26 -82.5t-47 -80t-71 -68.5t-98.5 -48t-128.5 -18t-128.5 18t-98.5 48t-71 68.5t-47 80t-26 82.5t-8 76zM428 755l-78 61h58l65 -61h-45z" />
    <glyph glyph-name="Oacute" unicode="&#xd3;" horiz-adv-x="816" 
d="M75 357q0 -64 22 -124t64 -106.5t104 -74.5t143 -28t143 28t104 74.5t64 106.5t22 124t-22 124t-64 106.5t-104 74.5t-143 28t-143 -28t-104 -74.5t-64 -106.5t-22 -124zM29 357q0 35 8 76t26 82.5t47 80t71 68.5t98 48t129 18q72 0 128.5 -18t98.5 -48t71 -68.5t47 -80
t26 -82.5t8 -76t-8 -76t-26 -82.5t-47 -80t-71 -68.5t-98.5 -48t-128.5 -18t-128.5 18t-98.5 48t-71 68.5t-47 80t-26 82.5t-8 76zM400 816h58l-70 -61h-45z" />
    <glyph glyph-name="Ocircumflex" unicode="&#xd4;" horiz-adv-x="816" 
d="M75 357q0 -64 22 -124t64 -106.5t104 -74.5t143 -28t143 28t104 74.5t64 106.5t22 124t-22 124t-64 106.5t-104 74.5t-143 28t-143 -28t-104 -74.5t-64 -106.5t-22 -124zM29 357q0 35 8 76t26 82.5t47 80t71 68.5t98 48t129 18q72 0 128.5 -18t98.5 -48t71 -68.5t47 -80
t26 -82.5t8 -76t-8 -76t-26 -82.5t-47 -80t-71 -68.5t-98.5 -48t-128.5 -18t-128.5 18t-98.5 48t-71 68.5t-47 80t-26 82.5t-8 76zM591 755h-53l-130 114l-130 -114h-53l155 142h56z" />
    <glyph glyph-name="Otilde" unicode="&#xd5;" horiz-adv-x="816" 
d="M75 357q0 -64 22 -124t64 -106.5t104 -74.5t143 -28t143 28t104 74.5t64 106.5t22 124t-22 124t-64 106.5t-104 74.5t-143 28t-143 -28t-104 -74.5t-64 -106.5t-22 -124zM29 357q0 35 8 76t26 82.5t47 80t71 68.5t98 48t129 18q72 0 128.5 -18t98.5 -48t71 -68.5t47 -80
t26 -82.5t8 -76t-8 -76t-26 -82.5t-47 -80t-71 -68.5t-98.5 -48t-128.5 -18t-128.5 18t-98.5 48t-71 68.5t-47 80t-26 82.5t-8 76zM234 778q4 33 29 60.5t65 27.5q24 0 45.5 -8t41.5 -19t39 -19t39 -8q15 0 25 5.5t16 14t9 17.5t5 17h34q-5 -36 -27 -61q-11 -12 -25.5 -19.5
t-33.5 -7.5q-26 0 -48.5 8t-42.5 19t-39.5 19t-40.5 8q-24 0 -39.5 -16.5t-17.5 -37.5h-34z" />
    <glyph glyph-name="Odieresis" unicode="&#xd6;" horiz-adv-x="816" 
d="M75 357q0 -64 22 -124t64 -106.5t104 -74.5t143 -28t143 28t104 74.5t64 106.5t22 124t-22 124t-64 106.5t-104 74.5t-143 28t-143 -28t-104 -74.5t-64 -106.5t-22 -124zM29 357q0 35 8 76t26 82.5t47 80t71 68.5t98 48t129 18q72 0 128.5 -18t98.5 -48t71 -68.5t47 -80
t26 -82.5t8 -76t-8 -76t-26 -82.5t-47 -80t-71 -68.5t-98.5 -48t-128.5 -18t-128.5 18t-98.5 48t-71 68.5t-47 80t-26 82.5t-8 76zM279 760v106h46v-106h-46zM491 760v106h46v-106h-46z" />
    <glyph glyph-name="multiply" unicode="&#xd7;" horiz-adv-x="420" 
d="M346 14l-136 136l-137 -136l-26 27l136 136l-136 137l26 27l137 -137l136 137l27 -27l-136 -137l136 -136z" />
    <glyph glyph-name="Oslash" unicode="&#xd8;" horiz-adv-x="816" 
d="M126 99q-27 30 -45.5 63t-30 67t-16.5 66.5t-5 61.5q0 35 8 76t26 82.5t47 80t71 68.5t98 48t129 18q88 0 151.5 -25.5t108.5 -67.5l93 93l22 -22l-94 -93q27 -29 45.5 -62.5t30 -67.5t17 -67t5.5 -61q0 -35 -8 -76t-26 -82.5t-47 -80t-71 -68.5t-98.5 -48t-128.5 -18
q-88 0 -151.5 25t-108.5 67l-93 -92l-22 22zM636 606q-42 38 -98.5 61t-129.5 23q-81 0 -143 -28t-104 -74.5t-64 -106.5t-22 -124q0 -63 20.5 -122t62.5 -104zM180 108q42 -39 99 -61.5t129 -22.5q81 0 143 28t104 74.5t64 106.5t22 124q0 63 -20.5 121t-62.5 106z" />
    <glyph glyph-name="Ugrave" unicode="&#xd9;" horiz-adv-x="740" 
d="M54 714h46v-448q0 -57 14.5 -102t46.5 -76t83.5 -47.5t125.5 -16.5t125.5 16.5t83.5 47.5t46.5 76t14.5 102v448h46v-450q0 -280 -316 -280t-316 280v450zM390 755l-78 61h58l65 -61h-45z" />
    <glyph glyph-name="Uacute" unicode="&#xda;" horiz-adv-x="740" 
d="M54 714h46v-448q0 -57 14.5 -102t46.5 -76t83.5 -47.5t125.5 -16.5t125.5 16.5t83.5 47.5t46.5 76t14.5 102v448h46v-450q0 -280 -316 -280t-316 280v450zM362 816h58l-70 -61h-45z" />
    <glyph glyph-name="Ucircumflex" unicode="&#xdb;" horiz-adv-x="740" 
d="M54 714h46v-448q0 -57 14.5 -102t46.5 -76t83.5 -47.5t125.5 -16.5t125.5 16.5t83.5 47.5t46.5 76t14.5 102v448h46v-450q0 -280 -316 -280t-316 280v450zM553 755h-53l-130 114l-130 -114h-53l155 142h56z" />
    <glyph glyph-name="Udieresis" unicode="&#xdc;" horiz-adv-x="740" 
d="M54 714h46v-448q0 -57 14.5 -102t46.5 -76t83.5 -47.5t125.5 -16.5t125.5 16.5t83.5 47.5t46.5 76t14.5 102v448h46v-450q0 -280 -316 -280t-316 280v450zM241 760v106h46v-106h-46zM453 760v106h46v-106h-46z" />
    <glyph glyph-name="Yacute" unicode="&#xdd;" horiz-adv-x="668" 
d="M311 300l-331 414h64l290 -371l296 371h58l-331 -414v-300h-46v300zM326 816h58l-70 -61h-45z" />
    <glyph glyph-name="Thorn" unicode="&#xde;" horiz-adv-x="667" 
d="M60 714h46v-150h326q37 0 76 -8t70 -30t51 -60.5t20 -99.5q0 -45 -13 -82t-40.5 -64t-70 -41.5t-100.5 -14.5h-319v-164h-46v714zM106 204h318q33 0 65 7.5t57.5 25.5t41 49t15.5 78q0 60 -21 92.5t-51 47.5t-62.5 17.5t-55.5 2.5h-307v-320z" />
    <glyph glyph-name="germandbls" unicode="&#xdf;" horiz-adv-x="593" 
d="M56 0v522q0 55 16.5 94t46.5 64t73 36.5t96 11.5q51 0 95.5 -9t77 -30t51.5 -54.5t19 -82.5q0 -23 -6.5 -47t-23 -45.5t-43.5 -37.5t-69 -22v-2q90 -6 134 -59t44 -134q0 -44 -14.5 -83.5t-44.5 -68.5t-75 -46t-105 -17q-58 0 -79 10v40q9 -3 30.5 -6.5t51.5 -3.5
q37 0 71 9t60.5 30t42.5 56.5t16 88.5q0 44 -15.5 75t-44.5 50t-70.5 27.5t-92.5 8.5h-37v40h30q44 0 80 8t61.5 25t39 42.5t13.5 61.5q0 18 -6.5 41.5t-27 44.5t-58.5 35.5t-100 14.5q-53 0 -89.5 -11.5t-59 -33.5t-32.5 -52.5t-10 -67.5v-523h-46z" />
    <glyph glyph-name="agrave" unicode="&#xe0;" horiz-adv-x="593" 
d="M476 286h-2q-8 -9 -28.5 -17t-53.5 -10l-173 -12q-32 -2 -59 -8.5t-46.5 -19t-30.5 -32t-11 -47.5q0 -39 17.5 -62t43 -35t54.5 -15.5t52 -3.5q38 0 80 9t77 29t57.5 52t22.5 78v94zM49 354q6 48 22.5 81.5t45 54t70.5 29.5t100 9q55 0 99 -7.5t74 -24.5t46 -46t16 -72
v-287q0 -29 4 -45t30 -16q19 0 45 8v-40q-24 -8 -56 -8q-24 0 -36.5 8t-18.5 22.5t-7 35t-1 46.5h-2q-21 -39 -52.5 -62.5t-65.5 -36t-67.5 -16t-58.5 -3.5q-11 0 -31 0.5t-43 5t-47.5 14t-44 27t-32 44t-12.5 65.5t15.5 66t42 44t61.5 25.5t74 11.5l179 12q20 1 34.5 4
t24.5 10.5t14.5 21.5t4.5 37q0 26 -8.5 47.5t-30 36.5t-58 23.5t-93.5 8.5q-51 0 -85 -8t-56 -24.5t-33.5 -42t-16.5 -59.5h-46zM287 593l-78 61h58l65 -61h-45z" />
    <glyph glyph-name="aacute" unicode="&#xe1;" horiz-adv-x="593" 
d="M476 286h-2q-8 -9 -28.5 -17t-53.5 -10l-173 -12q-32 -2 -59 -8.5t-46.5 -19t-30.5 -32t-11 -47.5q0 -39 17.5 -62t43 -35t54.5 -15.5t52 -3.5q38 0 80 9t77 29t57.5 52t22.5 78v94zM49 354q6 48 22.5 81.5t45 54t70.5 29.5t100 9q55 0 99 -7.5t74 -24.5t46 -46t16 -72
v-287q0 -29 4 -45t30 -16q19 0 45 8v-40q-24 -8 -56 -8q-24 0 -36.5 8t-18.5 22.5t-7 35t-1 46.5h-2q-21 -39 -52.5 -62.5t-65.5 -36t-67.5 -16t-58.5 -3.5q-11 0 -31 0.5t-43 5t-47.5 14t-44 27t-32 44t-12.5 65.5t15.5 66t42 44t61.5 25.5t74 11.5l179 12q20 1 34.5 4
t24.5 10.5t14.5 21.5t4.5 37q0 26 -8.5 47.5t-30 36.5t-58 23.5t-93.5 8.5q-51 0 -85 -8t-56 -24.5t-33.5 -42t-16.5 -59.5h-46zM329 654h58l-70 -61h-45z" />
    <glyph glyph-name="acircumflex" unicode="&#xe2;" horiz-adv-x="593" 
d="M476 286h-2q-8 -9 -28.5 -17t-53.5 -10l-173 -12q-32 -2 -59 -8.5t-46.5 -19t-30.5 -32t-11 -47.5q0 -39 17.5 -62t43 -35t54.5 -15.5t52 -3.5q38 0 80 9t77 29t57.5 52t22.5 78v94zM49 354q6 48 22.5 81.5t45 54t70.5 29.5t100 9q55 0 99 -7.5t74 -24.5t46 -46t16 -72
v-287q0 -29 4 -45t30 -16q19 0 45 8v-40q-24 -8 -56 -8q-24 0 -36.5 8t-18.5 22.5t-7 35t-1 46.5h-2q-21 -39 -52.5 -62.5t-65.5 -36t-67.5 -16t-58.5 -3.5q-11 0 -31 0.5t-43 5t-47.5 14t-44 27t-32 44t-12.5 65.5t15.5 66t42 44t61.5 25.5t74 11.5l179 12q20 1 34.5 4
t24.5 10.5t14.5 21.5t4.5 37q0 26 -8.5 47.5t-30 36.5t-58 23.5t-93.5 8.5q-51 0 -85 -8t-56 -24.5t-33.5 -42t-16.5 -59.5h-46zM480 593h-53l-130 114l-130 -114h-53l155 142h56z" />
    <glyph glyph-name="atilde" unicode="&#xe3;" horiz-adv-x="593" 
d="M476 286h-2q-8 -9 -28.5 -17t-53.5 -10l-173 -12q-32 -2 -59 -8.5t-46.5 -19t-30.5 -32t-11 -47.5q0 -39 17.5 -62t43 -35t54.5 -15.5t52 -3.5q38 0 80 9t77 29t57.5 52t22.5 78v94zM49 354q6 48 22.5 81.5t45 54t70.5 29.5t100 9q55 0 99 -7.5t74 -24.5t46 -46t16 -72
v-287q0 -29 4 -45t30 -16q19 0 45 8v-40q-24 -8 -56 -8q-24 0 -36.5 8t-18.5 22.5t-7 35t-1 46.5h-2q-21 -39 -52.5 -62.5t-65.5 -36t-67.5 -16t-58.5 -3.5q-11 0 -31 0.5t-43 5t-47.5 14t-44 27t-32 44t-12.5 65.5t15.5 66t42 44t61.5 25.5t74 11.5l179 12q20 1 34.5 4
t24.5 10.5t14.5 21.5t4.5 37q0 26 -8.5 47.5t-30 36.5t-58 23.5t-93.5 8.5q-51 0 -85 -8t-56 -24.5t-33.5 -42t-16.5 -59.5h-46zM123 616q4 33 29 60.5t65 27.5q24 0 45.5 -8t41.5 -19t39 -19t39 -8q15 0 25 5.5t16 14t9 17.5t5 17h34q-5 -36 -27 -61q-11 -12 -25.5 -19.5
t-33.5 -7.5q-26 0 -48.5 8t-42.5 19t-39.5 19t-40.5 8q-24 0 -39.5 -16.5t-17.5 -37.5h-34z" />
    <glyph glyph-name="adieresis" unicode="&#xe4;" horiz-adv-x="593" 
d="M476 286h-2q-8 -9 -28.5 -17t-53.5 -10l-173 -12q-32 -2 -59 -8.5t-46.5 -19t-30.5 -32t-11 -47.5q0 -39 17.5 -62t43 -35t54.5 -15.5t52 -3.5q38 0 80 9t77 29t57.5 52t22.5 78v94zM49 354q6 48 22.5 81.5t45 54t70.5 29.5t100 9q55 0 99 -7.5t74 -24.5t46 -46t16 -72
v-287q0 -29 4 -45t30 -16q19 0 45 8v-40q-24 -8 -56 -8q-24 0 -36.5 8t-18.5 22.5t-7 35t-1 46.5h-2q-21 -39 -52.5 -62.5t-65.5 -36t-67.5 -16t-58.5 -3.5q-11 0 -31 0.5t-43 5t-47.5 14t-44 27t-32 44t-12.5 65.5t15.5 66t42 44t61.5 25.5t74 11.5l179 12q20 1 34.5 4
t24.5 10.5t14.5 21.5t4.5 37q0 26 -8.5 47.5t-30 36.5t-58 23.5t-93.5 8.5q-51 0 -85 -8t-56 -24.5t-33.5 -42t-16.5 -59.5h-46zM168 598v106h46v-106h-46zM380 598v106h46v-106h-46z" />
    <glyph glyph-name="aring" unicode="&#xe5;" horiz-adv-x="593" 
d="M476 286h-2q-8 -9 -28.5 -17t-53.5 -10l-173 -12q-32 -2 -59 -8.5t-46.5 -19t-30.5 -32t-11 -47.5q0 -39 17.5 -62t43 -35t54.5 -15.5t52 -3.5q38 0 80 9t77 29t57.5 52t22.5 78v94zM49 354q6 48 22.5 81.5t45 54t70.5 29.5t100 9q55 0 99 -7.5t74 -24.5t46 -46t16 -72
v-287q0 -29 4 -45t30 -16q19 0 45 8v-40q-24 -8 -56 -8q-24 0 -36.5 8t-18.5 22.5t-7 35t-1 46.5h-2q-21 -39 -52.5 -62.5t-65.5 -36t-67.5 -16t-58.5 -3.5q-11 0 -31 0.5t-43 5t-47.5 14t-44 27t-32 44t-12.5 65.5t15.5 66t42 44t61.5 25.5t74 11.5l179 12q20 1 34.5 4
t24.5 10.5t14.5 21.5t4.5 37q0 26 -8.5 47.5t-30 36.5t-58 23.5t-93.5 8.5q-51 0 -85 -8t-56 -24.5t-33.5 -42t-16.5 -59.5h-46zM187 678q0 23 8.5 43t23.5 35t35 23.5t43 8.5t43 -8.5t35 -23.5t23.5 -35t8.5 -43t-8.5 -43t-23.5 -35t-35 -23.5t-43 -8.5t-43 8.5t-35 23.5
t-23.5 35t-8.5 43zM221 678q0 -32 22 -54t54 -22t54 22t22 54t-22 54t-54 22t-54 -22t-22 -54z" />
    <glyph glyph-name="ae" unicode="&#xe6;" horiz-adv-x="1055" 
d="M516 246q1 -48 17.5 -88.5t47.5 -70.5t76 -46.5t103 -16.5q60 0 99 16.5t63 39.5t36.5 48t19.5 42h46q-32 -97 -99 -141.5t-170 -44.5q-38 0 -76.5 7.5t-73 25.5t-62 48.5t-43.5 75.5h-2q-20 -70 -87 -113.5t-175 -43.5q-11 0 -31 0.5t-43 5t-47.5 14t-44 27t-32 44
t-12.5 65.5t15.5 66t42 44t61.5 25.5t74 11.5l179 12q20 1 34.5 4t24.5 10.5t14.5 21.5t4.5 37q0 26 -8.5 47.5t-30 36.5t-58 23.5t-93.5 8.5q-51 0 -85 -8t-56 -24.5t-33.5 -42t-16.5 -59.5h-46q6 48 22.5 81.5t45 54t70.5 29.5t100 9q43 0 82.5 -5t70.5 -20t51 -41.5
t25 -69.5h2q25 63 87.5 99.5t150.5 36.5q67 0 119 -21t88 -58.5t55 -89.5t20 -113h-522zM986 286q-7 52 -28 90.5t-52.5 63t-71 36.5t-83.5 12q-100 0 -160 -54.5t-75 -147.5h470zM476 286h-2q-8 -9 -28.5 -17t-53.5 -10l-173 -12q-32 -2 -59 -8.5t-46.5 -19t-30.5 -32
t-11 -47.5q0 -39 17.5 -62t43 -35t54.5 -15.5t52 -3.5q38 0 80 9t77 29t57.5 52t22.5 78v94z" />
    <glyph glyph-name="ccedilla" unicode="&#xe7;" horiz-adv-x="611" 
d="M585 179q-10 -49 -34.5 -85t-59.5 -60t-78 -36t-91 -13l-36 -40l2 -2q28 6 44 6q15 0 30 -4t27.5 -11.5t20 -19.5t7.5 -28q0 -21 -10.5 -35.5t-26.5 -23.5t-36 -13t-38 -4q-25 0 -56.5 5.5t-54.5 12.5l10 28q18 -7 44.5 -12.5t45.5 -5.5q7 0 20.5 0.5t27 5t24 13.5
t10.5 26q0 12 -6 19t-15 11.5t-20 6t-20 1.5q-22 0 -35 -3.5t-24 -8.5l-17 15l51 62q-59 3 -107.5 23.5t-83.5 55.5t-54.5 82.5t-19.5 103.5q0 67 23 119t62.5 87t92 53t111.5 18q58 0 106 -15.5t82 -40.5t53.5 -56.5t21.5 -64.5h-46q-2 24 -19 48.5t-45.5 44t-67.5 32
t-85 12.5q-61 0 -106.5 -20t-76 -53t-45.5 -75.5t-15 -88.5q0 -31 12 -70.5t40 -74t75 -58.5t116 -24q39 0 75.5 9.5t66.5 28.5t51.5 48t30.5 69h46z" />
    <glyph glyph-name="egrave" unicode="&#xe8;" horiz-adv-x="611" 
d="M72 246q1 -48 17.5 -88.5t47.5 -70.5t76 -46.5t103 -16.5q60 0 99 16.5t63 39.5t36.5 48t19.5 42h46q-32 -97 -99 -141.5t-170 -44.5q-66 0 -118.5 19t-89.5 55t-57 87t-20 115q0 40 14 87t47 87t88 67t137 27q67 0 119 -21t88 -58.5t55 -89.5t20 -113h-522zM542 286
q-7 52 -28 90.5t-52.5 63t-71 36.5t-83.5 12q-100 0 -160 -54.5t-75 -147.5h470zM306 593l-78 61h58l65 -61h-45z" />
    <glyph glyph-name="eacute" unicode="&#xe9;" horiz-adv-x="611" 
d="M72 246q1 -48 17.5 -88.5t47.5 -70.5t76 -46.5t103 -16.5q60 0 99 16.5t63 39.5t36.5 48t19.5 42h46q-32 -97 -99 -141.5t-170 -44.5q-66 0 -118.5 19t-89.5 55t-57 87t-20 115q0 40 14 87t47 87t88 67t137 27q67 0 119 -21t88 -58.5t55 -89.5t20 -113h-522zM542 286
q-7 52 -28 90.5t-52.5 63t-71 36.5t-83.5 12q-100 0 -160 -54.5t-75 -147.5h470zM338 654h58l-70 -61h-45z" />
    <glyph glyph-name="ecircumflex" unicode="&#xea;" horiz-adv-x="611" 
d="M72 246q1 -48 17.5 -88.5t47.5 -70.5t76 -46.5t103 -16.5q60 0 99 16.5t63 39.5t36.5 48t19.5 42h46q-32 -97 -99 -141.5t-170 -44.5q-66 0 -118.5 19t-89.5 55t-57 87t-20 115q0 40 14 87t47 87t88 67t137 27q67 0 119 -21t88 -58.5t55 -89.5t20 -113h-522zM542 286
q-7 52 -28 90.5t-52.5 63t-71 36.5t-83.5 12q-100 0 -160 -54.5t-75 -147.5h470zM489 593h-53l-130 114l-130 -114h-53l155 142h56z" />
    <glyph glyph-name="edieresis" unicode="&#xeb;" horiz-adv-x="611" 
d="M72 246q1 -48 17.5 -88.5t47.5 -70.5t76 -46.5t103 -16.5q60 0 99 16.5t63 39.5t36.5 48t19.5 42h46q-32 -97 -99 -141.5t-170 -44.5q-66 0 -118.5 19t-89.5 55t-57 87t-20 115q0 40 14 87t47 87t88 67t137 27q67 0 119 -21t88 -58.5t55 -89.5t20 -113h-522zM542 286
q-7 52 -28 90.5t-52.5 63t-71 36.5t-83.5 12q-100 0 -160 -54.5t-75 -147.5h470zM177 598v106h46v-106h-46zM389 598v106h46v-106h-46z" />
    <glyph glyph-name="igrave" unicode="&#xec;" 
d="M60 0v512h46v-512h-46zM66 593l-78 61h58l65 -61h-45z" />
    <glyph glyph-name="iacute" unicode="&#xed;" 
d="M60 0v512h46v-512h-46zM115 654h58l-70 -61h-45z" />
    <glyph glyph-name="icircumflex" unicode="&#xee;" 
d="M60 0v512h46v-512h-46zM266 593h-53l-130 114l-130 -114h-53l155 142h56z" />
    <glyph glyph-name="idieresis" unicode="&#xef;" 
d="M60 0v512h46v-512h-46zM-46 598v106h46v-106h-46zM166 598v106h46v-106h-46z" />
    <glyph glyph-name="eth" unicode="&#xf0;" horiz-adv-x="630" 
d="M72 256q0 -44 15 -85.5t45.5 -74t76 -52.5t106.5 -20t106.5 20t76 52.5t45.5 74t15 85.5q0 43 -15 85t-45.5 74.5t-76 52.5t-106.5 20t-106.5 -20t-76 -52.5t-45.5 -74.5t-15 -85zM26 256q0 54 19 103t55 86.5t87.5 60t116.5 22.5q71 0 133 -26t107 -94l2 2
q-30 65 -67 115.5t-82.5 88t-102.5 64t-127 44.5l27 31q88 -22 163.5 -65.5t130 -106t85.5 -141.5t31 -172q0 -62 -19.5 -114.5t-56.5 -90t-90.5 -58.5t-122.5 -21t-122.5 22t-90.5 59.5t-56.5 87t-19.5 103.5zM486 730l-268 -133l-27 20l272 136z" />
    <glyph glyph-name="ntilde" unicode="&#xf1;" horiz-adv-x="611" 
d="M56 512h46v-102h2q12 23 31 44t45.5 37.5t61 26.5t78.5 10q59 0 99 -11.5t66 -30t40.5 -41.5t21 -46.5t7.5 -45.5t1 -37v-316h-46v314q0 39 -8.5 71t-30 55t-58 35.5t-93.5 12.5t-98 -16t-67.5 -42.5t-39 -60.5t-12.5 -70v-299h-46v512zM132 616q4 33 29 60.5t65 27.5
q24 0 45.5 -8t41.5 -19t39 -19t39 -8q15 0 25 5.5t16 14t9 17.5t5 17h34q-5 -36 -27 -61q-11 -12 -25.5 -19.5t-33.5 -7.5q-26 0 -48.5 8t-42.5 19t-39.5 19t-40.5 8q-24 0 -39.5 -16.5t-17.5 -37.5h-34z" />
    <glyph glyph-name="ograve" unicode="&#xf2;" horiz-adv-x="630" 
d="M72 256q0 -44 15 -85.5t45.5 -74t76 -52.5t106.5 -20t106.5 20t76 52.5t45.5 74t15 85.5q0 43 -15 85t-45.5 74.5t-76 52.5t-106.5 20t-106.5 -20t-76 -52.5t-45.5 -74.5t-15 -85zM26 256q0 54 19.5 103t56.5 86.5t90.5 60t122.5 22.5t122.5 -22.5t90.5 -60t56.5 -86.5
t19.5 -103t-19.5 -103.5t-56.5 -87t-90.5 -59.5t-122.5 -22t-122.5 22t-90.5 59.5t-56.5 87t-19.5 103.5zM325 593l-78 61h58l65 -61h-45z" />
    <glyph glyph-name="oacute" unicode="&#xf3;" horiz-adv-x="630" 
d="M72 256q0 -44 15 -85.5t45.5 -74t76 -52.5t106.5 -20t106.5 20t76 52.5t45.5 74t15 85.5q0 43 -15 85t-45.5 74.5t-76 52.5t-106.5 20t-106.5 -20t-76 -52.5t-45.5 -74.5t-15 -85zM26 256q0 54 19.5 103t56.5 86.5t90.5 60t122.5 22.5t122.5 -22.5t90.5 -60t56.5 -86.5
t19.5 -103t-19.5 -103.5t-56.5 -87t-90.5 -59.5t-122.5 -22t-122.5 22t-90.5 59.5t-56.5 87t-19.5 103.5zM367 654h58l-70 -61h-45z" />
    <glyph glyph-name="ocircumflex" unicode="&#xf4;" horiz-adv-x="630" 
d="M72 256q0 -44 15 -85.5t45.5 -74t76 -52.5t106.5 -20t106.5 20t76 52.5t45.5 74t15 85.5q0 43 -15 85t-45.5 74.5t-76 52.5t-106.5 20t-106.5 -20t-76 -52.5t-45.5 -74.5t-15 -85zM26 256q0 54 19.5 103t56.5 86.5t90.5 60t122.5 22.5t122.5 -22.5t90.5 -60t56.5 -86.5
t19.5 -103t-19.5 -103.5t-56.5 -87t-90.5 -59.5t-122.5 -22t-122.5 22t-90.5 59.5t-56.5 87t-19.5 103.5zM498 593h-53l-130 114l-130 -114h-53l155 142h56z" />
    <glyph glyph-name="otilde" unicode="&#xf5;" horiz-adv-x="630" 
d="M72 256q0 -44 15 -85.5t45.5 -74t76 -52.5t106.5 -20t106.5 20t76 52.5t45.5 74t15 85.5q0 43 -15 85t-45.5 74.5t-76 52.5t-106.5 20t-106.5 -20t-76 -52.5t-45.5 -74.5t-15 -85zM26 256q0 54 19.5 103t56.5 86.5t90.5 60t122.5 22.5t122.5 -22.5t90.5 -60t56.5 -86.5
t19.5 -103t-19.5 -103.5t-56.5 -87t-90.5 -59.5t-122.5 -22t-122.5 22t-90.5 59.5t-56.5 87t-19.5 103.5zM141 616q4 33 29 60.5t65 27.5q24 0 45.5 -8t41.5 -19t39 -19t39 -8q15 0 25 5.5t16 14t9 17.5t5 17h34q-5 -36 -27 -61q-11 -12 -25.5 -19.5t-33.5 -7.5
q-26 0 -48.5 8t-42.5 19t-39.5 19t-40.5 8q-24 0 -39.5 -16.5t-17.5 -37.5h-34z" />
    <glyph glyph-name="odieresis" unicode="&#xf6;" horiz-adv-x="630" 
d="M72 256q0 -44 15 -85.5t45.5 -74t76 -52.5t106.5 -20t106.5 20t76 52.5t45.5 74t15 85.5q0 43 -15 85t-45.5 74.5t-76 52.5t-106.5 20t-106.5 -20t-76 -52.5t-45.5 -74.5t-15 -85zM26 256q0 54 19.5 103t56.5 86.5t90.5 60t122.5 22.5t122.5 -22.5t90.5 -60t56.5 -86.5
t19.5 -103t-19.5 -103.5t-56.5 -87t-90.5 -59.5t-122.5 -22t-122.5 22t-90.5 59.5t-56.5 87t-19.5 103.5zM186 598v106h46v-106h-46zM398 598v106h46v-106h-46z" />
    <glyph glyph-name="divide" unicode="&#xf7;" horiz-adv-x="600" 
d="M47 273h506v-40h-506v40zM247 453q0 22 15.5 37.5t37.5 15.5t37.5 -15.5t15.5 -37.5t-15.5 -37.5t-37.5 -15.5t-37.5 15.5t-15.5 37.5zM247 53q0 22 15.5 37.5t37.5 15.5t37.5 -15.5t15.5 -37.5t-15.5 -37.5t-37.5 -15.5t-37.5 15.5t-15.5 37.5z" />
    <glyph glyph-name="oslash" unicode="&#xf8;" horiz-adv-x="630" 
d="M480 432q-29 26 -70 41t-95 15q-61 0 -106.5 -20t-76 -52.5t-45.5 -74.5t-15 -85q0 -45 15 -85.5t44 -72.5zM150 80q31 -26 71 -41t94 -15q61 0 106.5 20t76 52.5t45.5 74t15 85.5q0 45 -15 85.5t-44 72.5zM100 68q-36 37 -55 85.5t-19 102.5t19.5 103t56.5 86.5t90.5 60
t122.5 22.5q61 0 110 -17.5t86 -48.5l72 69l18 -19l-71 -68q36 -38 55 -86t19 -102t-19.5 -103.5t-56.5 -87t-90.5 -59.5t-122.5 -22q-63 0 -112 18t-84 48l-72 -69l-18 19z" />
    <glyph glyph-name="ugrave" unicode="&#xf9;" horiz-adv-x="611" 
d="M555 0h-46v102h-2q-12 -23 -31 -44t-45.5 -37.5t-61.5 -26.5t-78 -10q-59 0 -99 11.5t-66 30t-40.5 41.5t-21 46.5t-7.5 45t-1 37.5v316h46v-314q0 -39 8.5 -71t30 -55t58 -35.5t93.5 -12.5t98 16t67.5 42.5t39 60.5t12.5 70v299h46v-512zM286 593l-78 61h58l65 -61h-45z
" />
    <glyph glyph-name="uacute" unicode="&#xfa;" horiz-adv-x="611" 
d="M555 0h-46v102h-2q-12 -23 -31 -44t-45.5 -37.5t-61.5 -26.5t-78 -10q-59 0 -99 11.5t-66 30t-40.5 41.5t-21 46.5t-7.5 45t-1 37.5v316h46v-314q0 -39 8.5 -71t30 -55t58 -35.5t93.5 -12.5t98 16t67.5 42.5t39 60.5t12.5 70v299h46v-512zM298 654h58l-70 -61h-45z" />
    <glyph glyph-name="ucircumflex" unicode="&#xfb;" horiz-adv-x="611" 
d="M555 0h-46v102h-2q-12 -23 -31 -44t-45.5 -37.5t-61.5 -26.5t-78 -10q-59 0 -99 11.5t-66 30t-40.5 41.5t-21 46.5t-7.5 45t-1 37.5v316h46v-314q0 -39 8.5 -71t30 -55t58 -35.5t93.5 -12.5t98 16t67.5 42.5t39 60.5t12.5 70v299h46v-512zM489 593h-53l-130 114
l-130 -114h-53l155 142h56z" />
    <glyph glyph-name="udieresis" unicode="&#xfc;" horiz-adv-x="611" 
d="M555 0h-46v102h-2q-12 -23 -31 -44t-45.5 -37.5t-61.5 -26.5t-78 -10q-59 0 -99 11.5t-66 30t-40.5 41.5t-21 46.5t-7.5 45t-1 37.5v316h46v-314q0 -39 8.5 -71t30 -55t58 -35.5t93.5 -12.5t98 16t67.5 42.5t39 60.5t12.5 70v299h46v-512zM177 598v106h46v-106h-46z
M389 598v106h46v-106h-46z" />
    <glyph glyph-name="yacute" unicode="&#xfd;" horiz-adv-x="519" 
d="M270 214v-214h-44v214l-238 298h60l200 -256l204 256h56zM252 654h58l-70 -61h-45z" />
    <glyph glyph-name="thorn" unicode="&#xfe;" horiz-adv-x="630" 
d="M56 714h46v-314h2q9 23 27 46t46 41t66 29.5t88 11.5q67 0 118.5 -22.5t85.5 -60t51.5 -87t17.5 -103.5q0 -61 -20.5 -111t-57.5 -85.5t-87 -55t-108 -19.5q-47 0 -84.5 11.5t-65.5 30t-47 40.5t-30 43h-2v-311h-46v916zM336 488q-72 0 -118.5 -22.5t-73.5 -56.5
t-37.5 -74t-10.5 -74q0 -68 22 -113t56 -73t75.5 -39.5t80.5 -11.5q44 0 85.5 14t73 42.5t50.5 71.5t19 102q0 55 -17 98.5t-46.5 73.5t-70 46t-88.5 16z" />
    <glyph glyph-name="ydieresis" unicode="&#xff;" horiz-adv-x="519" 
d="M270 214v-214h-44v214l-238 298h60l200 -256l204 256h56zM131 598v106h46v-106h-46zM343 598v106h46v-106h-46z" />
    <glyph glyph-name="Zcaron" unicode="&#x17d;" horiz-adv-x="611" 
d="M-5 0v49l561 625h-528v40h580v-46l-561 -628h569v-40h-621zM436 897h53l-155 -142h-56l-155 142h53l130 -114z" />
    <glyph glyph-name="zcaron" unicode="&#x17e;" horiz-adv-x="519" 
d="M12 0v46l417 426h-391v40h455v-34l-429 -438h443v-40h-495zM390 735h53l-155 -142h-56l-155 142h53l130 -114z" />
    <glyph glyph-name="minus" unicode="&#x2212;" horiz-adv-x="600" 
d="M47 233v40h506v-40h-506z" />
    <glyph glyph-name="lslash" unicode="&#x142;" 
d="M60 0v328l-60 -63v45l60 63v341h46v-293l60 63v-45l-60 -63v-376h-46z" />
    <glyph glyph-name="fraction" unicode="&#x2044;" horiz-adv-x="167" 
d="M-165 -16l457 736h40l-457 -736h-40z" />
    <glyph glyph-name="fi" unicode="&#xfb01;" horiz-adv-x="444" 
d="M352 512h46v-512h-46v512zM352 714h46v-106h-46v106zM110 472h-120v40h120v77q0 30 5.5 54t19.5 41.5t39.5 26.5t65.5 9q17 0 37 -2t42 -4v-40q-17 3 -36.5 4.5t-36.5 1.5q-9 0 -24 -1t-29.5 -8.5t-25.5 -23t-11 -44.5v-91h148v-40h-148v-472h-46v472z" />
    <glyph glyph-name="fl" unicode="&#xfb02;" horiz-adv-x="444" 
d="M110 472h-120v40h120v77q0 30 5.5 54t19.5 41.5t39.5 26.5t65.5 9q17 0 37 -2t42 -4v-40q-17 3 -36.5 4.5t-36.5 1.5q-9 0 -24 -1t-29.5 -8.5t-25.5 -23t-11 -44.5v-91h148v-40h-148v-472h-46v472zM352 714h46v-714h-46v714z" />
    <glyph glyph-name="dotlessi" unicode="&#x131;" 
d="M60 0v512h46v-512h-46z" />
    <glyph glyph-name="breve" unicode="&#x2d8;" 
d="M-41 720q11 -50 44 -66.5t80 -16.5t80 16.5t44 66.5h34q-4 -33 -18 -55t-35 -36t-48 -20t-57 -6t-57 6t-48 20t-35 36t-18 55h34z" />
    <glyph glyph-name="dotaccent" unicode="&#x2d9;" 
d="M60 598v106h46v-106h-46z" />
    <glyph glyph-name="ring" unicode="&#x2da;" 
d="M-27 678q0 23 8.5 43t23.5 35t35 23.5t43 8.5t43 -8.5t35 -23.5t23.5 -35t8.5 -43t-8.5 -43t-23.5 -35t-35 -23.5t-43 -8.5t-43 8.5t-35 23.5t-23.5 35t-8.5 43zM7 678q0 -32 22 -54t54 -22t54 22t22 54t-22 54t-54 22t-54 -22t-22 -54z" />
    <glyph glyph-name="hungarumlaut" unicode="&#x2dd;" 
d="M64 735h58l-157 -142h-45zM258 735h58l-157 -142h-45z" />
    <glyph glyph-name="ogonek" unicode="&#x2db;" 
d="M223 -173q-17 -7 -45.5 -12t-57.5 -5q-49 0 -72 20t-23 52q0 24 13 43.5t31.5 34.5t39 25t35.5 15h31q-21 -9 -41 -21t-35 -26.5t-24.5 -31t-9.5 -33.5q0 -28 17 -39t48 -11q26 0 44.5 3.5t36.5 10.5z" />
    <glyph glyph-name="caron" unicode="&#x2c7;" 
d="M213 735h53l-155 -142h-56l-155 142h53l130 -114z" />
    <glyph glyph-name="Lslash" unicode="&#x141;" horiz-adv-x="574" 
d="M60 0v237l-60 -48v46l60 48v431h46v-394l258 208v-46l-258 -208v-234h468v-40h-514z" />
    <glyph glyph-name="uni03BC" unicode="&#x3bc;" horiz-adv-x="611" 
d="M555 0h-46v102h-2q-12 -23 -31 -44t-45.5 -37.5t-61.5 -26.5t-78 -10t-74.5 7.5t-53.5 19t-36 25.5t-23 28h-2v-266h-46v714h46v-314q0 -39 8.5 -71t30 -55t58 -35.5t93.5 -12.5t98 16t67.5 42.5t39 60.5t12.5 70v299h46v-512z" />
  </font>
</defs>
</svg>
