<svg xmlns="http://www.w3.org/2000/svg" xmlns:xlink="http://www.w3.org/1999/xlink" width="1600" height="1300" viewBox="0 0 1600 1300">
  <defs>
    <style>
      .cls-1 {
        fill-rule: evenodd;
        filter: url(#filter);
      }
    </style>
    <filter id="filter" x="0" y="-0.031" width="1600.03" height="1300.031" filterUnits="userSpaceOnUse">
      <feFlood result="flood" flood-color="#fff"/>
      <feComposite result="composite" operator="in" in2="SourceGraphic"/>
      <feBlend result="blend" in2="SourceGraphic"/>
    </filter>
  </defs>
  <path class="cls-1" d="M1600,1296c-1.29-.09-215.01-5.52-368-60-44.27-15.76-234.218-117.03-293-151-38.295-22.13-126.445-84.2-263-68-149.32,17.71-257.393,58.44-425,7C128.379,986.363,28.312,838.79,32,711c4.594-159.2,88.575-199.372,101-206,69.175-36.9,196.557-82.571,252-213,89.674-210.957,419.688-73.087,567-56,71.4,8.282,255.03-8.188,358.19-101.463C1468.85-8.922,1600.01,7.017,1600,7c-0.23-.292.18-6.881,0-7C1599.94-.042,0,0,0,0V1300H1600v-4Z"/>
</svg>
